{
.appVersion = "3341";
.formatVersion = 3;
axes = (
{
name = Weight;
tag = wght;
}
);
classes = (
{
code = "zero one two three four five six seven eight nine zero.zero zero.tf one.tf two.tf three.tf four.tf five.tf six.tf seven.tf eight.tf nine.tf zero.tf.zero ";
name = numbers;
}
);
customParameters = (
{
name = vendorID;
value = BLOM;
},
{
name = "Use Typo Metrics";
value = 1;
},
{
name = "Axis Mappings";
value = {
wght = {
300 = 70;
400 = 90;
500 = 110;
600 = 125;
700 = 145;
};
};
},
{
name = "Family Alignment Zones";
value = (
{
pos = 760;
size = 15;
},
{
pos = 700;
size = 15;
},
{
pos = 559;
size = 15;
},
{
pos = 0;
size = -15;
},
{
pos = -215;
size = -15;
}
);
},
{
name = "Variable Font Origin";
value = "73572E25-487C-487F-975F-150A505979A5";
},
{
name = fsType;
value = (
3
);
}
);
date = "2025-02-06 08:55:11 +0000";
familyName = "Vend Sans";
featurePrefixes = (
{
automatic = 1;
code = "languagesystem DFLT dflt;

languagesystem latn dflt;
languagesystem latn AZE;
languagesystem latn CRT;
languagesystem latn KAZ;
languagesystem latn TAT;
languagesystem latn TRK;
languagesystem latn ROM;
languagesystem latn MOL;
languagesystem latn MAH;
languagesystem latn CAT;
";
name = Languagesystems;
}
);
features = (
{
automatic = 1;
code = "feature locl;
feature subs;
feature sinf;
feature sups;
feature numr;
feature dnom;
feature frac;
feature ordn;
feature pnum;
feature tnum;
feature case;
feature zero;
feature ss01;
feature ss02;
";
tag = aalt;
},
{
automatic = 1;
code = "lookup ccmp_DFLT_1 {
	@CombiningTopAccents = [acutecomb brevecomb caroncomb circumflexcomb commaturnedabovecomb dieresiscomb dotaccentcomb gravecomb hungarumlautcomb macroncomb ringcomb tildecomb];
	lookupflag UseMarkFilteringSet @CombiningTopAccents;
	sub i' @CombiningTopAccents by idotless;
	sub j' @CombiningTopAccents by jdotless;
} ccmp_DFLT_1;

lookup ccmp_latn_1 {
	lookupflag 0;
	sub fi by f i;
	sub fl by f l;
	sub Ldot by L periodcentered.loclCAT.case;
	sub ldot by l periodcentered.loclCAT;

glyphs = (
{
glyphname = A;
kernLeft = KO_A;
kernRight = KO_A;
layers = (
{
anchors = (
{
name = bottom;
pos = (255,0);
},
{
name = ogonek;
pos = (554,10);
},
{
name = top;
pos = (404,700);
}
);
layerId = "73572E25-487C-487F-975F-150A505979A5";
shapes = (
{
closed = 1;
nodes = (
(36.972,0,l),
(389.907,616,l),
(385.907,616,l),
(471.972,0,l),
(546.972,0,l),
(439.762,700,l),
(372.762,700,l),
(-38.028,0,l)
);
},
{
closed = 1;
nodes = (
(464.01,226,l),
(476.763,286,l),
(138.763,286,l),
(126.01,226,l)
);
}
);
userData = {
com.hugojourdan.ColorFlow = {
"0" = 0;
"1" = 0;
"10" = 0;
"11" = 0;
"2" = 0;
"3" = 0;
"4" = 0;
"5" = 0;
"6" = 0;
"7" = 0;
"8" = 0;
"9" = 0;
};
};
width = 625;
},
{
anchors = (
{
name = bottom;
pos = (268,0);
},
{
name = ogonek;
pos = (542,10);
},
{
name = top;
pos = (417,700);
}
);
layerId = "66114D67-63CC-4821-8086-0090D571F0A1";
shapes = (
{
closed = 1;
nodes = (
(112.047,0,l),
(417.523,613.476,l),
(404.397,613.476,l),
(444.95,0,l),
(581.271,0,l),
(518.72,700,l),
(320.856,700,l),
(-45.147,0,l)
);
},
{
closed = 1;
nodes = (
(469.828,192.087,l),
(494.497,308.146,l),
(156.497,308.146,l),
(131.828,192.087,l)
);
}
);
userData = {
com.hugojourdan.ColorFlow = {
"0" = 0;
"1" = 0;
"10" = 0;
"11" = 0;
"2" = 0;
"3" = 0;
"4" = 0;
"5" = 0;
"6" = 0;
"7" = 0;
"8" = 0;
"9" = 0;
};
};
width = 655;
}
);
metricRight = "=|";
unicode = 65;
userData = {
KernOnName = A;
};
},
{
color = 0;
glyphname = AE;
kernRight = KO_E;
lastChange = "2025-02-06 07:51:02 +0000";
layers = (
{
anchors = (
{
name = bottom;
pos = (388,0);
},
{
name = top;
pos = (537,700);
}
);
layerId = "73572E25-487C-487F-975F-150A505979A5";
shapes = (
{
closed = 1;
nodes = (
(38.972,0,l),
(422.346,651,l),
(370.008,640,l),
(542.008,640,l),
(554.762,700,l),
(384.762,700,l),
(-36.028,0,l)
);
},
{
closed = 1;
nodes = (
(454.435,228,l),
(466.763,286,l),
(140.763,286,l),
(128.435,228,l)
);
},
{
alignment = -1;
pos = (347,0);
ref = E;
}
);
userData = {
com.hugojourdan.ColorFlow = {
"0" = 0;
"1" = 0;
"10" = 0;
"11" = 0;
"2" = 0;
"3" = 0;
"4" = 0;
"5" = 0;
"6" = 0;
"7" = 0;
"8" = 0;
"9" = 0;
};
};
width = 890;
},
{
anchors = (
{
name = bottom;
pos = (397,0);
},
{
name = top;
pos = (546,700);
}
);
layerId = "66114D67-63CC-4821-8086-0090D571F0A1";
shapes = (
{
closed = 1;
nodes = (
(110.3,0,l),
(460.003,669.767,l),
(371.31,581.32,l),
(568.834,581.32,l),
(594.06,700,l),
(343.235,700,l),
(-37.768,0,l)
);
},
{
closed = 1;
nodes = (
(485.729,190.34,l),
(510.769,308.146,l),
(164.75,308.146,l),
(139.709,190.34,l)
);
},
{
alignment = -1;
pos = (308,0);
ref = E;
}
);
userData = {
com.hugojourdan.ColorFlow = {
"0" = 0;
"1" = 0;
"10" = 0;
"11" = 0;
"2" = 0;
"3" = 0;
"4" = 0;
"5" = 0;
"6" = 0;
"7" = 0;
"8" = 0;
"9" = 0;
};
};
width = 854;
}
);
metricRight = E;
unicode = 198;
},
{
glyphname = B;
kernLeft = KO_H;
kernRight = KO_B;
layers = (
{
anchors = (
{
name = bottom;
pos = (245,0);
},
{
name = center;
pos = (132,175);
},
{
name = top;
pos = (394,700);
}
);
layerId = "73572E25-487C-487F-975F-150A505979A5";
shapes = (
{
closed = 1;
nodes = (
(288.972,0,ls),
(430.972,0,o),
(518.41,81.743,o),
(542.058,193,cs),
(569.497,322.087,o),
(516.719,394,o),
(365.719,394,cs),
(331.719,394,l),
(393.98,367,l),
(479.618,370,o),
(564.56,445,o),
(583.477,534,cs),
(605.583,638,o),
(554.762,700,o),
(426.762,700,cs),
(180.762,700,l),
(31.972,0,l)
);
},
{
closed = 1;
nodes = (
(175.729,347,l),
(346.729,347,ls),
(444.729,347,o),
(497.865,310,o),
(475.759,206,cs),
(454.29,105,o),
(383.725,60,o),
(285.725,60,cs),
(114.725,60,l)
);
},
{
closed = 1;
nodes = (
(238.008,640,l),
(405.008,640,ls),
(483.008,640,o),
(531.332,618,o),
(512.627,530,cs),
(493.497,440,o),
(433.483,407,o),
(355.483,407,cs),
(188.483,407,l)
);
}
);
userData = {
com.hugojourdan.ColorFlow = {
"0" = 0;
"1" = 0;
"10" = 0;
"11" = 0;
"2" = 0;
"3" = 0;
"4" = 0;
"5" = 0;
"6" = 0;
"7" = 0;
"8" = 0;
"9" = 0;
};
};
width = 603;
},
{
anchors = (
{
name = bottom;
pos = (240,0);
},
{
name = center;
pos = (131,175);
},
{
name = top;
pos = (389,700);
}
);
color = 4;
layerId = "66114D67-63CC-4821-8086-0090D571F0A1";
shapes = (
{
closed = 1;
nodes = (
(292.737,0,ls),
(438.484,0,o),
(538.989,71.915,o),
(564.03,191.262,cs),
(591.175,317.133,o),
(533.869,394,o),
(385.51,394,cs),
(351.51,394,l),
(417.127,368,l),
(509.918,368.882,o),
(588.426,426.596,o),
(608.793,522.488,cs),
(629.454,619.766,o),
(559.274,700,o),
(450.546,700,cs),
(153.497,700,l),
(4.707,0,l)
);
},
{
closed = 1;
nodes = (
(219.11,325.602,l),
(336.062,325.602,ls),
(402.778,326,o),
(437.613,297,o),
(421.536,219.262,cs),
(405.092,144,o),
(356.653,109,o),
(290.113,109.427,cs),
(173.161,109.427,l)
);
},
{
closed = 1;
nodes = (
(275.432,590.573,l),
(392.636,590.573,ls),
(435.105,591,o),
(471.492,574,o),
(458.314,512.233,cs),
(445.56,452,o),
(401.671,429,o),
(358.35,429.272,cs),
(241.146,429.272,l)
);
}
);
userData = {
com.hugojourdan.ColorFlow = {
"0" = 0;
"1" = 0;
"10" = 0;
"11" = 0;
"2" = 0;
"3" = 0;
"4" = 0;
"5" = 0;
"6" = 0;
"7" = 0;
"8" = 0;
"9" = 0;
};
};
width = 611;
}
);
metricLeft = H;
metricRight = "=H*.5";
unicode = 66;
},
{
glyphname = C;
kernLeft = KO_O;
kernRight = KO_C;
layers = (
{
anchors = (
{
name = bottom;
pos = (249,0);
},
{
name = top;
pos = (398,700);
}
);
layerId = "73572E25-487C-487F-975F-150A505979A5";
shapes = (
{
closed = 1;
nodes = (
(382.421,-12,o),
(482.049,38,o),
(557.01,226,c),
(488.71,234,l),
(438.59,97,o),
(373.175,48,o),
(278.175,48,cs),
(148.175,48,o),
(109.343,157,o),
(150.579,351,cs),
(191.815,545,o),
(276.984,654,o),
(406.984,654,cs),
(505.984,654,o),
(546.38,590,o),
(538.449,468,c),
(610.574,478,l),
(617.472,661,o),
(538.737,714,o),
(418.737,714,cs),
(245.737,714,o),
(127.767,573,o),
(80.579,351,cs),
(33.392,129,o),
(91.421,-12,o),
(264.421,-12,cs)
);
}
);
userData = {
com.hugojourdan.ColorFlow = {
"0" = 0;
"1" = 0;
"10" = 0;
"11" = 0;
"2" = 0;
"3" = 0;
"4" = 0;
"5" = 0;
"6" = 0;
"7" = 0;
"8" = 0;
"9" = 0;
};
};
width = 612;
},
{
anchors = (
{
name = bottom;
pos = (250,0);
},
{
name = top;
pos = (399,700);
}
);
color = 4;
layerId = "66114D67-63CC-4821-8086-0090D571F0A1";
shapes = (
{
closed = 1;
nodes = (
(393.933,-12,o),
(516.499,33,o),
(592.028,232.388,c),
(455.549,263.903,l),
(417.092,144,o),
(362.59,104,o),
(289.107,104.058,cs),
(185.59,104,o),
(155.744,180,o),
(191.888,351,cs),
(228.226,521,o),
(289.806,599,o),
(394.271,598.816,cs),
(470.806,599,o),
(510.603,551,o),
(495.828,438.097,c),
(639.233,462.612,l),
(653.409,663,o),
(546.914,714,o),
(417.754,714,cs),
(224.364,714,o),
(93.71,570.322,o),
(49.146,360.664,cs),
(2.455,141,o),
(74.933,-12,o),
(265.438,-12,cs)
);
}
);
userData = {
com.hugojourdan.ColorFlow = {
"0" = 0;
"1" = 0;
"10" = 0;
"11" = 0;
"2" = 0;
"3" = 0;
"4" = 0;
"5" = 0;
"6" = 0;
"7" = 0;
"8" = 0;
"9" = 0;
};
};
width = 629;
}
);
metricLeft = O;
metricRight = "=O*.7";
unicode = 67;
},
{
glyphname = D;
kernLeft = KO_H;
kernRight = KO_D;
layers = (
{
anchors = (
{
name = bottom;
pos = (242,0);
},
{
name = center;
pos = (176,350);
},
{
name = top;
pos = (391,700);
}
);
layerId = "73572E25-487C-487F-975F-150A505979A5";
shapes = (
{
closed = 1;
nodes = (
(216.972,0,ls),
(397.972,0,o),
(541.629,116,o),
(592.005,353,cs),
(642.38,590,o),
(546.762,700,o),
(365.762,700,cs),
(180.762,700,l),
(31.972,0,l)
);
},
{
closed = 1;
nodes = (
(238.008,640,l),
(355.008,640,ls),
(494.008,640,o),
(564.941,555,o),
(521.792,352,cs),
(478.643,149,o),
(370.725,60,o),
(231.725,60,cs),
(114.725,60,l)
);
}
);
userData = {
com.hugojourdan.ColorFlow = {
"0" = 0;
"1" = 0;
"10" = 0;
"11" = 0;
"2" = 0;
"3" = 0;
"4" = 0;
"5" = 0;
"6" = 0;
"7" = 0;
"8" = 0;
"9" = 0;
};
};
width = 639;
},
{
anchors = (
{
name = bottom;
pos = (245,0);
},
{
name = center;
pos = (176,350);
},
{
name = top;
pos = (394,700);
}
);
layerId = "66114D67-63CC-4821-8086-0090D571F0A1";
shapes = (
{
closed = 1;
nodes = (
(233.979,0,ls),
(422.484,0,o),
(569.315,93.297,o),
(618.422,324.328,cs),
(667.304,554.297,o),
(571.274,700,o),
(382.769,700,cs),
(153.497,700,l),
(4.707,0,l)
);
},
{
closed = 1;
nodes = (
(274.208,584.816,l),
(346.043,584.816,ls),
(459.83,585,o),
(514.163,516,o),
(479.265,352,cs),
(444.657,189,o),
(361.141,116,o),
(246.406,116.058,cs),
(174.571,116.058,l)
);
}
);
userData = {
com.hugojourdan.ColorFlow = {
"0" = 0;
"1" = 0;
"10" = 0;
"11" = 0;
"2" = 0;
"3" = 0;
"4" = 0;
"5" = 0;
"6" = 0;
"7" = 0;
"8" = 0;
"9" = 0;
};
};
width = 641;
}
);
metricLeft = H;
metricRight = O;
unicode = 68;
userData = {
KernOnName = D;
};
},
{
color = 0;
glyphname = Eth;
kernLeft = KO_Eth;
kernRight = KO_D;
lastChange = "2025-02-06 07:51:02 +0000";
layers = (
{
layerId = "73572E25-487C-487F-975F-150A505979A5";
shapes = (
{
ref = D;
},
{
closed = 1;
nodes = (
(297.99,320,l),
(310.744,380,l),
(24.744,380,l),
(11.99,320,l)
);
}
);
userData = {
com.hugojourdan.ColorFlow = {
"0" = 0;
"1" = 0;
"10" = 0;
"11" = 0;
"2" = 0;
"3" = 0;
"4" = 0;
"5" = 0;
"6" = 0;
"7" = 0;
"8" = 0;
"9" = 0;
};
};
width = 639;
},
{
layerId = "66114D67-63CC-4821-8086-0090D571F0A1";
shapes = (
{
ref = D;
},
{
closed = 1;
nodes = (
(319.939,287.845,l),
(344.422,403.029,l),
(14.889,403.029,l),
(-9.595,287.845,l)
);
}
);
userData = {
com.hugojourdan.ColorFlow = {
"0" = 0;
"1" = 0;
"10" = 0;
"11" = 0;
"2" = 0;
"3" = 0;
"4" = 0;
"5" = 0;
"6" = 0;
"7" = 0;
"8" = 0;
"9" = 0;
};
};
width = 641;
}
);
metricRight = D;
unicode = 208;
},
{
glyphname = E;
kernLeft = KO_H;
kernRight = KO_E;
layers = (
{
anchors = (
{
name = bottom;
pos = (215,0);
},
{
name = ogonek;
pos = (433,10);
},
{
name = top;
pos = (364,700);
},
{
name = topleft;
pos = (113,700);
}
);
layerId = "73572E25-487C-487F-975F-150A505979A5";
shapes = (
{
closed = 1;
nodes = (
(445.972,0,l),
(458.725,60,l),
(114.725,60,l),
(238.008,640,l),
(554.008,640,l),
(566.762,700,l),
(180.762,700,l),
(31.972,0,l)
);
},
{
closed = 1;
nodes = (
(463.642,356,l),
(476.396,416,l),
(124.396,416,l),
(111.642,356,l)
);
}
);
userData = {
com.hugojourdan.ColorFlow = {
"0" = 0;
"1" = 0;
"10" = 0;
"11" = 0;
"2" = 0;
"3" = 0;
"4" = 0;
"5" = 0;
"6" = 0;
"7" = 0;
"8" = 0;
"9" = 0;
};
};
width = 545;
},
{
anchors = (
{
name = bottom;
pos = (207,0);
},
{
name = ogonek;
pos = (422,10);
},
{
name = top;
pos = (356,700);
},
{
name = topleft;
pos = (111,700);
}
);
layerId = "66114D67-63CC-4821-8086-0090D571F0A1";
shapes = (
{
closed = 1;
nodes = (
(458.494,0,l),
(483.163,116.058,l),
(174.571,116.058,l),
(274.208,584.816,l),
(554.8,584.816,l),
(579.283,700,l),
(153.497,700,l),
(4.707,0,l)
);
},
{
closed = 1;
nodes = (
(468.531,320.087,l),
(493.199,436.146,l),
(101.413,436.146,l),
(76.744,320.087,l)
);
}
);
userData = {
com.hugojourdan.ColorFlow = {
"0" = 0;
"1" = 0;
"10" = 0;
"11" = 0;
"2" = 0;
"3" = 0;
"4" = 0;
"5" = 0;
"6" = 0;
"7" = 0;
"8" = 0;
"9" = 0;
};
};
width = 546;
}
);
metricLeft = H;
unicode = 69;
},
{
glyphname = F;
kernLeft = KO_H;
kernRight = KO_F;
layers = (
{
anchors = (
{
name = bottom;
pos = (194,0);
},
{
name = top;
pos = (343,700);
}
);
layerId = "73572E25-487C-487F-975F-150A505979A5";
shapes = (
{
closed = 1;
nodes = (
(101.972,0,l),
(238.008,640,l),
(552.008,640,l),
(564.762,700,l),
(180.762,700,l),
(31.972,0,l)
);
},
{
closed = 1;
nodes = (
(463.768,366,l),
(476.521,426,l),
(126.521,426,l),
(113.768,366,l)
);
}
);
userData = {
com.hugojourdan.ColorFlow = {
"0" = 0;
"1" = 0;
"10" = 0;
"11" = 0;
"2" = 0;
"3" = 0;
"4" = 0;
"5" = 0;
"6" = 0;
"7" = 0;
"8" = 0;
"9" = 0;
};
};
width = 504;
},
{
anchors = (
{
name = bottom;
pos = (179,0);
},
{
name = top;
pos = (328,700);
}
);
layerId = "66114D67-63CC-4821-8086-0090D571F0A1";
shapes = (
{
closed = 1;
nodes = (
(149.902,0,l),
(274.208,584.816,l),
(573.82,584.816,l),
(598.303,700,l),
(153.497,700,l),
(4.707,0,l)
);
},
{
closed = 1;
nodes = (
(485.102,308.573,l),
(509.771,424.631,l),
(98.966,424.631,l),
(74.297,308.573,l)
);
}
);
userData = {
com.hugojourdan.ColorFlow = {
"0" = 0;
"1" = 0;
"10" = 0;
"11" = 0;
"2" = 0;
"3" = 0;
"4" = 0;
"5" = 0;
"6" = 0;
"7" = 0;
"8" = 0;
"9" = 0;
};
};
width = 528;
}
);
metricLeft = H;
unicode = 70;
userData = {
KernOnName = F;
};
},
{
glyphname = G;
kernLeft = KO_O;
kernRight = KO_G;
lastChange = "2025-02-06 07:51:02 +0000";
layers = (
{
anchors = (
{
name = bottom;
pos = (261,0);
},
{
name = top;
pos = (410,700);
}
);
background = {
anchors = (
{
name = bottom;
pos = (305,0);
},
{
name = top;
pos = (305,700);
}
);
};
layerId = "73572E25-487C-487F-975F-150A505979A5";
shapes = (
{
closed = 1;
nodes = (
(468.421,-12,o),
(544.305,138,o),
(585.966,334,cs),
(595.106,377,o),
(604.458,421,o),
(612.748,460,c),
(650.594,384,l),
(315.594,384,l),
(302.84,324,l),
(544.84,324,l),
(515.966,334,l),
(515.753,333,ls),
(479.619,163,o),
(417.175,48,o),
(278.175,48,cs),
(144.175,48,o),
(109.343,157,o),
(150.579,351,cs),
(191.815,545,o),
(272.984,654,o),
(406.984,654,cs),
(504.984,654,o),
(552.868,597,o),
(537.7,488,c),
(609.825,498,l),
(623.322,665,o),
(538.737,714,o),
(419.737,714,cs),
(242.737,714,o),
(127.767,573,o),
(80.579,351,cs),
(33.392,129,o),
(88.421,-12,o),
(265.421,-12,cs)
);
}
);
userData = {
com.hugojourdan.ColorFlow = {
"0" = 0;
"1" = 0;
"10" = 0;
"11" = 0;
"2" = 0;
"3" = 0;
"4" = 0;
"5" = 0;
"6" = 0;
"7" = 0;
"8" = 0;
"9" = 0;
};
};
width = 637;
},
{
anchors = (
{
name = bottom;
pos = (264,0);
},
{
name = top;
pos = (413,700);
}
);
color = 4;
layerId = "66114D67-63CC-4821-8086-0090D571F0A1";
shapes = (
{
closed = 1;
nodes = (
(485.933,-12,o),
(579.354,112.297,o),
(628.738,344.634,cs),
(637.744,387,o),
(645.183,422,o),
(652.9,456.34,c),
(704.642,418.631,l),
(326.477,418.631,l),
(301.808,302.573,l),
(565.827,302.573,l),
(483.977,354.117,l),
(473.686,305.699,ls),
(444.194,168,o),
(390.59,104,o),
(293.117,104.058,cs),
(183.59,104,o),
(161.699,209.773,o),
(195.976,370.126,cs),
(228.226,521,o),
(286.806,599,o),
(403.524,598.816,cs),
(461.806,599,o),
(506.004,567,o),
(507.399,488.971,c),
(650.85,521.971,l),
(644.284,653,o),
(539.25,714,o),
(428.007,714,cs),
(229.25,714,o),
(97.829,589.703,o),
(51.179,370.232,cs),
(4.701,151.568,o),
(60.933,-12,o),
(287.943,-12,cs)
);
}
);
userData = {
com.hugojourdan.ColorFlow = {
"0" = 0;
"1" = 0;
"10" = 0;
"11" = 0;
"2" = 0;
"3" = 0;
"4" = 0;
"5" = 0;
"6" = 0;
"7" = 0;
"8" = 0;
"9" = 0;
};
};
width = 647;
}
);
metricLeft = O;
metricRight = O;
unicode = 71;
},
{
glyphname = H;
kernLeft = KO_H;
kernRight = KO_H;
layers = (
{
anchors = (
{
name = bottom;
pos = (281,0);
},
{
name = center;
pos = (393,525);
},
{
name = top;
pos = (430,700);
},
{
name = topleft;
pos = (113,700);
}
);
layerId = "73572E25-487C-487F-975F-150A505979A5";
shapes = (
{
closed = 1;
nodes = (
(529.972,0,l),
(678.762,700,l),
(608.762,700,l),
(459.972,0,l)
);
},
{
closed = 1;
nodes = (
(101.972,0,l),
(250.762,700,l),
(180.762,700,l),
(31.972,0,l)
);
},
{
closed = 1;
nodes = (
(578.816,338,l),
(591.57,398,l),
(137.57,398,l),
(124.816,338,l)
);
}
);
userData = {
com.hugojourdan.ColorFlow = {
"0" = 0;
"1" = 0;
"10" = 0;
"11" = 0;
"2" = 0;
"3" = 0;
"4" = 0;
"5" = 0;
"6" = 0;
"7" = 0;
"8" = 0;
"9" = 0;
};
};
width = 678;
},
{
anchors = (
{
name = bottom;
pos = (282,0);
},
{
name = center;
pos = (394,525);
},
{
name = top;
pos = (431,700);
},
{
name = topleft;
pos = (117,700);
}
);
layerId = "66114D67-63CC-4821-8086-0090D571F0A1";
shapes = (
{
closed = 1;
nodes = (
(550.251,0,l),
(699.041,700,l),
(553.973,700,l),
(405.183,0,l)
);
},
{
closed = 1;
nodes = (
(149.902,0,l),
(298.691,700,l),
(153.497,700,l),
(4.707,0,l)
);
},
{
closed = 1;
nodes = (
(593.563,311.971,l),
(618.232,428.029,l),
(116.688,428.029,l),
(92.019,311.971,l)
);
}
);
userData = {
com.hugojourdan.ColorFlow = {
"0" = 0;
"1" = 0;
"10" = 0;
"11" = 0;
"2" = 0;
"3" = 0;
"4" = 0;
"5" = 0;
"6" = 0;
"7" = 0;
"8" = 0;
"9" = 0;
};
};
width = 674;
}
);
metricRight = "=|";
unicode = 72;
userData = {
KernOnName = H;
};
},
{
color = 0;
glyphname = Hbar;
lastChange = "2025-02-06 07:51:02 +0000";
layers = (
{
layerId = "73572E25-487C-487F-975F-150A505979A5";
shapes = (
{
ref = H;
},
{
closed = 1;
nodes = (
(68.318,585,l),
(55.564,525,l),
(729.564,525,l),
(742.318,585,l)
);
}
);
userData = {
com.hugojourdan.ColorFlow = {
"0" = 0;
"1" = 0;
"10" = 0;
"11" = 0;
"2" = 0;
"3" = 0;
"4" = 0;
"5" = 0;
"6" = 0;
"7" = 0;
"8" = 0;
"9" = 0;
};
};
width = 678;
},
{
layerId = "66114D67-63CC-4821-8086-0090D571F0A1";
shapes = (
{
ref = H;
},
{
closed = 1;
nodes = (
(72.933,614.903,l),
(50.047,507.233,l),
(719.669,507.233,l),
(742.555,614.903,l)
);
}
);
userData = {
com.hugojourdan.ColorFlow = {
"0" = 0;
"1" = 0;
"10" = 0;
"11" = 0;
"2" = 0;
"3" = 0;
"4" = 0;
"5" = 0;
"6" = 0;
"7" = 0;
"8" = 0;
"9" = 0;
};
};
width = 672;
}
);
unicode = 294;
},
{
glyphname = I;
kernLeft = KO_H;
kernRight = KO_H;
layers = (
{
anchors = (
{
name = bottom;
pos = (67,0);
},
{
name = ogonek;
pos = (115,0);
},
{
name = top;
pos = (216,700);
},
{
name = topleft;
pos = (113,700);
}
);
layerId = "73572E25-487C-487F-975F-150A505979A5";
shapes = (
{
closed = 1;
nodes = (
(101.972,0,l),
(250.762,700,l),
(180.762,700,l),
(31.972,0,l)
);
}
);
userData = {
com.hugojourdan.ColorFlow = {
"0" = 0;
"1" = 0;
"10" = 0;
"11" = 0;
"2" = 0;
"3" = 0;
"4" = 0;
"5" = 0;
"6" = 0;
"7" = 0;
"8" = 0;
"9" = 0;
};
};
width = 250;
},
{
anchors = (
{
name = bottom;
pos = (78,0);
},
{
name = ogonek;
pos = (162,0);
},
{
name = top;
pos = (227,700);
},
{
name = topleft;
pos = (107,700);
}
);
layerId = "66114D67-63CC-4821-8086-0090D571F0A1";
shapes = (
{
closed = 1;
nodes = (
(149.775,0,l),
(298.565,700,l),
(153.497,700,l),
(4.707,0,l)
);
}
);
userData = {
com.hugojourdan.ColorFlow = {
"0" = 0;
"1" = 0;
"10" = 0;
"11" = 0;
"2" = 0;
"3" = 0;
"4" = 0;
"5" = 0;
"6" = 0;
"7" = 0;
"8" = 0;
"9" = 0;
};
};
width = 273;
}
);
metricLeft = H;
metricRight = "=|";
unicode = 73;
userData = {
KernOnName = I;
};
},
{
glyphname = J;
kernLeft = KO_J;
kernRight = KO_J;
layers = (
{
anchors = (
{
name = bottom;
pos = (143,0);
},
{
name = top;
pos = (292,700);
}
);
layerId = "73572E25-487C-487F-975F-150A505979A5";
shapes = (
{
closed = 1;
nodes = (
(81.972,0,ls),
(194.972,0,o),
(264.3,58,o),
(286.194,161,cs),
(400.762,700,l),
(330.762,700,l),
(216.831,164,ls),
(202.803,98,o),
(157.725,60,o),
(93.725,60,cs),
(-14.275,60,l),
(-27.028,0,l)
);
}
);
userData = {
com.hugojourdan.ColorFlow = {
"0" = 0;
"1" = 0;
"10" = 0;
"11" = 0;
"2" = 0;
"3" = 0;
"4" = 0;
"5" = 0;
"6" = 0;
"7" = 0;
"8" = 0;
"9" = 0;
};
};
width = 400;
},
{
anchors = (
{
name = bottom;
pos = (136,0);
},
{
name = top;
pos = (285,700);
}
);
layerId = "66114D67-63CC-4821-8086-0090D571F0A1";
shapes = (
{
closed = 1;
nodes = (
(84.737,0,ls),
(213.484,0,o),
(291.513,66,o),
(316.685,183.146,cs),
(426.546,700,l),
(281.478,700,l),
(172.628,187.903,ls),
(162.88,143,o),
(129.141,116,o),
(79.602,115.932,cs),
(-19.641,115.932,l),
(-44.283,0,l)
);
}
);
userData = {
com.hugojourdan.ColorFlow = {
"0" = 0;
"1" = 0;
"10" = 0;
"11" = 0;
"2" = 0;
"3" = 0;
"4" = 0;
"5" = 0;
"6" = 0;
"7" = 0;
"8" = 0;
"9" = 0;
};
};
width = 401;
}
);
metricRight = H;
unicode = 74;
userData = {
KernOnName = J;
};
},
{
glyphname = K;
kernLeft = KO_H;
kernRight = KO_K;
layers = (
{
anchors = (
{
name = bottom;
pos = (221,0);
},
{
name = top;
pos = (370,700);
}
);
layerId = "73572E25-487C-487F-975F-150A505979A5";
shapes = (
{
closed = 1;
nodes = (
(494.972,0,l),
(242.869,390,l),
(236.705,361,l),
(637.762,700,l),
(545.762,700,l),
(160.681,375,l),
(400.972,0,l)
);
},
{
closed = 1;
nodes = (
(101.972,0,l),
(250.762,700,l),
(180.762,700,l),
(31.972,0,l)
);
}
);
userData = {
com.hugojourdan.ColorFlow = {
"0" = 0;
"1" = 0;
"10" = 0;
"11" = 0;
"2" = 0;
"3" = 0;
"4" = 0;
"5" = 0;
"6" = 0;
"7" = 0;
"8" = 0;
"9" = 0;
};
};
width = 558;
},
{
anchors = (
{
name = bottom;
pos = (245,0);
},
{
name = top;
pos = (394,700);
}
);
layerId = "66114D67-63CC-4821-8086-0090D571F0A1";
shapes = (
{
closed = 1;
nodes = (
(533.785,0,l),
(332.536,419,l),
(331.355,345.252,l),
(691.575,700,l),
(513.118,700,l),
(199.066,376,l),
(368.329,0,l)
);
},
{
closed = 1;
nodes = (
(149.028,0,l),
(297.817,700,l),
(153.497,700,l),
(4.707,0,l)
);
}
);
userData = {
com.hugojourdan.ColorFlow = {
"0" = 0;
"1" = 0;
"10" = 0;
"11" = 0;
"2" = 0;
"3" = 0;
"4" = 0;
"5" = 0;
"6" = 0;
"7" = 0;
"8" = 0;
"9" = 0;
};
};
width = 610;
}
);
metricLeft = H;
unicode = 75;
userData = {
KernOnName = K;
};
},
{
glyphname = L;
kernLeft = KO_H;
kernRight = KO_L;
layers = (
{
anchors = (
{
name = bottom;
pos = (188,0);
},
{
name = center;
pos = (262,350);
},
{
name = top;
pos = (216,700);
},
{
name = topright;
pos = (429,700);
}
);
layerId = "73572E25-487C-487F-975F-150A505979A5";
shapes = (
{
closed = 1;
nodes = (
(414.972,0,l),
(427.725,60,l),
(114.725,60,l),
(250.762,700,l),
(180.762,700,l),
(31.972,0,l)
);
}
);
userData = {
com.hugojourdan.ColorFlow = {
"0" = 0;
"1" = 0;
"10" = 0;
"11" = 0;
"2" = 0;
"3" = 0;
"4" = 0;
"5" = 0;
"6" = 0;
"7" = 0;
"8" = 0;
"9" = 0;
};
};
width = 492;
},
{
anchors = (
{
name = bottom;
pos = (200,0);
},
{
name = center;
pos = (275,350);
},
{
name = top;
pos = (223,700);
},
{
name = topright;
pos = (427,700);
}
);
layerId = "66114D67-63CC-4821-8086-0090D571F0A1";
shapes = (
{
closed = 1;
nodes = (
(447.513,0,l),
(472.182,116.058,l),
(173.697,116.058,l),
(297.817,700,l),
(153.497,700,l),
(4.707,0,l)
);
}
);
userData = {
com.hugojourdan.ColorFlow = {
"0" = 0;
"1" = 0;
"10" = 0;
"11" = 0;
"2" = 0;
"3" = 0;
"4" = 0;
"5" = 0;
"6" = 0;
"7" = 0;
"8" = 0;
"9" = 0;
};
};
width = 519;
}
);
metricLeft = H;
unicode = 76;
userData = {
KernOnName = L;
};
},
{
color = 0;
glyphname = Lslash;
kernLeft = KO_Lslash;
kernRight = KO_L;
lastChange = "2025-02-06 07:51:02 +0000";
layers = (
{
layerId = "73572E25-487C-487F-975F-150A505979A5";
shapes = (
{
ref = L;
},
{
closed = 1;
nodes = (
(-8.029,207,l),
(340.222,434,l),
(310.125,490,l),
(-38.126,263,l)
);
},
{
closed = 1;
nodes = (
(-8.029,207,l),
(340.222,434,l),
(310.125,490,l),
(-38.126,263,l)
);
}
);
userData = {
com.hugojourdan.ColorFlow = {
"0" = 0;
"1" = 0;
"10" = 0;
"11" = 0;
"2" = 0;
"3" = 0;
"4" = 0;
"5" = 0;
"6" = 0;
"7" = 0;
"8" = 0;
"9" = 0;
};
};
width = 492;
},
{
layerId = "66114D67-63CC-4821-8086-0090D571F0A1";
shapes = (
{
ref = L;
},
{
closed = 1;
nodes = (
(-14.785,188.107,l),
(392.266,452.767,l),
(341.425,546.553,l),
(-65.627,281.893,l)
);
},
{
closed = 1;
nodes = (
(-14.785,188.107,l),
(392.266,452.767,l),
(341.425,546.553,l),
(-65.627,281.893,l)
);
}
);
userData = {
com.hugojourdan.ColorFlow = {
"0" = 0;
"1" = 0;
"10" = 0;
"11" = 0;
"2" = 0;
"3" = 0;
"4" = 0;
"5" = 0;
"6" = 0;
"7" = 0;
"8" = 0;
"9" = 0;
};
};
width = 519;
}
);
metricRight = L;
unicode = 321;
},
{
glyphname = M;
kernLeft = KO_H;
kernRight = KO_H;
layers = (
{
anchors = (
{
name = bottom;
pos = (338,0);
},
{
name = top;
pos = (487,700);
}
);
layerId = "73572E25-487C-487F-975F-150A505979A5";
shapes = (
{
closed = 1;
nodes = (
(101.972,0,l),
(239.284,646,l),
(227.921,649,l),
(325.991,113,l),
(395.991,113,l),
(721.284,646,l),
(711.709,648,l),
(573.972,0,l),
(643.972,0,l),
(792.762,700,l),
(678,700,l),
(359,173,l),
(378,173,l),
(285,700,l),
(180.762,700,l),
(31.972,0,l)
);
}
);
userData = {
com.hugojourdan.ColorFlow = {
"0" = 0;
"1" = 0;
"10" = 0;
"11" = 0;
"2" = 0;
"3" = 0;
"4" = 0;
"5" = 0;
"6" = 0;
"7" = 0;
"8" = 0;
"9" = 0;
};
};
width = 792;
},
{
anchors = (
{
name = bottom;
pos = (345,0);
},
{
name = top;
pos = (494,700);
}
);
layerId = "66114D67-63CC-4821-8086-0090D571F0A1";
shapes = (
{
closed = 1;
nodes = (
(141.018,0,l),
(273.171,621.728,l),
(237.244,632.214,l),
(304.503,113,l),
(431.891,113,l),
(720.743,631.592,l),
(681.79,623.728,l),
(549.212,0,l),
(685.523,0,l),
(834.313,700,l),
(615,700,l),
(385,276,l),
(406,276,l),
(355,700,l),
(153.497,700,l),
(4.707,0,l)
);
}
);
userData = {
com.hugojourdan.ColorFlow = {
"0" = 0;
"1" = 0;
"10" = 0;
"11" = 0;
"2" = 0;
"3" = 0;
"4" = 0;
"5" = 0;
"6" = 0;
"7" = 0;
"8" = 0;
"9" = 0;
};
};
width = 809;
}
);
metricLeft = H;
metricRight = "=|";
unicode = 77;
},
{
glyphname = N;
kernLeft = KO_H;
kernRight = KO_H;
layers = (
{
anchors = (
{
name = bottom;
pos = (279,0);
},
{
name = top;
pos = (428,700);
}
);
layerId = "73572E25-487C-487F-975F-150A505979A5";
shapes = (
{
closed = 1;
nodes = (
(101.972,0,l),
(232.269,613,l),
(225.719,621,l),
(436.972,0,l),
(525.972,0,l),
(674.762,700,l),
(604.762,700,l),
(471.701,74,l),
(481.59,77,l),
(269.762,700,l),
(180.762,700,l),
(31.972,0,l)
);
}
);
userData = {
com.hugojourdan.ColorFlow = {
"0" = 0;
"1" = 0;
"10" = 0;
"11" = 0;
"2" = 0;
"3" = 0;
"4" = 0;
"5" = 0;
"6" = 0;
"7" = 0;
"8" = 0;
"9" = 0;
};
};
width = 674;
},
{
anchors = (
{
name = bottom;
pos = (289,0);
},
{
name = top;
pos = (438,700);
}
);
layerId = "66114D67-63CC-4821-8086-0090D571F0A1";
shapes = (
{
closed = 1;
nodes = (
(143.397,0,l),
(271.114,600.864,l),
(231.914,620.602,l),
(384.309,0,l),
(575.154,0,l),
(723.944,700,l),
(585.254,700,l),
(455.97,91.767,l),
(496.099,76.398,l),
(343.216,700,l),
(153.497,700,l),
(4.707,0,l)
);
}
);
userData = {
com.hugojourdan.ColorFlow = {
"0" = 0;
"1" = 0;
"10" = 0;
"11" = 0;
"2" = 0;
"3" = 0;
"4" = 0;
"5" = 0;
"6" = 0;
"7" = 0;
"8" = 0;
"9" = 0;
};
};
width = 699;
}
);
metricLeft = H;
metricRight = H;
unicode = 78;
userData = {
KernOnName = N;
};
},
{
color = 0;
glyphname = Eng;
kernLeft = KO_H;
kernRight = KO_H;
lastChange = "2025-02-06 07:51:02 +0000";
layers = (
{
anchors = (
{
name = bottom;
pos = (233,-215);
},
{
name = top;
pos = (428,700);
}
);
layerId = "73572E25-487C-487F-975F-150A505979A5";
shapes = (
{
closed = 1;
nodes = (
(310.272,-215,ls),
(423.272,-215,o),
(492.601,-157,o),
(514.494,-54,cs),
(629.062,485,l),
(559.062,485,l),
(447.257,-41,ls),
(433.229,-107,o),
(388.151,-145,o),
(324.151,-145,cs),
(216.151,-145,l),
(201.272,-215,l)
);
},
{
ref = N;
}
);
userData = {
com.hugojourdan.ColorFlow = {
"0" = 0;
"1" = 0;
"10" = 0;
"11" = 0;
"2" = 0;
"3" = 0;
"4" = 0;
"5" = 0;
"6" = 0;
"7" = 0;
"8" = 0;
"9" = 0;
};
};
width = 674;
},
{
anchors = (
{
name = bottom;
pos = (245,-215);
},
{
name = top;
pos = (439,700);
}
);
layerId = "66114D67-63CC-4821-8086-0090D571F0A1";
shapes = (
{
closed = 1;
nodes = (
(343.309,-215,ls),
(471.785,-215,o),
(543.813,-149,o),
(568.257,-31.854,cs),
(678.118,485,l),
(540.05,485,l),
(432.315,-21.854,ls),
(422.243,-67,o),
(388.504,-94,o),
(339.289,-93.825,cs),
(240.046,-93.825,l),
(214.289,-215,l)
);
},
{
ref = N;
}
);
userData = {
com.hugojourdan.ColorFlow = {
"0" = 0;
"1" = 0;
"10" = 0;
"11" = 0;
"2" = 0;
"3" = 0;
"4" = 0;
"5" = 0;
"6" = 0;
"7" = 0;
"8" = 0;
"9" = 0;
};
};
width = 699;
}
);
metricLeft = N;
metricRight = N;
unicode = 330;
},
{
glyphname = O;
kernLeft = KO_O;
kernRight = KO_O;
layers = (
{
anchors = (
{
name = bottom;
pos = (264,0);
},
{
name = center;
pos = (338,350);
},
{
name = ogonek;
pos = (522,10);
},
{
name = top;
pos = (413,700);
},
{
name = topleft;
pos = (113,700);
},
{
name = topright;
pos = (713,700);
}
);
layerId = "73572E25-487C-487F-975F-150A505979A5";
shapes = (
{
closed = 1;
nodes = (
(427.421,-12,o),
(546.204,114,o),
(596.579,351,cs),
(646.955,588,o),
(581.737,714,o),
(420.737,714,cs),
(259.737,714,o),
(130.955,588,o),
(80.579,351,cs),
(30.204,114,o),
(105.421,-12,o),
(266.421,-12,cs)
);
},
{
closed = 1;
nodes = (
(152.175,48,o),
(108.493,153,o),
(150.579,351,cs),
(192.666,549,o),
(280.984,654,o),
(407.984,654,cs),
(528.984,654,o),
(568.878,550,o),
(526.579,351,cs),
(484.493,153,o),
(399.175,48,o),
(279.175,48,cs)
);
}
);
userData = {
com.hugojourdan.ColorFlow = {
"0" = 0;
"1" = 0;
"10" = 0;
"11" = 0;
"2" = 0;
"3" = 0;
"4" = 0;
"5" = 0;
"6" = 0;
"7" = 0;
"8" = 0;
"9" = 0;
};
};
width = 644;
},
{
anchors = (
{
name = bottom;
pos = (270,0);
},
{
name = center;
pos = (345,350);
},
{
name = ogonek;
pos = (536,10);
},
{
name = top;
pos = (419,700);
},
{
name = topleft;
pos = (109,700);
},
{
name = topright;
pos = (729,700);
}
);
layerId = "66114D67-63CC-4821-8086-0090D571F0A1";
shapes = (
{
closed = 1;
nodes = (
(484.933,-12,o),
(593.175,120.865,o),
(638.037,331.924,cs),
(686.516,560,o),
(629.25,714,o),
(420.133,714,cs),
(226.25,714,o),
(95.796,580.135,o),
(51.179,370.232,cs),
(2.455,141,o),
(71.933,-12,o),
(276.817,-12,cs)
);
},
{
closed = 1;
nodes = (
(183.59,104,o),
(161.294,191.549,o),
(195.14,351,cs),
(230.801,519,o),
(287.806,599,o),
(399.65,599,cs),
(510.806,599,o),
(528.454,510.54,o),
(494.81,351,cs),
(459.382,183,o),
(406.59,104,o),
(300.486,104,cs)
);
}
);
userData = {
com.hugojourdan.ColorFlow = {
"0" = 0;
"1" = 0;
"10" = 0;
"11" = 0;
"2" = 0;
"3" = 0;
"4" = 0;
"5" = 0;
"6" = 0;
"7" = 0;
"8" = 0;
"9" = 0;
};
};
width = 659;
}
);
metricRight = "=|";
unicode = 79;
userData = {
KernOnName = O;
};
},
{
color = 0;
glyphname = Oslash;
kernRight = KO_Oslash;
lastChange = "2025-02-06 07:51:02 +0000";
layers = (
{
layerId = "73572E25-487C-487F-975F-150A505979A5";
shapes = (
{
ref = O;
},
{
closed = 1;
nodes = (
(44.996,-14,l),
(679.66,676,l),
(633.737,714,l),
(-0.927,24,l)
);
},
{
closed = 1;
nodes = (
(44.996,-14,l),
(679.66,676,l),
(633.737,714,l),
(-0.927,24,l)
);
}
);
userData = {
com.hugojourdan.ColorFlow = {
"0" = 0;
"1" = 0;
"10" = 0;
"11" = 0;
"2" = 0;
"3" = 0;
"4" = 0;
"5" = 0;
"6" = 0;
"7" = 0;
"8" = 0;
"9" = 0;
};
};
width = 497;
},
{
layerId = "66114D67-63CC-4821-8086-0090D571F0A1";
shapes = (
{
ref = O;
},
{
closed = 1;
nodes = (
(44.862,-7.631,l),
(726.593,638.33,l),
(660.924,707.126,l),
(-20.806,61.165,l)
);
},
{
closed = 1;
nodes = (
(44.862,-7.631,l),
(726.593,638.33,l),
(660.924,707.126,l),
(-20.806,61.165,l)
);
}
);
userData = {
com.hugojourdan.ColorFlow = {
"0" = 0;
"1" = 0;
"10" = 0;
"11" = 0;
"2" = 0;
"3" = 0;
"4" = 0;
"5" = 0;
"6" = 0;
"7" = 0;
"8" = 0;
"9" = 0;
};
};
width = 659;
}
);
unicode = 216;
},
{
color = 0;
glyphname = OE;
kernLeft = KO_O;
kernRight = KO_E;
lastChange = "2025-02-06 07:51:02 +0000";
layers = (
{
anchors = (
{
name = bottom;
pos = (264,0);
},
{
name = center;
pos = (338,350);
},
{
name = ogonek;
pos = (522,10);
},
{
name = top;
pos = (413,700);
},
{
name = topleft;
pos = (113,700);
},
{
name = topright;
pos = (713,700);
}
);
background = {
shapes = (
{
ref = O;
},
{
alignment = -1;
pos = (420,0);
ref = E;
}
);
};
layerId = "73572E25-487C-487F-975F-150A505979A5";
shapes = (
{
closed = 1;
nodes = (
(439.421,-12,o),
(534.455,134,o),
(580.579,351,cs),
(626.704,568,o),
(593.737,714,o),
(425.737,714,cs),
(261.737,714,o),
(130.955,588,o),
(80.579,351,cs),
(30.204,114,o),
(107.421,-12,o),
(271.421,-12,cs)
);
},
{
closed = 1;
nodes = (
(152.175,48,o),
(108.493,153,o),
(150.579,351,cs),
(192.666,549,o),
(280.984,654,o),
(407.984,654,cs),
(528.984,654,o),
(568.878,550,o),
(526.579,351,cs),
(484.493,153,o),
(399.175,48,o),
(279.175,48,cs)
);
},
{
alignment = -1;
pos = (421,0);
ref = E;
}
);
userData = {
com.hugojourdan.ColorFlow = {
"0" = 0;
"1" = 0;
"10" = 0;
"11" = 0;
"2" = 0;
"3" = 0;
"4" = 0;
"5" = 0;
"6" = 0;
"7" = 0;
"8" = 0;
"9" = 0;
};
};
width = 965;
},
{
anchors = (
{
name = bottom;
pos = (268,0);
},
{
name = center;
pos = (343,350);
},
{
name = ogonek;
pos = (532,10);
},
{
name = top;
pos = (417,700);
},
{
name = topleft;
pos = (110,700);
},
{
name = topright;
pos = (724,700);
}
);
layerId = "66114D67-63CC-4821-8086-0090D571F0A1";
shapes = (
{
closed = 1;
nodes = (
(471,-12,o),
(521,139,o),
(565,351,cs),
(609,560,o),
(625,713,o),
(425,713,cs),
(224,713,o),
(91,561,o),
(47,351,cs),
(1,141,o),
(69,-12,o),
(269,-12,cs)
);
},
{
closed = 1;
nodes = (
(181,104,o),
(157,192,o),
(191,351,cs),
(225,510,o),
(285,599,o),
(401,599,cs),
(508,599,o),
(527,511,o),
(494,351,cs),
(460,193,o),
(405,104,o),
(296,104,cs)
);
},
{
alignment = -1;
pos = (415,0);
ref = E;
}
);
userData = {
com.hugojourdan.ColorFlow = {
"0" = 0;
"1" = 0;
"10" = 0;
"11" = 0;
"2" = 0;
"3" = 0;
"4" = 0;
"5" = 0;
"6" = 0;
"7" = 0;
"8" = 0;
"9" = 0;
};
};
width = 961;
}
);
metricLeft = O;
metricRight = E;
unicode = 338;
},
{
glyphname = P;
kernLeft = KO_H;
kernRight = KO_P;
layers = (
{
anchors = (
{
name = bottom;
pos = (234,0);
},
{
name = top;
pos = (383,700);
}
);
layerId = "73572E25-487C-487F-975F-150A505979A5";
shapes = (
{
closed = 1;
nodes = (
(101.972,0,l),
(157.662,262,l),
(306.662,262,ls),
(474.662,262,o),
(568.879,343,o),
(597.574,478,cs),
(627.757,620,o),
(567.762,700,o),
(399.762,700,cs),
(180.762,700,l),
(31.972,0,l)
);
},
{
closed = 1;
nodes = (
(238.008,640,l),
(394.008,640,ls),
(502.008,640,o),
(552.018,593,o),
(526.936,475,cs),
(504.193,368,o),
(434.415,322,o),
(326.415,322,cs),
(170.415,322,l)
);
}
);
userData = {
com.hugojourdan.ColorFlow = {
"0" = 0;
"1" = 0;
"10" = 0;
"11" = 0;
"2" = 0;
"3" = 0;
"4" = 0;
"5" = 0;
"6" = 0;
"7" = 0;
"8" = 0;
"9" = 0;
};
};
width = 584;
},
{
anchors = (
{
name = bottom;
pos = (234,0);
},
{
name = top;
pos = (383,700);
}
);
layerId = "66114D67-63CC-4821-8086-0090D571F0A1";
shapes = (
{
closed = 1;
nodes = (
(149.775,0,l),
(197.704,225.485,l),
(306.908,225.485,ls),
(465.309,225,o),
(571.551,287.297,o),
(605.319,446.161,cs),
(636.927,594.865,o),
(567.274,700,o),
(407.769,700,cs),
(153.497,700,l),
(4.707,0,l)
);
},
{
closed = 1;
nodes = (
(274.082,584.816,l),
(371.645,584.816,ls),
(448.83,585,o),
(482.39,550,o),
(463.931,462.243,cs),
(446.043,379,o),
(398.179,342,o),
(319.936,341.544,cs),
(222.373,341.544,l)
);
}
);
userData = {
com.hugojourdan.ColorFlow = {
"0" = 0;
"1" = 0;
"10" = 0;
"11" = 0;
"2" = 0;
"3" = 0;
"4" = 0;
"5" = 0;
"6" = 0;
"7" = 0;
"8" = 0;
"9" = 0;
};
};
width = 589;
}
);
metricLeft = H;
metricRight = F;
unicode = 80;
},
{
color = 0;
glyphname = Thorn;
kernLeft = KO_H;
kernRight = KO_P;
lastChange = "2025-02-06 07:51:02 +0000";
layers = (
{
anchors = (
{
name = bottom;
pos = (234,0);
},
{
name = top;
pos = (383,700);
}
);
layerId = "73572E25-487C-487F-975F-150A505979A5";
shapes = (
{
closed = 1;
nodes = (
(305.619,163,ls),
(459.619,163,o),
(545.923,235,o),
(571.43,355,cs),
(596.724,474,o),
(539.965,541,o),
(385.965,541,cs),
(200.965,541,l),
(188.212,481,l),
(380.212,481,ls),
(475.212,481,o),
(520.347,444,o),
(500.792,352,cs),
(481.662,262,o),
(420.372,223,o),
(325.372,223,cs),
(134.372,223,l),
(121.619,163,l)
);
},
{
closed = 1;
nodes = (
(101.972,0,l),
(250.762,700,l),
(180.762,700,l),
(31.972,0,l)
);
}
);
userData = {
com.hugojourdan.ColorFlow = {
"0" = 0;
"1" = 0;
"10" = 0;
"11" = 0;
"2" = 0;
"3" = 0;
"4" = 0;
"5" = 0;
"6" = 0;
"7" = 0;
"8" = 0;
"9" = 0;
};
};
width = 584;
},
{
anchors = (
{
name = bottom;
pos = (235,0);
},
{
name = top;
pos = (384,700);
}
);
layerId = "66114D67-63CC-4821-8086-0090D571F0A1";
shapes = (
{
closed = 1;
nodes = (
(289.173,129.718,ls),
(449.117,130,o),
(555.971,214,o),
(585.752,352.874,cs),
(614.849,491,o),
(544.067,572,o),
(383.162,571.903,cs),
(254.463,571.903,l),
(229.237,453.223,l),
(347.169,453.223,ls),
(420.772,453,o),
(455.608,424,o),
(440.046,349.874,cs),
(425.213,281,o),
(378.198,248,o),
(303.632,248.398,cs),
(185.7,248.398,l),
(160.474,129.718,l)
);
},
{
closed = 1;
nodes = (
(148.902,0,l),
(297.691,700,l),
(153.497,700,l),
(4.707,0,l)
);
}
);
userData = {
com.hugojourdan.ColorFlow = {
"0" = 0;
"1" = 0;
"10" = 0;
"11" = 0;
"2" = 0;
"3" = 0;
"4" = 0;
"5" = 0;
"6" = 0;
"7" = 0;
"8" = 0;
"9" = 0;
};
};
width = 589;
}
);
metricLeft = P;
metricRight = P;
unicode = 222;
},
{
glyphname = Q;
kernLeft = KO_O;
kernRight = KO_O;
layers = (
{
anchors = (
{
name = bottom;
pos = (264,0);
},
{
name = top;
pos = (413,700);
}
);
layerId = "73572E25-487C-487F-975F-150A505979A5";
shapes = (
{
closed = 1;
nodes = (
(393.169,-179,l),
(405.923,-119,l),
(298.923,-119,ls),
(273.923,-119,o),
(266.711,-107.623,o),
(274,-81,cs),
(300.831,17,l),
(230.831,17,l),
(205.913,-72,ls),
(182.76,-154.697,o),
(209.169,-179,o),
(297.169,-179,cs)
);
},
{
ref = O;
}
);
userData = {
com.hugojourdan.ColorFlow = {
"0" = 0;
"1" = 0;
"10" = 0;
"11" = 0;
"2" = 0;
"3" = 0;
"4" = 0;
"5" = 0;
"6" = 0;
"7" = 0;
"8" = 0;
"9" = 0;
};
};
width = 644;
},
{
anchors = (
{
name = bottom;
pos = (270,0);
},
{
name = top;
pos = (419,700);
}
);
layerId = "66114D67-63CC-4821-8086-0090D571F0A1";
shapes = (
{
closed = 1;
nodes = (
(427.377,-192.388,l),
(452.046,-76.33,l),
(340.405,-76.33,ls),
(322.33,-76,o),
(313.631,-67.664,o),
(318.8,-49.214,cs),
(339.523,24.757,l),
(196.591,24.757,l),
(174.242,-56.864,ls),
(148.294,-151.627,o),
(191.673,-192,o),
(309.096,-192.388,cs)
);
},
{
ref = O;
}
);
userData = {
com.hugojourdan.ColorFlow = {
"0" = 0;
"1" = 0;
"10" = 0;
"11" = 0;
"2" = 0;
"3" = 0;
"4" = 0;
"5" = 0;
"6" = 0;
"7" = 0;
"8" = 0;
"9" = 0;
};
};
width = 659;
}
);
metricLeft = O;
metricRight = O;
unicode = 81;
},
{
glyphname = R;
kernLeft = KO_H;
kernRight = KO_R;
layers = (
{
anchors = (
{
name = bottom;
pos = (237,0);
},
{
name = top;
pos = (386,700);
}
);
layerId = "73572E25-487C-487F-975F-150A505979A5";
shapes = (
{
closed = 1;
nodes = (
(101.972,0,l),
(169.14,316,l),
(349.14,316,ls),
(464.14,316,o),
(571.193,368,o),
(600.526,506,cs),
(630.496,647,o),
(545.762,700,o),
(430.762,700,cs),
(180.762,700,l),
(31.972,0,l)
);
},
{
closed = 1;
nodes = (
(511.972,0,l),
(350.415,322,l),
(268.415,322,l),
(428.972,0,l)
);
},
{
closed = 1;
nodes = (
(238.008,640,l),
(415.008,640,ls),
(494.008,640,o),
(552.632,610,o),
(530.951,508,cs),
(509.483,407,o),
(438.893,376,o),
(358.893,376,cs),
(181.893,376,l)
);
}
);
userData = {
com.hugojourdan.ColorFlow = {
"0" = 0;
"1" = 0;
"10" = 0;
"11" = 0;
"2" = 0;
"3" = 0;
"4" = 0;
"5" = 0;
"6" = 0;
"7" = 0;
"8" = 0;
"9" = 0;
};
};
width = 595;
},
{
anchors = (
{
name = bottom;
pos = (246,0);
},
{
name = top;
pos = (395,700);
}
);
layerId = "66114D67-63CC-4821-8086-0090D571F0A1";
shapes = (
{
closed = 1;
nodes = (
(149.902,0,l),
(208.404,275.233,l),
(322.783,275.233,ls),
(459.937,275,o),
(569.386,328.865,o),
(599.287,469.533,cs),
(631.149,619.432,o),
(549.274,700,o),
(411.808,700,cs),
(153.497,700,l),
(4.707,0,l)
);
},
{
closed = 1;
nodes = (
(532.513,0,l),
(383.112,322,l),
(234.432,322,l),
(373.319,0,l)
);
},
{
closed = 1;
nodes = (
(274.208,584.816,l),
(383.159,584.816,ls),
(442.83,585,o),
(473.516,560,o),
(458.103,486.485,cs),
(442.908,416,o),
(402.169,389,o),
(341.571,389.155,cs),
(232.619,389.155,l)
);
}
);
userData = {
com.hugojourdan.ColorFlow = {
"0" = 0;
"1" = 0;
"10" = 0;
"11" = 0;
"2" = 0;
"3" = 0;
"4" = 0;
"5" = 0;
"6" = 0;
"7" = 0;
"8" = 0;
"9" = 0;
};
};
width = 610;
}
);
metricLeft = H;
unicode = 82;
userData = {
KernOnName = R;
};
},
{
glyphname = S;
kernLeft = KO_S;
kernRight = KO_S;
lastChange = "2025-02-06 07:51:02 +0000";
layers = (
{
anchors = (
{
name = bottom;
pos = (217,0);
},
{
name = top;
pos = (366,700);
}
);
layerId = "73572E25-487C-487F-975F-150A505979A5";
shapes = (
{
attr = {
identifier = ID0x7fafcdcb18b0;
};
closed = 1;
nodes = (
(325.784,-15,o),
(456.687,41,o),
(487.72,187,cs),
(511.952,301,o),
(460.855,357,o),
(303.207,401,cs),
(187.009,433,o),
(180.574,478,o),
(194.178,542,cs),
(210.332,618,o),
(283.197,655,o),
(353.197,655,cs),
(428.197,655,o),
(483.032,626,o),
(479.801,512,c),
(549.352,524,l),
(563.274,693,o),
(442.95,715,o),
(368.95,715,cs),
(238.95,715,o),
(144.796,639,o),
(121.627,530,cs),
(105.048,452,o),
(130.193,368,o),
(253.816,338,cs),
(387.802,305,o),
(439.874,263,o),
(413.107,170,cs),
(387.977,80,o),
(305.537,45,o),
(242.537,45,cs),
(174.537,45,o),
(86.213,67,o),
(98.609,210,c),
(28.121,203,l),
(11.387,49,o),
(105.784,-15,o),
(235.784,-15,cs)
);
}
);
userData = {
com.hugojourdan.ColorFlow = {
"0" = 0;
"1" = 0;
"10" = 0;
"11" = 0;
"2" = 0;
"3" = 0;
"4" = 0;
"5" = 0;
"6" = 0;
"7" = 0;
"8" = 0;
"9" = 0;
};
};
width = 549;
},
{
anchors = (
{
name = bottom;
pos = (224,0);
},
{
name = top;
pos = (373,700);
}
);
color = 4;
layerId = "66114D67-63CC-4821-8086-0090D571F0A1";
shapes = (
{
attr = {
identifier = ID0x7fafcdcb18b0;
};
closed = 1;
nodes = (
(397.844,-15,o),
(494.568,50.143,o),
(521.241,180.197,cs),
(545.331,297.656,o),
(486.799,386.062,o),
(339.609,420.65,cs),
(251.759,442.088,o),
(238.472,479.825,o),
(249.277,530.652,cs),
(258.704,575,o),
(298.443,602,o),
(345.242,602.007,cs),
(406.984,602.017,o),
(448.921,576,o),
(450.016,495.485,c),
(587.515,531.631,l),
(585.705,664,o),
(493.51,715,o),
(361.093,715,cs),
(223.525,715,o),
(123.772,642.365,o),
(99.633,528.799,cs),
(76.026,417.736,o),
(121.522,334.771,o),
(262.181,302.34,cs),
(354.385,281.482,o),
(390.615,245.503,o),
(378.944,184.641,cs),
(367.054,125,o),
(312.315,98,o),
(260.905,97.806,cs),
(203.542,97.984,o),
(154.786,130,o),
(151.158,226.388,c),
(14.47,199.243,l),
(10.881,53.275,o),
(105.294,-15,o),
(259.043,-15,cs)
);
}
);
userData = {
com.hugojourdan.ColorFlow = {
"0" = 0;
"1" = 0;
"10" = 0;
"11" = 0;
"2" = 0;
"3" = 0;
"4" = 0;
"5" = 0;
"6" = 0;
"7" = 0;
"8" = 0;
"9" = 0;
};
};
width = 568;
}
);
metricRight = "=|";
unicode = 83;
userData = {
KernOnName = S;
};
},
{
color = 0;
glyphname = Germandbls;
kernLeft = KO_H;
lastChange = "2025-02-06 07:51:02 +0000";
layers = (
{
layerId = "73572E25-487C-487F-975F-150A505979A5";
shapes = (
{
attr = {
identifier = ID0x159985ed0;
};
closed = 1;
nodes = (
(463.122,-4,o),
(557.716,107,o),
(583.435,228,cs),
(611.067,358,o),
(548.197,448,o),
(391.197,448,c),
(411.671,422,l),
(616.757,620,l),
(633.762,700,l),
(180.762,700,l),
(31.972,0,l),
(107.972,0,l),
(244.008,640,l),
(601.008,640,l),
(599.998,687,l),
(346.985,447,l),
(334.231,387,l),
(344.231,387,ls),
(472.231,387,o),
(531.304,345,o),
(506.01,226,cs),
(487.092,137,o),
(427.875,56,o),
(327.875,56,cs),
(273.875,56,o),
(219.126,76,o),
(189.165,95,c),
(174.286,25,l),
(213.822,4,o),
(265.122,-4,o),
(313.122,-4,cs)
);
}
);
userData = {
com.hugojourdan.ColorFlow = {
"0" = 0;
"1" = 0;
"10" = 0;
"11" = 0;
"2" = 0;
"3" = 0;
"4" = 0;
"5" = 0;
"6" = 0;
"7" = 0;
"8" = 0;
"9" = 0;
};
};
width = 638;
},
{
layerId = "66114D67-63CC-4821-8086-0090D571F0A1";
shapes = (
{
attr = {
identifier = ID0x13be0ebe0;
};
closed = 1;
nodes = (
(448.721,-13,o),
(577.764,86,o),
(605.281,215.505,cs),
(631.116,337,o),
(577.183,422,o),
(457.734,442.359,c),
(420.342,391.369,l),
(624.365,555.087,l),
(655.167,700,l),
(153.497,700,l),
(4.707,0,l),
(149.271,0,l),
(273.792,585.825,l),
(548.84,585.825,l),
(549.081,637.476,l),
(338.028,455.437,l),
(313.056,337.951,l),
(327.075,337.951,ls),
(437.328,338,o),
(478.826,298,o),
(460.764,213.388,cs),
(446.73,147,o),
(393.952,101,o),
(323.911,100.942,cs),
(282.952,101,o),
(238.503,113,o),
(221.588,132.175,c),
(195.939,11.505,l),
(218.846,-3,o),
(263.721,-13,o),
(316.004,-13.359,cs)
);
}
);
userData = {
com.hugojourdan.ColorFlow = {
"0" = 0;
"1" = 0;
"10" = 0;
"11" = 0;
"2" = 0;
"3" = 0;
"4" = 0;
"5" = 0;
"6" = 0;
"7" = 0;
"8" = 0;
"9" = 0;
};
};
width = 651;
}
);
metricLeft = B;
metricRight = B;
unicode = 7838;
},
{
glyphname = T;
kernLeft = KO_T;
kernRight = KO_T;
layers = (
{
anchors = (
{
name = bottom;
pos = (232,0);
},
{
name = center;
pos = (306,350);
},
{
name = top;
pos = (381,700);
}
);
layerId = "73572E25-487C-487F-975F-150A505979A5";
shapes = (
{
closed = 1;
nodes = (
(265.972,0,l),
(413.699,695,l),
(343.699,695,l),
(195.972,0,l)
);
},
{
closed = 1;
nodes = (
(621.008,640,l),
(633.762,700,l),
(127.762,700,l),
(115.008,640,l)
);
}
);
userData = {
com.hugojourdan.ColorFlow = {
"0" = 0;
"1" = 0;
"10" = 0;
"11" = 0;
"2" = 0;
"3" = 0;
"4" = 0;
"5" = 0;
"6" = 0;
"7" = 0;
"8" = 0;
"9" = 0;
};
};
width = 580;
},
{
anchors = (
{
name = bottom;
pos = (222,0);
},
{
name = center;
pos = (297,350);
},
{
name = top;
pos = (371,700);
}
);
layerId = "66114D67-63CC-4821-8086-0090D571F0A1";
shapes = (
{
closed = 1;
nodes = (
(295.135,0,l),
(442.861,695,l),
(297.667,695,l),
(149.94,0,l)
);
},
{
closed = 1;
nodes = (
(599.721,583.942,l),
(624.39,700,l),
(118.39,700,l),
(93.721,583.942,l)
);
}
);
userData = {
com.hugojourdan.ColorFlow = {
"0" = 0;
"1" = 0;
"10" = 0;
"11" = 0;
"2" = 0;
"3" = 0;
"4" = 0;
"5" = 0;
"6" = 0;
"7" = 0;
"8" = 0;
"9" = 0;
};
};
width = 564;
}
);
metricRight = "=|";
unicode = 84;
userData = {
KernOnName = T;
};
},
{
glyphname = U;
kernLeft = KO_U;
kernRight = KO_U;
layers = (
{
anchors = (
{
name = bottom;
pos = (264,0);
},
{
name = ogonek;
pos = (395,10);
},
{
name = top;
pos = (413,700);
},
{
name = topright;
pos = (713,700);
}
);
layerId = "73572E25-487C-487F-975F-150A505979A5";
shapes = (
{
closed = 1;
nodes = (
(395.784,-15,o),
(518.151,62,o),
(559.387,256,cs),
(653.762,700,l),
(584.762,700,l),
(486.348,237,ls),
(459.353,110,o),
(370.537,45,o),
(273.537,45,cs),
(177.537,45,o),
(116.353,110,o),
(143.348,237,cs),
(241.762,700,l),
(171.762,700,l),
(77.387,256,ls),
(36.151,62,o),
(127.784,-15,o),
(260.784,-15,cs)
);
}
);
userData = {
com.hugojourdan.ColorFlow = {
"0" = 0;
"1" = 0;
"10" = 0;
"11" = 0;
"2" = 0;
"3" = 0;
"4" = 0;
"5" = 0;
"6" = 0;
"7" = 0;
"8" = 0;
"9" = 0;
};
};
width = 644;
},
{
anchors = (
{
name = bottom;
pos = (267,0);
},
{
name = ogonek;
pos = (414,10);
},
{
name = top;
pos = (416,700);
},
{
name = topright;
pos = (709,700);
}
);
layerId = "66114D67-63CC-4821-8086-0090D571F0A1";
shapes = (
{
closed = 1;
nodes = (
(456.422,-15,o),
(552.242,64.725,o),
(595.241,266.883,cs),
(687.303,700,l),
(542.235,700,l),
(446.801,251.019,ls),
(424.362,145.269,o),
(374.341,101.004,o),
(300.343,101,cs),
(222.018,100.996,o),
(174.092,144,o),
(196.384,251.019,cs),
(291.817,700,l),
(146.749,700,l),
(54.688,266.883,ls),
(13.789,74.471,o),
(118.632,-15,o),
(271.674,-15,cs)
);
}
);
userData = {
com.hugojourdan.ColorFlow = {
"0" = 0;
"1" = 0;
"10" = 0;
"11" = 0;
"2" = 0;
"3" = 0;
"4" = 0;
"5" = 0;
"6" = 0;
"7" = 0;
"8" = 0;
"9" = 0;
};
};
width = 657;
}
);
metricLeft = "=H*.9";
metricRight = "=|";
unicode = 85;
},
{
glyphname = V;
kernLeft = KO_V;
kernRight = KO_V;
layers = (
{
anchors = (
{
name = bottom;
pos = (257,0);
},
{
name = top;
pos = (406,700);
}
);
layerId = "73572E25-487C-487F-975F-150A505979A5";
shapes = (
{
closed = 1;
nodes = (
(287.972,0,l),
(684.762,700,l),
(612.762,700,l),
(277.44,101,l),
(275.44,101,l),
(197.762,700,l),
(125.762,700,l),
(222.972,0,l)
);
}
);
userData = {
com.hugojourdan.ColorFlow = {
"0" = 0;
"1" = 0;
"10" = 0;
"11" = 0;
"2" = 0;
"3" = 0;
"4" = 0;
"5" = 0;
"6" = 0;
"7" = 0;
"8" = 0;
"9" = 0;
};
};
width = 629;
},
{
anchors = (
{
name = bottom;
pos = (270,0);
},
{
name = top;
pos = (419,700);
}
);
layerId = "66114D67-63CC-4821-8086-0090D571F0A1";
shapes = (
{
closed = 1;
nodes = (
(362.931,0,l),
(726.565,700,l),
(572.245,700,l),
(267.865,89.99,l),
(294.515,89.99,l),
(247.827,700,l),
(109.507,700,l),
(177.94,0,l)
);
}
);
userData = {
com.hugojourdan.ColorFlow = {
"0" = 0;
"1" = 0;
"10" = 0;
"11" = 0;
"2" = 0;
"3" = 0;
"4" = 0;
"5" = 0;
"6" = 0;
"7" = 0;
"8" = 0;
"9" = 0;
};
};
width = 657;
}
);
metricRight = "=|";
unicode = 86;
userData = {
KernOnName = V;
};
},
{
glyphname = W;
kernLeft = KO_W;
kernRight = KO_W;
layers = (
{
anchors = (
{
name = bottom;
pos = (365,0);
},
{
name = top;
pos = (514,700);
}
);
layerId = "73572E25-487C-487F-975F-150A505979A5";
shapes = (
{
closed = 1;
nodes = (
(210.972,0,l),
(510.96,668,l),
(502.96,668,l),
(518.972,0,l),
(620.972,0,l),
(901.762,700,l),
(834.762,700,l),
(572.687,41,l),
(583.687,41,l),
(566.762,700,l),
(460.762,700,l),
(163.687,41,l),
(174.687,41,l),
(192.762,700,l),
(125.762,700,l),
(108.972,0,l)
);
}
);
userData = {
com.hugojourdan.ColorFlow = {
"0" = 0;
"1" = 0;
"10" = 0;
"11" = 0;
"2" = 0;
"3" = 0;
"4" = 0;
"5" = 0;
"6" = 0;
"7" = 0;
"8" = 0;
"9" = 0;
};
};
width = 846;
},
{
anchors = (
{
name = bottom;
pos = (369,0);
},
{
name = top;
pos = (518,700);
}
);
layerId = "66114D67-63CC-4821-8086-0090D571F0A1";
shapes = (
{
closed = 1;
nodes = (
(269.669,0,l),
(496.633,554.019,l),
(479.876,554.019,l),
(471.319,0,l),
(669.164,0,l),
(929.06,700,l),
(800.371,700,l),
(582.263,100.68,l),
(593.389,100.68,l),
(594.682,700,l),
(437.885,700,l),
(184.399,100.68,l),
(195.525,100.68,l),
(235.196,700,l),
(109.507,700,l),
(71.824,0,l)
);
}
);
userData = {
com.hugojourdan.ColorFlow = {
"0" = 0;
"1" = 0;
"10" = 0;
"11" = 0;
"2" = 0;
"3" = 0;
"4" = 0;
"5" = 0;
"6" = 0;
"7" = 0;
"8" = 0;
"9" = 0;
};
};
width = 860;
}
);
metricLeft = V;
metricRight = V;
unicode = 87;
userData = {
KernOnName = W;
};
},
{
glyphname = X;
kernLeft = KO_X;
kernRight = KO_X;
layers = (
{
anchors = (
{
name = bottom;
pos = (283,0);
},
{
name = top;
pos = (432,700);
}
);
layerId = "73572E25-487C-487F-975F-150A505979A5";
shapes = (
{
closed = 1;
nodes = (
(91.972,0,l),
(361.903,329,l),
(348.903,329,l),
(467.972,0,l),
(548.972,0,l),
(407.705,361,l),
(706.762,700,l),
(623.762,700,l),
(360.719,394,l),
(377.719,394,l),
(245.762,700,l),
(161.762,700,l),
(313.13,363,l),
(9.972,0,l)
);
}
);
userData = {
com.hugojourdan.ColorFlow = {
"0" = 0;
"1" = 0;
"10" = 0;
"11" = 0;
"2" = 0;
"3" = 0;
"4" = 0;
"5" = 0;
"6" = 0;
"7" = 0;
"8" = 0;
"9" = 0;
};
};
width = 684;
},
{
anchors = (
{
name = bottom;
pos = (267,0);
},
{
name = top;
pos = (416,700);
}
);
layerId = "66114D67-63CC-4821-8086-0090D571F0A1";
shapes = (
{
closed = 1;
nodes = (
(154.28,0,l),
(362.945,290.34,l),
(342.188,290.34,l),
(422.183,0,l),
(582.135,0,l),
(457.618,363.252,l),
(729.041,700,l),
(554.963,700,l),
(356.947,429.155,l),
(379.325,429.155,l),
(294.07,700,l),
(133.371,700,l),
(263.076,364.126,l),
(-17.293,0,l)
);
}
);
userData = {
com.hugojourdan.ColorFlow = {
"0" = 0;
"1" = 0;
"10" = 0;
"11" = 0;
"2" = 0;
"3" = 0;
"4" = 0;
"5" = 0;
"6" = 0;
"7" = 0;
"8" = 0;
"9" = 0;
};
};
width = 684;
}
);
metricRight = "=|";
unicode = 88;
},
{
glyphname = Y;
kernLeft = KO_Y;
kernRight = KO_Y;
layers = (
{
anchors = (
{
name = bottom;
pos = (240,0);
},
{
name = top;
pos = (389,700);
},
{
name = topleft;
pos = (105,700);
}
);
layerId = "73572E25-487C-487F-975F-150A505979A5";
shapes = (
{
closed = 1;
nodes = (
(318.613,290,l),
(650.762,700,l),
(571.762,700,l),
(297.642,356,l),
(334.067,358,l),
(204.762,700,l),
(125.762,700,l),
(285.613,290,l)
);
},
{
closed = 1;
nodes = (
(273.972,0,l),
(354.956,381,l),
(284.956,381,l),
(203.972,0,l)
);
}
);
userData = {
com.hugojourdan.ColorFlow = {
"0" = 0;
"1" = 0;
"10" = 0;
"11" = 0;
"2" = 0;
"3" = 0;
"4" = 0;
"5" = 0;
"6" = 0;
"7" = 0;
"8" = 0;
"9" = 0;
};
};
width = 595;
},
{
anchors = (
{
name = bottom;
pos = (256,0);
},
{
name = top;
pos = (405,700);
},
{
name = topleft;
pos = (118,700);
}
);
layerId = "66114D67-63CC-4821-8086-0090D571F0A1";
shapes = (
{
closed = 1;
nodes = (
(361.666,274.728,l),
(701.06,700,l),
(522.109,700,l),
(321.009,424.058,l),
(351.433,418.427,l),
(264.584,700,l),
(109.507,700,l),
(268.112,274.728,l)
);
},
{
closed = 1;
nodes = (
(329.028,0,l),
(418.708,421.913,l),
(273.64,421.913,l),
(183.96,0,l)
);
}
);
userData = {
com.hugojourdan.ColorFlow = {
"0" = 0;
"1" = 0;
"10" = 0;
"11" = 0;
"2" = 0;
"3" = 0;
"4" = 0;
"5" = 0;
"6" = 0;
"7" = 0;
"8" = 0;
"9" = 0;
};
};
width = 632;
}
);
metricLeft = V;
metricRight = "=|";
unicode = 89;
userData = {
KernOnName = Y;
};
},
{
glyphname = Z;
kernLeft = KO_Z;
kernRight = KO_Z;
layers = (
{
anchors = (
{
name = bottom;
pos = (235,0);
},
{
name = center;
pos = (309,350);
},
{
name = top;
pos = (384,700);
}
);
layerId = "73572E25-487C-487F-975F-150A505979A5";
shapes = (
{
closed = 1;
nodes = (
(468.972,0,l),
(481.725,60,l),
(55.725,60,l),
(60.073,24,l),
(591.371,637,l),
(604.762,700,l),
(171.762,700,l),
(159.008,640,l),
(540.008,640,l),
(533.11,664,l),
(13.576,64,l),
(-0.028,0,l)
);
}
);
userData = {
com.hugojourdan.ColorFlow = {
"0" = 0;
"1" = 0;
"10" = 0;
"11" = 0;
"2" = 0;
"3" = 0;
"4" = 0;
"5" = 0;
"6" = 0;
"7" = 0;
"8" = 0;
"9" = 0;
};
};
width = 585;
},
{
anchors = (
{
name = bottom;
pos = (242,0);
},
{
name = center;
pos = (317,350);
},
{
name = top;
pos = (391,700);
}
);
layerId = "66114D67-63CC-4821-8086-0090D571F0A1";
shapes = (
{
closed = 1;
nodes = (
(500.261,0,l),
(524.93,116.058,l),
(135.338,116.058,l),
(134.455,83.68,l),
(607.607,566.184,l),
(636.05,700,l),
(157.759,700,l),
(133.276,584.816,l),
(473.237,584.816,l),
(475.596,605.32,l),
(14.838,135.816,l),
(-14.03,0,l)
);
}
);
userData = {
com.hugojourdan.ColorFlow = {
"0" = 0;
"1" = 0;
"10" = 0;
"11" = 0;
"2" = 0;
"3" = 0;
"4" = 0;
"5" = 0;
"6" = 0;
"7" = 0;
"8" = 0;
"9" = 0;
};
};
width = 605;
}
);
metricRight = "=|";
unicode = 90;
},
{
glyphname = M.ss01;
kernLeft = KO_N.ss01;
kernRight = KO_N.ss01;
lastChange = "2025-02-06 07:51:02 +0000";
layers = (
{
anchors = (
{
name = bottom;
pos = (367,0);
},
{
name = top;
pos = (516,700);
}
);
background = {
shapes = (
{
closed = 1;
nodes = (
(155,0,l),
(155,509,ls),
(155,598,o),
(202,645,o),
(275,645,cs),
(348,645,o),
(389,598,o),
(389,509,cs),
(389,0,l),
(459,0,l),
(459,509,ls),
(459,598,o),
(506,645,o),
(579,645,cs),
(652,645,o),
(693,598,o),
(693,509,cs),
(693,0,l),
(763,0,l),
(763,700,l),
(85,700,l),
(85,0,l)
);
}
);
};
layerId = "73572E25-487C-487F-975F-150A505979A5";
shapes = (
{
closed = 1;
nodes = (
(99.972,0,l),
(236.008,640,l),
(470.008,640,l),
(333.972,0,l),
(400.972,0,l),
(537.008,640,l),
(771.008,640,l),
(634.972,0,l),
(701.972,0,l),
(827.593,591,ls),
(843.11,664,o),
(818.762,700,o),
(739.762,700,cs),
(291.762,700,ls),
(212.762,700,o),
(173.11,664,o),
(157.593,591,cs),
(31.972,0,l)
);
}
);
userData = {
com.hugojourdan.ColorFlow = {
"0" = 0;
"1" = 0;
"10" = 0;
"11" = 0;
"2" = 0;
"3" = 0;
"4" = 0;
"5" = 0;
"6" = 0;
"7" = 0;
"8" = 0;
"9" = 0;
};
};
width = 850;
},
{
anchors = (
{
name = bottom;
pos = (367,0);
},
{
name = top;
pos = (516,700);
}
);
layerId = "66114D67-63CC-4821-8086-0090D571F0A1";
shapes = (
{
closed = 1;
nodes = (
(141.018,0,l),
(265.325,584.816,l),
(423.383,584.816,l),
(299.076,0,l),
(435.387,0,l),
(559.693,584.816,l),
(717.752,584.816,l),
(593.445,0,l),
(729.756,0,l),
(832.439,483.087,ls),
(861.482,621,o),
(818.124,704,o),
(664.727,704.369,cs),
(381.406,704.369,ls),
(224.124,704,o),
(137.545,626,o),
(107.391,483.087,cs),
(4.707,0,l)
);
}
);
userData = {
com.hugojourdan.ColorFlow = {
"0" = 0;
"1" = 0;
"10" = 0;
"11" = 0;
"2" = 0;
"3" = 0;
"4" = 0;
"5" = 0;
"6" = 0;
"7" = 0;
"8" = 0;
"9" = 0;
};
};
width = 853;
}
);
metricLeft = M;
metricRight = M;
},
{
glyphname = N.ss01;
kernLeft = KO_N.ss01;
kernRight = KO_N.ss01;
lastChange = "2025-02-06 07:51:02 +0000";
layers = (
{
anchors = (
{
name = bottom;
pos = (281,0);
},
{
name = top;
pos = (430,700);
}
);
background = {
shapes = (
{
closed = 1;
nodes = (
(158,0,l),
(158,430,ls),
(158,571,o),
(220,645,o),
(339,645,cs),
(458,645,o),
(520,571,o),
(520,430,cs),
(520,0,l),
(590,0,l),
(590,700,l),
(88,700,l),
(88,0,l)
);
}
);
};
layerId = "73572E25-487C-487F-975F-150A505979A5";
shapes = (
{
closed = 1;
nodes = (
(99.972,0,l),
(236.008,640,l),
(599.008,640,l),
(462.972,0,l),
(530.972,0,l),
(656.593,591,l),
(672.11,664,o),
(643.762,700,o),
(557.762,700,cs),
(302.762,700,ls),
(216.762,700,o),
(173.11,664,o),
(157.593,591,cs),
(31.972,0,l)
);
}
);
userData = {
com.hugojourdan.ColorFlow = {
"0" = 0;
"1" = 0;
"10" = 0;
"11" = 0;
"2" = 0;
"3" = 0;
"4" = 0;
"5" = 0;
"6" = 0;
"7" = 0;
"8" = 0;
"9" = 0;
};
};
width = 679;
},
{
anchors = (
{
name = bottom;
pos = (280,0);
},
{
name = top;
pos = (429,700);
}
);
layerId = "66114D67-63CC-4821-8086-0090D571F0A1";
shapes = (
{
closed = 1;
nodes = (
(140,0,l),
(264,585,l),
(542,585,l),
(418,0,l),
(554,0,l),
(644,423,ls),
(683,604,o),
(614,715,o),
(434,715,cs),
(432,715,ls),
(252,715,o),
(133,603,o),
(94,423,cs),
(4,0,l)
);
}
);
userData = {
com.hugojourdan.ColorFlow = {
"0" = 0;
"1" = 0;
"10" = 0;
"11" = 0;
"2" = 0;
"3" = 0;
"4" = 0;
"5" = 0;
"6" = 0;
"7" = 0;
"8" = 0;
"9" = 0;
};
};
width = 679;
}
);
metricLeft = N;
metricRight = N;
},
{
glyphname = M.ss02;
kernLeft = KO_H;
kernRight = KO_H;
lastChange = "2025-02-06 07:51:02 +0000";
layers = (
{
anchors = (
{
name = bottom;
pos = (371,0);
},
{
name = top;
pos = (520,700);
}
);
layerId = "73572E25-487C-487F-975F-150A505979A5";
shapes = (
{
closed = 1;
nodes = (
(101.972,0,l),
(210.163,509,ls),
(229.081,598,o),
(286.071,645,o),
(359.071,645,cs),
(432.071,645,o),
(463.081,598,o),
(444.163,509,cs),
(335.972,0,l),
(405.972,0,l),
(514.163,509,ls),
(533.081,598,o),
(590.071,645,o),
(663.071,645,cs),
(736.071,645,o),
(767.081,598,o),
(748.163,509,cs),
(639.972,0,l),
(709.972,0,l),
(858.762,700,l),
(180.762,700,l),
(31.972,0,l)
);
}
);
userData = {
com.hugojourdan.ColorFlow = {
"0" = 0;
"1" = 0;
"10" = 0;
"11" = 0;
"2" = 0;
"3" = 0;
"4" = 0;
"5" = 0;
"6" = 0;
"7" = 0;
"8" = 0;
"9" = 0;
};
};
width = 858;
},
{
anchors = (
{
name = bottom;
pos = (368,0);
},
{
name = top;
pos = (517,700);
}
);
layerId = "66114D67-63CC-4821-8086-0090D571F0A1";
shapes = (
{
closed = 1;
nodes = (
(140.144,0,l),
(246.235,499.117,ls),
(259.728,561,o),
(297.743,594,o),
(348.633,594.078,cs),
(397.743,594,o),
(418.941,562,o),
(406.041,499.117,cs),
(299.95,0,l),
(436.261,0,l),
(542.351,499.117,ls),
(555.728,561,o),
(595.743,594,o),
(644.876,594.078,cs),
(692.743,594,o),
(715.941,562,o),
(702.157,499.117,cs),
(596.067,0,l),
(731.504,0,l),
(880.293,700,l),
(153.497,700,l),
(4.707,0,l)
);
}
);
userData = {
com.hugojourdan.ColorFlow = {
"0" = 0;
"1" = 0;
"10" = 0;
"11" = 0;
"2" = 0;
"3" = 0;
"4" = 0;
"5" = 0;
"6" = 0;
"7" = 0;
"8" = 0;
"9" = 0;
};
};
width = 855;
}
);
metricLeft = M;
metricRight = M;
},
{
glyphname = N.ss02;
kernLeft = KO_H;
kernRight = KO_H;
lastChange = "2025-02-06 07:51:02 +0000";
layers = (
{
anchors = (
{
name = bottom;
pos = (283,0);
},
{
name = top;
pos = (432,700);
}
);
layerId = "73572E25-487C-487F-975F-150A505979A5";
shapes = (
{
closed = 1;
nodes = (
(101.972,0,l),
(193.371,430,ls),
(223.342,571,o),
(301.071,645,o),
(420.071,645,cs),
(539.071,645,o),
(585.342,571,o),
(555.371,430,cs),
(463.972,0,l),
(533.972,0,l),
(682.762,700,l),
(180.762,700,l),
(31.972,0,l)
);
}
);
userData = {
com.hugojourdan.ColorFlow = {
"0" = 0;
"1" = 0;
"10" = 0;
"11" = 0;
"2" = 0;
"3" = 0;
"4" = 0;
"5" = 0;
"6" = 0;
"7" = 0;
"8" = 0;
"9" = 0;
};
};
width = 682;
},
{
anchors = (
{
name = bottom;
pos = (279,0);
},
{
name = top;
pos = (428,700);
}
);
layerId = "66114D67-63CC-4821-8086-0090D571F0A1";
shapes = (
{
closed = 1;
nodes = (
(139,0,l),
(231,433,ls),
(254,540,o),
(315,600,o),
(407,600,cs),
(497,600,o),
(534,541,o),
(511,433,cs),
(419,0,l),
(556,0,l),
(705,701,l),
(153,701,l),
(4,0,l)
);
}
);
userData = {
com.hugojourdan.ColorFlow = {
"0" = 0;
"1" = 0;
"10" = 0;
"11" = 0;
"2" = 0;
"3" = 0;
"4" = 0;
"5" = 0;
"6" = 0;
"7" = 0;
"8" = 0;
"9" = 0;
};
};
width = 680;
}
);
metricLeft = N;
metricRight = N;
},
{
glyphname = a;
kernLeft = KO_a;
kernRight = KO_a;
layers = (
{
anchors = (
{
name = bottom;
pos = (202,0);
},
{
name = ogonek;
pos = (416,10);
},
{
name = top;
pos = (318,546);
}
);
background = {
shapes = (
{
closed = 1;
nodes = (
(451,0,l),
(451,390,ls),
(451,503,o),
(386,561,o),
(258,561,cs),
(163,561,o),
(84,512,o),
(50,432,c),
(106,398,l),
(135,461,o),
(188,501,o),
(257,501,cs),
(342,501,o),
(383,455,o),
(383,391,cs),
(383,0,l)
);
},
{
closed = 1;
nodes = (
(324,-11,o),
(391,50,o),
(396,146,c),
(383,240,l),
(383,121,o),
(326,49,o),
(232,49,cs),
(154,49,o),
(111,84,o),
(111,148,cs),
(111,208,o),
(151,241,o),
(246,258,cs),
(396,283,l),
(396,344,l),
(239,318,ls),
(106,297,o),
(43,241,o),
(43,144,cs),
(43,49,o),
(110,-11,o),
(225,-11,cs)
);
}
);
};
layerId = "73572E25-487C-487F-975F-150A505979A5";
shapes = (
{
closed = 1;
nodes = (
(395.972,0,l),
(476.531,379,ls),
(505.651,516,o),
(421.789,561,o),
(316.216,561,cs),
(216.585,561,o),
(137.895,518.977,o),
(88.159,432,c),
(140.995,400,l),
(178.023,466,o),
(236.463,501,o),
(312.463,501,cs),
(380.463,501,o),
(425.023,466,o),
(408.019,386,cs),
(325.972,0,l)
);
},
{
closed = 1;
nodes = (
(271.634,-11,o),
(349.238,53,o),
(376.343,157,c),
(377.198,241,l),
(351.054,118,o),
(275.6,50,o),
(174.6,50,cs),
(113.6,50,o),
(71.977,80,o),
(86.43,148,cs),
(100.034,212,o),
(149.198,241,o),
(238.812,258,cs),
(398.488,280,l),
(411.241,340,l),
(255.778,319,ls),
(117.884,300.02,o),
(36.262,246.595,o),
(16.155,152,cs),
(-3.494,59.56,o),
(43.634,-11,o),
(151.634,-11,cs)
);
}
);
userData = {
com.hugojourdan.ColorFlow = {
"0" = 0;
"1" = 0;
"10" = 0;
"11" = 0;
"2" = 0;
"3" = 0;
"4" = 0;
"5" = 0;
"6" = 0;
"7" = 0;
"8" = 0;
"9" = 0;
};
};
width = 520;
},
{
anchors = (
{
name = bottom;
pos = (211,0);
},
{
name = ogonek;
pos = (410,10);
},
{
name = top;
pos = (331,560);
}
);
color = 4;
layerId = "66114D67-63CC-4821-8086-0090D571F0A1";
shapes = (
{
closed = 1;
nodes = (
(429,0,l),
(508,373,ls),
(538,515,o),
(471,575,o),
(324,575,cs),
(242,575,o),
(149,543,o),
(81,473,c),
(149,385,l),
(179,425,o),
(235,461,o),
(292,461,cs),
(350,461,o),
(385,436,o),
(372,378,cs),
(292,0,l)
);
},
{
closed = 1;
nodes = (
(242,-11,o),
(311,51,o),
(330,155,c),
(344,242,l),
(324,147,o),
(272,94,o),
(205,94,cs),
(163,94,o),
(134,113,o),
(143,161,cs),
(152,202,o),
(185,228,o),
(244,240,cs),
(361,262,l),
(382,360,l),
(247,336,ls),
(106,311,o),
(25,257,o),
(5,163,cs),
(-17,58,o),
(31,-11,o),
(139,-11,cs)
);
}
);
userData = {
com.hugojourdan.ColorFlow = {
"0" = 0;
"1" = 0;
"10" = 0;
"11" = 0;
"2" = 0;
"3" = 0;
"4" = 0;
"5" = 0;
"6" = 0;
"7" = 0;
"8" = 0;
"9" = 0;
};
};
width = 543;
}
);
metricLeft = o;
metricRight = n;
unicode = 97;
userData = {
KernOnName = a;
};
},
{
glyphname = aogonek;
kernLeft = KO_a;
kernRight = KO_a;
lastChange = "2025-02-06 07:51:02 +0000";
layers = (
{
anchors = (
{
name = top;
pos = (318,546);
}
);
layerId = "73572E25-487C-487F-975F-150A505979A5";
shapes = (
{
closed = 1;
nodes = (
(325.398,-205,o),
(346.036,-202,o),
(371.374,-191,c),
(384.34,-130,l),
(358.789,-142,o),
(345.151,-145,o),
(331.151,-145,c),
(302.151,-145,o),
(285.552,-129,o),
(291.079,-103,cs),
(297.668,-72,o),
(327.194,-46,o),
(375.209,-13,cs),
(393.972,0,l),
(332.46,7,l),
(311.059,-9,ls),
(265.62,-44,o),
(234.668,-72,o),
(224.465,-120,cs),
(213.625,-171,o),
(245.398,-205,o),
(300.398,-205,c)
);
},
{
ref = a;
}
);
userData = {
com.hugojourdan.ColorFlow = {
"0" = 0;
"1" = 0;
"10" = 0;
"11" = 0;
"2" = 0;
"3" = 0;
"4" = 0;
"5" = 0;
"6" = 0;
"7" = 0;
"8" = 0;
"9" = 0;
};
};
width = 520;
},
{
anchors = (
{
name = top;
pos = (332,560);
}
);
layerId = "66114D67-63CC-4821-8086-0090D571F0A1";
shapes = (
{
closed = 1;
nodes = (
(364.91,-205,o),
(385.76,-201,o),
(410.45,-192,c),
(426.899,-114.612,l),
(401.489,-127,o),
(388.064,-129,o),
(373.738,-129.485,c),
(350.064,-129,o),
(333.615,-117,o),
(338.47,-95.485,cs),
(343.818,-69,o),
(369.919,-45,o),
(410.119,-13,cs),
(426.513,0,l),
(357.619,10,l),
(336.334,-4.359,ls),
(284.407,-38,o),
(252.542,-75,o),
(243.983,-115.864,cs),
(231.924,-172,o),
(265.91,-205,o),
(334.182,-205,c)
);
},
{
ref = a;
}
);
userData = {
com.hugojourdan.ColorFlow = {
"0" = 0;
"1" = 0;
"10" = 0;
"11" = 0;
"2" = 0;
"3" = 0;
"4" = 0;
"5" = 0;
"6" = 0;
"7" = 0;
"8" = 0;
"9" = 0;
};
};
width = 543;
}
);
metricLeft = a;
unicode = 261;
},
{
color = 0;
glyphname = ae;
kernLeft = KO_a;
kernRight = KO_e;
lastChange = "2025-02-06 07:51:02 +0000";
layers = (
{
anchors = (
{
name = bottom;
pos = (387,0);
},
{
name = top;
pos = (503,546);
}
);
layerId = "73572E25-487C-487F-975F-150A505979A5";
shapes = (
{
closed = 1;
nodes = (
(424.744,173,l),
(468.531,379,ls),
(497.651,516,o),
(424.216,561,o),
(324.216,561,cs),
(220.216,561,o),
(138.076,518,o),
(82.159,429,c),
(138.995,400,l),
(176.023,466,o),
(234.463,501,o),
(310.463,501,cs),
(378.463,501,o),
(423.023,466,o),
(406.019,386,cs),
(360.744,173,l)
);
},
{
closed = 1;
nodes = (
(278.634,-11,o),
(357.238,53,o),
(394.343,157,c),
(375.198,241,l),
(349.054,118,o),
(273.6,50,o),
(172.6,50,cs),
(111.6,50,o),
(69.977,80,o),
(84.43,148,cs),
(98.034,212,o),
(147.198,241,o),
(236.812,258,cs),
(396.488,280,l),
(409.241,340,l),
(253.778,319,ls),
(115.739,300,o),
(35.411,242,o),
(14.155,142,cs),
(-4.337,55,o),
(41.634,-11,o),
(149.634,-11,cs)
);
},
{
alignment = -1;
pos = (341,0);
ref = e;
}
);
userData = {
com.hugojourdan.ColorFlow = {
"0" = 0;
"1" = 0;
"10" = 0;
"11" = 0;
"2" = 0;
"3" = 0;
"4" = 0;
"5" = 0;
"6" = 0;
"7" = 0;
"8" = 0;
"9" = 0;
};
};
width = 889;
},
{
anchors = (
{
name = bottom;
pos = (377,0);
},
{
name = top;
pos = (497,560);
}
);
layerId = "66114D67-63CC-4821-8086-0090D571F0A1";
shapes = (
{
closed = 1;
nodes = (
(447,192,l),
(487,381,ls),
(516,513,o),
(454,575,o),
(338,575,cs),
(246,575,o),
(150,541,o),
(78,470,c),
(136,384,l),
(175,430,o),
(231,461,o),
(299,461,cs),
(349,461,o),
(382,436,o),
(370,378,cs),
(331,192,l)
);
},
{
closed = 1;
nodes = (
(274,-11,o),
(357,48,o),
(387,148,c),
(342,247,l),
(320,143,o),
(271,94,o),
(200,94,cs),
(158,94,o),
(130,116,o),
(140,164,cs),
(149,205,o),
(183,230,o),
(239,241,cs),
(359,265,l),
(378,353,l),
(242,331,ls),
(100,306,o),
(22,248,o),
(2,150,cs),
(-19,54,o),
(34,-11,o),
(147,-11,cs)
);
},
{
alignment = -1;
pos = (319,0);
ref = e;
}
);
userData = {
com.hugojourdan.ColorFlow = {
"0" = 0;
"1" = 0;
"10" = 0;
"11" = 0;
"2" = 0;
"3" = 0;
"4" = 0;
"5" = 0;
"6" = 0;
"7" = 0;
"8" = 0;
"9" = 0;
};
};
width = 871;
}
);
metricLeft = a;
metricRight = e;
unicode = 230;
},
{
glyphname = b;
kernLeft = KO_i;
kernRight = KO_b;
layers = (
{
anchors = (
{
name = bottom;
pos = (226,0);
},
{
name = center;
pos = (213,618);
},
{
name = top;
pos = (342,546);
}
);
background = {
shapes = (
{
closed = 1;
nodes = (
(428,-15,o),
(523,86,o),
(523,278,cs),
(523,470,o),
(428,562,o),
(308,562,cs),
(222,562,o),
(143,505,o),
(131,409,c),
(71,275,l),
(128,151,l),
(138,48,o),
(210,-15,o),
(308,-15,cs)
);
},
{
closed = 1;
nodes = (
(192,37,o),
(138,137,o),
(138,275,cs),
(138,405,o),
(192,510,o),
(293,510,cs),
(399,510,o),
(455,424,o),
(455,277,cs),
(455,133,o),
(399,37,o),
(293,37,cs)
);
}
);
};
layerId = "73572E25-487C-487F-975F-150A505979A5";
shapes = (
{
closed = 1;
nodes = (
(381.784,-15,o),
(511.306,70.957,o),
(550,253,cs),
(594.2,460.947,o),
(504.216,561,o),
(379.216,561,cs),
(283.216,561,o),
(181.975,494,o),
(145.806,385,c),
(73,273,l),
(98.194,161,l),
(88.025,52,o),
(160.784,-15,o),
(256.784,-15,cs)
);
},
{
closed = 1;
nodes = (
(81.972,0,l),
(116.831,164,l),
(163.169,382,l),
(243.515,760,l),
(175.515,760,l),
(13.972,0,l)
);
},
{
closed = 1;
nodes = (
(149.78,45,o),
(112.793,145,o),
(140,273,cs),
(167.207,401,o),
(245.463,501,o),
(353.463,501,cs),
(466.463,501,o),
(512.821,418,o),
(482,273,cs),
(451.205,128.123,o),
(372.031,45,o),
(264.537,45,cs)
);
}
);
userData = {
com.hugojourdan.ColorFlow = {
"0" = 0;
"1" = 0;
"10" = 0;
"11" = 0;
"2" = 0;
"3" = 0;
"4" = 0;
"5" = 0;
"6" = 0;
"7" = 0;
"8" = 0;
"9" = 0;
};
};
width = 588;
},
{
anchors = (
{
name = bottom;
pos = (247,0);
},
{
name = center;
pos = (224,609);
},
{
name = top;
pos = (367,560);
}
);
layerId = "66114D67-63CC-4821-8086-0090D571F0A1";
shapes = (
{
closed = 1;
nodes = (
(425,-15,o),
(540,74,o),
(582,271,cs),
(625,477,o),
(541,574,o),
(417,574,cs),
(317,574,o),
(236,510,o),
(209,402,c),
(129,281,l),
(158,159,l),
(140,52,o),
(200,-15,o),
(301,-15,cs)
);
},
{
closed = 1;
nodes = (
(137,0,l),
(172,167,l),
(219,390,l),
(298,759,l),
(162,759,l),
(1,0,l)
);
},
{
closed = 1;
nodes = (
(196,103,o),
(174,177,o),
(196,281,cs),
(218,383,o),
(271,458,o),
(355,458,cs),
(439,458,o),
(471,391,o),
(447,281,cs),
(424,171,o),
(364,103,o),
(279,103,cs)
);
}
);
userData = {
com.hugojourdan.ColorFlow = {
"0" = 0;
"1" = 0;
"10" = 0;
"11" = 0;
"2" = 0;
"3" = 0;
"4" = 0;
"5" = 0;
"6" = 0;
"7" = 0;
"8" = 0;
"9" = 0;
};
};
width = 610;
}
);
metricLeft = l;
metricRight = "=o*.9";
unicode = 98;
},
{
glyphname = c;
kernLeft = KO_e;
kernRight = KO_c;
lastChange = "2025-02-06 07:51:02 +0000";
layers = (
{
anchors = (
{
name = bottom;
pos = (214,0);
},
{
name = top;
pos = (330,546);
}
);
background = {
shapes = (
{
pos = (1,0);
ref = o;
}
);
};
layerId = "73572E25-487C-487F-975F-150A505979A5";
shapes = (
{
closed = 1;
nodes = (
(319,-13,o),
(422,18,o),
(476,150,c),
(420,172,l),
(384,83,o),
(311,47,o),
(239,47,cs),
(130,47,o),
(81,128,o),
(112,275,cs),
(143,420,o),
(230,501,o),
(338,501,cs),
(412,501,o),
(471,465,o),
(463,388,c),
(529,396,l),
(534,517,o),
(437,561,o),
(348,561,cs),
(192,561,o),
(79,445,o),
(44,282,cs),
(8,111,o),
(73,-13,o),
(237,-13,cs)
);
}
);
userData = {
com.hugojourdan.ColorFlow = {
"0" = 0;
"1" = 0;
"10" = 0;
"11" = 0;
"2" = 0;
"3" = 0;
"4" = 0;
"5" = 0;
"6" = 0;
"7" = 0;
"8" = 0;
"9" = 0;
};
};
width = 541;
},
{
anchors = (
{
name = bottom;
pos = (214,0);
},
{
name = top;
pos = (334,560);
}
);
color = 4;
layerId = "66114D67-63CC-4821-8086-0090D571F0A1";
shapes = (
{
closed = 1;
nodes = (
(345,-13,o),
(448,49,o),
(497,175,c),
(370,204,l),
(345,130,o),
(300,102,o),
(246,102,cs),
(169,102,o),
(140,162,o),
(165,282,cs),
(190,399,o),
(246,460,o),
(322,460,cs),
(377,460,o),
(408,432,o),
(404,358,c),
(542,388,l),
(553,516,o),
(471,575,o),
(348,575,cs),
(189,575,o),
(67,460,o),
(30,282,cs),
(-8,106,o),
(65,-13,o),
(223,-13,cs)
);
}
);
userData = {
com.hugojourdan.ColorFlow = {
"0" = 0;
"1" = 0;
"10" = 0;
"11" = 0;
"2" = 0;
"3" = 0;
"4" = 0;
"5" = 0;
"6" = 0;
"7" = 0;
"8" = 0;
"9" = 0;
};
};
width = 549;
}
);
metricLeft = o;
metricRight = "=|*.95";
unicode = 99;
},
{
glyphname = d;
kernLeft = KO_d;
kernRight = KO_i;
layers = (
{
anchors = (
{
name = bottom;
pos = (236,0);
},
{
name = center;
pos = (512,608);
},
{
name = top;
pos = (352,546);
},
{
name = topright;
pos = (672,760);
}
);
layerId = "73572E25-487C-487F-975F-150A505979A5";
shapes = (
{
closed = 1;
nodes = (
(308.372,-15,o),
(407.011,52,o),
(442.25,161,c),
(515.056,273,l),
(489.862,385,l),
(500.031,494,o),
(427.272,561,o),
(331.272,561,cs),
(198.272,561,o),
(76.727,474.931,o),
(36.022,283.432,cs),
(-6.123,85.156,o),
(86.351,-15,o),
(214.84,-15,cs)
);
},
{
closed = 1;
nodes = (
(121.593,45,o),
(75.235,128,o),
(106.056,273,cs),
(136.877,418,o),
(218.519,501,o),
(331.519,501,cs),
(439.519,501,o),
(475.263,401,o),
(448.056,273,cs),
(420.849,145,o),
(342.593,45,o),
(234.593,45,cs)
);
},
{
closed = 1;
nodes = (
(458.028,0,l),
(619.571,760,l),
(551.571,760,l),
(471.225,382,l),
(424.887,164,l),
(390.028,0,l)
);
}
);
userData = {
com.hugojourdan.ColorFlow = {
"0" = 0;
"1" = 0;
"10" = 0;
"11" = 0;
"2" = 0;
"3" = 0;
"4" = 0;
"5" = 0;
"6" = 0;
"7" = 0;
"8" = 0;
"9" = 0;
};
};
width = 588;
},
{
anchors = (
{
name = bottom;
pos = (245,0);
},
{
name = center;
pos = (527,608);
},
{
name = top;
pos = (365,560);
},
{
name = topright;
pos = (692,760);
}
);
layerId = "66114D67-63CC-4821-8086-0090D571F0A1";
shapes = (
{
closed = 1;
nodes = (
(289.327,-15,o),
(374.569,52,o),
(401.732,158.874,c),
(482.117,280.631,l),
(453.307,401.515,l),
(471.92,510,o),
(413.736,575,o),
(319.663,575.388,cs),
(191.736,575,o),
(70.941,486.577,o),
(29.214,290.27,cs),
(-12.81,92.559,o),
(76.327,-15,o),
(194.172,-15,cs)
);
},
{
closed = 1;
nodes = (
(171.409,103,o),
(140.863,171,o),
(166.185,290.13,cs),
(187.625,391,o),
(247.867,458,o),
(331.948,457.835,cs),
(415.867,458,o),
(436.925,383,o),
(415.117,280.631,cs),
(393.138,177,o),
(339.409,103,o),
(256.431,102.553,cs)
);
},
{
closed = 1;
nodes = (
(490.904,0,l),
(652.261,759.126,l),
(516.825,759.126,l),
(438.286,389.631,l),
(391.045,167.379,l),
(355.467,0,l)
);
}
);
userData = {
com.hugojourdan.ColorFlow = {
"0" = 0;
"1" = 0;
"10" = 0;
"11" = 0;
"2" = 0;
"3" = 0;
"4" = 0;
"5" = 0;
"6" = 0;
"7" = 0;
"8" = 0;
"9" = 0;
};
};
width = 610;
}
);
unicode = 100;
userData = {
KernOnName = d;
};
},
{
color = 0;
glyphname = dcroat;
kernLeft = KO_d;
lastChange = "2025-02-06 07:51:02 +0000";
layers = (
{
layerId = "73572E25-487C-487F-975F-150A505979A5";
shapes = (
{
ref = d;
},
{
closed = 1;
nodes = (
(412.448,675,l),
(399.694,615,l),
(674.694,615,l),
(687.448,675,l)
);
}
);
userData = {
com.hugojourdan.ColorFlow = {
"0" = 0;
"1" = 0;
"10" = 0;
"11" = 0;
"2" = 0;
"3" = 0;
"4" = 0;
"5" = 0;
"6" = 0;
"7" = 0;
"8" = 0;
"9" = 0;
};
};
width = 594;
},
{
layerId = "66114D67-63CC-4821-8086-0090D571F0A1";
shapes = (
{
ref = d;
},
{
closed = 1;
nodes = (
(415.867,699.272,l),
(392.795,590.728,l),
(679.931,590.728,l),
(703.002,699.272,l)
);
}
);
userData = {
com.hugojourdan.ColorFlow = {
"0" = 0;
"1" = 0;
"10" = 0;
"11" = 0;
"2" = 0;
"3" = 0;
"4" = 0;
"5" = 0;
"6" = 0;
"7" = 0;
"8" = 0;
"9" = 0;
};
};
width = 598;
}
);
unicode = 273;
},
{
color = 0;
glyphname = eth;
kernLeft = KO_eth;
kernRight = KO_eth;
lastChange = "2025-02-06 07:51:02 +0000";
layers = (
{
background = {
shapes = (
{
attr = {
identifier = ID0x149dc2ac0;
};
closed = 1;
nodes = (
(476,-15,o),
(524,162,o),
(523,356,cs),
(520,555,o),
(424,700,o),
(187,754,c),
(163,656,l),
(295,633,o),
(452,539,o),
(452,374,cs),
(452,297,l),
(460,318,l),
(448,388,o),
(362,472,o),
(263,472,cs),
(155,472,o),
(40,390,o),
(40,237,cs),
(40,60,o),
(153,-15,o),
(279,-15,cs)
);
},
{
attr = {
identifier = ID0x149dc2ac0;
};
closed = 1;
nodes = (
(184,38,o),
(105,117,o),
(105,232,cs),
(105,354,o),
(168,421,o),
(265,421,cs),
(338,421,o),
(442,373,o),
(442,232,cs),
(442,117,o),
(383,38,o),
(275,38,cs)
);
},
{
attr = {
strokeHeight = 63.54369;
strokeWidth = 63.54369;
};
closed = 0;
nodes = (
(262,543,l),
(449,743,l)
);
}
);
};
layerId = "73572E25-487C-487F-975F-150A505979A5";
shapes = (
{
attr = {
identifier = ID0x13bef4cb0;
};
closed = 1;
nodes = (
(408.691,-15,o),
(493.192,142.195,o),
(526.628,319.641,cs),
(563.439,515,o),
(542.713,728,o),
(249.79,766,c),
(223.337,698,l),
(476.322,665,o),
(488.613,497,o),
(464.468,374,cs),
(448.101,297,l),
(469.067,358,l),
(475.135,443,o),
(408.189,512,o),
(292.801,512,cs),
(183.121,512,o),
(62.676,427.908,o),
(30.174,275,cs),
(-11.469,79.085,o),
(102.216,-15,o),
(224.784,-15,cs)
);
},
{
attr = {
identifier = ID0x13bef4cb0;
};
closed = 1;
nodes = (
(131.537,45,o),
(70.838,126.986,o),
(100.174,265,cs),
(126.869,390.589,o),
(218.048,452,o),
(305.048,452,cs),
(385.048,452,o),
(463.845,404,o),
(431.536,252,cs),
(405.179,128,o),
(328.537,45,o),
(223.537,45,cs)
);
},
{
closed = 1;
nodes = (
(303.018,593,l),
(340.941,555,l),
(533.776,733,l),
(495.853,771,l)
);
}
);
userData = {
com.hugojourdan.ColorFlow = {
"0" = 0;
"1" = 0;
"10" = 0;
"11" = 0;
"2" = 0;
"3" = 0;
"4" = 0;
"5" = 0;
"6" = 0;
"7" = 0;
"8" = 0;
"9" = 0;
};
};
width = 565;
},
{
background = {
shapes = (
{
attr = {
identifier = ID0x149dc2ac0;
};
closed = 1;
nodes = (
(428.296,-15,o),
(525.305,145,o),
(565.234,352.767,cs),
(605.091,558,o),
(541.525,720,o),
(286.179,774.874,c),
(218.068,640.34,l),
(416.506,607,o),
(458.487,494,o),
(432.815,374,cs),
(416.448,297,l),
(434.573,344.631,l),
(445.222,441,o),
(395.313,512,o),
(293.041,512,cs),
(183.313,512,o),
(60.396,423,o),
(25.606,257,cs),
(-15.275,67,o),
(90.296,-15,o),
(224.674,-15,cs)
);
},
{
attr = {
identifier = ID0x149dc2ac0;
};
closed = 1;
nodes = (
(182.952,101,o),
(141.068,158,o),
(160.854,252,cs),
(181.666,349,o),
(238.869,397,o),
(307.092,396.816,cs),
(363.869,397,o),
(423.367,357,o),
(401.252,252,cs),
(381.281,159,o),
(318.952,101,o),
(247.596,101.058,cs)
);
},
{
closed = 1;
nodes = (
(316.263,599.282,l),
(362.388,550.447,l),
(517.947,700.563,l),
(471.822,749.398,l)
);
}
);
};
layerId = "66114D67-63CC-4821-8086-0090D571F0A1";
shapes = (
{
attr = {
identifier = ID0x149dc2ac0;
};
closed = 1;
nodes = (
(427.615,-15,o),
(520.899,125.72,o),
(555.496,304.804,cs),
(600.685,538.72,o),
(531.639,702.704,o),
(285.535,775,c),
(216.84,660,l),
(417.63,624.519,o),
(459.641,502.633,o),
(432.3,374,cs),
(415.933,297,l),
(434.135,345,l),
(444.541,441,o),
(384.632,512,o),
(281.632,512,cs),
(162.632,512,o),
(55.708,434.152,o),
(22.397,277.432,cs),
(-20.19,77.079,o),
(101.615,-15,o),
(255.615,-15,cs)
);
},
{
attr = {
identifier = ID0x149dc2ac0;
};
closed = 1;
nodes = (
(177.272,101,o),
(140.387,158,o),
(160.368,252,cs),
(180.986,349,o),
(238.188,397,o),
(306.188,397,cs),
(363.188,397,o),
(422.686,357,o),
(400.368,252,cs),
(380.6,159,o),
(333.272,101,o),
(255.272,101,cs)
);
},
{
closed = 1;
nodes = (
(277.936,584,l),
(343.396,525,l),
(533.057,721,l),
(467.385,779,l)
);
}
);
userData = {
com.hugojourdan.ColorFlow = {
"0" = 0;
"1" = 0;
"10" = 0;
"11" = 0;
"2" = 0;
"3" = 0;
"4" = 0;
"5" = 0;
"6" = 0;
"7" = 0;
"8" = 0;
"9" = 0;
};
};
width = 586;
}
);
unicode = 240;
},
{
glyphname = e;
kernLeft = KO_e;
kernRight = KO_e;
lastChange = "2025-02-06 07:51:02 +0000";
layers = (
{
anchors = (
{
name = bottom;
pos = (216,0);
},
{
name = ogonek;
pos = (357,10);
},
{
name = top;
pos = (332,546);
}
);
layerId = "73572E25-487C-487F-975F-150A505979A5";
shapes = (
{
closed = 1;
nodes = (
(315.43,-15,o),
(414.973,20.267,o),
(475.281,152,c),
(419.256,171,l),
(380.764,80.405,o),
(308.537,45,o),
(236.537,45,cs),
(110.537,45,o),
(78.691,121,o),
(113.551,285,cs),
(146.71,441,o),
(225.463,501,o),
(329.463,501,cs),
(434.463,501,o),
(471.859,437,o),
(450.816,338,cs),
(449.541,332,o),
(447.84,324,o),
(445.565,318,c),
(463.415,322,l),
(101.415,322,l),
(88.662,262,l),
(503.662,262,l),
(510.039,292,ls),
(547.874,470,o),
(480.301,561,o),
(336.216,561,cs),
(196.088,561,o),
(79.592,449.855,o),
(45.522,289.568,cs),
(5.653,102,o),
(67.482,-15,o),
(227.784,-15,cs)
);
}
);
userData = {
com.hugojourdan.ColorFlow = {
"0" = 0;
"1" = 0;
"10" = 0;
"11" = 0;
"2" = 0;
"3" = 0;
"4" = 0;
"5" = 0;
"6" = 0;
"7" = 0;
"8" = 0;
"9" = 0;
};
};
width = 548;
},
{
anchors = (
{
name = bottom;
pos = (217,0);
},
{
name = ogonek;
pos = (361,10);
},
{
name = top;
pos = (337,560);
}
);
color = 4;
layerId = "66114D67-63CC-4821-8086-0090D571F0A1";
shapes = (
{
closed = 1;
nodes = (
(317.856,-13.996,o),
(429.773,16,o),
(490.859,156.379,c),
(375.879,190.272,l),
(347.204,121,o),
(302.102,97,o),
(246.734,97.049,cs),
(160.102,97,o),
(140.643,156,o),
(169.481,292.631,cs),
(196.97,421,o),
(249.11,464,o),
(317.578,464.466,cs),
(386.11,464,o),
(408.545,419,o),
(394.568,353.515,cs),
(392.816,345,o),
(390.478,334,o),
(387.668,325.757,c),
(414.755,342.019,l),
(119.066,342.019,l),
(99.717,250.99,l),
(515.97,250.99,l),
(525.405,295.379,ls),
(565.362,484,o),
(478.434,574.97,o),
(329.661,575.388,cs),
(185.017,575.021,o),
(73.297,483.695,o),
(33.871,298.211,cs),
(-4.951,115.568,o),
(65.9,-14.004,o),
(232.03,-13.874,cs)
);
}
);
userData = {
com.hugojourdan.ColorFlow = {
"0" = 0;
"1" = 0;
"10" = 0;
"11" = 0;
"2" = 0;
"3" = 0;
"4" = 0;
"5" = 0;
"6" = 0;
"7" = 0;
"8" = 0;
"9" = 0;
};
};
width = 552;
}
);
metricLeft = o;
metricRight = o;
unicode = 101;
},
{
glyphname = f;
kernLeft = KO_f;
kernRight = KO_f;
layers = (
{
anchors = (
{
name = bottom;
pos = (133,0);
},
{
name = top;
pos = (295,760);
}
);
layerId = "73572E25-487C-487F-975F-150A505979A5";
shapes = (
{
closed = 1;
nodes = (
(162.972,0,l),
(299.646,643,ls),
(307.936,682,o),
(326.762,700,o),
(364.762,700,cs),
(452.762,700,l),
(465.515,760,l),
(379.515,760,ls),
(297.515,760,o),
(249.013,720,o),
(232.221,641,cs),
(95.972,0,l)
);
},
{
closed = 1;
nodes = (
(406.275,486,l),
(419.028,546,l),
(107.028,546,l),
(94.275,486,l)
);
}
);
userData = {
com.hugojourdan.ColorFlow = {
"0" = 0;
"1" = 0;
"10" = 0;
"11" = 0;
"2" = 0;
"3" = 0;
"4" = 0;
"5" = 0;
"6" = 0;
"7" = 0;
"8" = 0;
"9" = 0;
};
};
width = 382;
},
{
anchors = (
{
name = bottom;
pos = (143,0);
},
{
name = top;
pos = (305,762);
}
);
layerId = "66114D67-63CC-4821-8086-0090D571F0A1";
shapes = (
{
closed = 1;
nodes = (
(201.144,0,l),
(330.319,607.718,ls),
(336.032,633,o),
(349.796,646,o),
(377.03,645.825,cs),
(461.526,645.825,l),
(485.794,760,l),
(383.26,760,ls),
(269.027,760,o),
(217.399,710,o),
(194.617,602.359,cs),
(66.581,0,l)
);
},
{
closed = 1;
nodes = (
(418.223,446.214,l),
(442.492,560.388,l),
(96.084,560.388,l),
(71.815,446.214,l)
);
}
);
userData = {
com.hugojourdan.ColorFlow = {
"0" = 0;
"1" = 0;
"10" = 0;
"11" = 0;
"2" = 0;
"3" = 0;
"4" = 0;
"5" = 0;
"6" = 0;
"7" = 0;
"8" = 0;
"9" = 0;
};
};
width = 405;
}
);
unicode = 102;
},
{
glyphname = g;
kernLeft = KO_d;
kernRight = KO_g;
lastChange = "2025-02-06 07:51:02 +0000";
layers = (
{
anchors = (
{
name = bottom;
pos = (203,-220);
},
{
name = top;
pos = (366,546);
}
);
background = {
shapes = (
{
closed = 1;
nodes = (
(343,-220,ls),
(476,-220,o),
(512,-159,o),
(512,-52,cs),
(512,547,l),
(444,547,l),
(444,-57,ls),
(444,-136,o),
(409,-167,o),
(345,-167,cs),
(135,-167,l),
(135,-220,l)
);
},
{
closed = 1;
nodes = (
(367,-15,o),
(450,52,o),
(462,161,c),
(511,273,l),
(462,385,l),
(450,494,o),
(367,561,o),
(276,561,cs),
(156,561,o),
(59,468,o),
(59,273,cs),
(59,78,o),
(156,-15,o),
(276,-15,cs)
);
},
{
closed = 1;
nodes = (
(183,45,o),
(127,128,o),
(127,273,cs),
(127,418,o),
(183,501,o),
(289,501,cs),
(390,501,o),
(444,401,o),
(444,273,cs),
(444,145,o),
(390,45,o),
(289,45,cs)
);
}
);
};
layerId = "73572E25-487C-487F-975F-150A505979A5";
shapes = (
{
closed = 1;
nodes = (
(241,-215,ls),
(374,-215,o),
(423,-154,o),
(446,-47,cs),
(572,547,l),
(504,547,l),
(378,-45,ls),
(362,-124,o),
(320,-155,o),
(256,-155,cs),
(28,-155,l),
(15,-215,l)
);
},
{
closed = 1;
nodes = (
(302,-15,o),
(403,52,o),
(439,161,c),
(512,273,l),
(487,385,l),
(497,494,o),
(424,561,o),
(328,561,cs),
(203,561,o),
(75,470,o),
(35,280,cs),
(-7,80,o),
(81,-15,o),
(206,-15,cs)
);
},
{
closed = 1;
nodes = (
(119,45,o),
(72,128,o),
(103,273,cs),
(134,418,o),
(215,501,o),
(328,501,cs),
(436,501,o),
(472,401,o),
(445,273,cs),
(418,145,o),
(340,45,o),
(232,45,cs)
);
}
);
userData = {
com.hugojourdan.ColorFlow = {
"0" = 0;
"1" = 0;
"10" = 0;
"11" = 0;
"2" = 0;
"3" = 0;
"4" = 0;
"5" = 0;
"6" = 0;
"7" = 0;
"8" = 0;
"9" = 0;
};
};
width = 589;
},
{
anchors = (
{
name = bottom;
pos = (217,-220);
},
{
name = top;
pos = (383,560);
}
);
background = {
shapes = (
{
closed = 1;
nodes = (
(242.28,-215,ls),
(401.785,-215,o),
(460.514,-141,o),
(488.276,-9.34,cs),
(609.348,560.262,l),
(474.785,560.262,l),
(352.701,-14.097,ls),
(339.755,-74,o),
(306.229,-100,o),
(255.525,-99.699,cs),
(32.03,-99.699,l),
(7.522,-215,l)
);
},
{
closed = 1;
nodes = (
(287.296,-15,o),
(373.325,51,o),
(401.089,158.874,c),
(481.474,280.631,l),
(452.664,401.515,l),
(471.101,511,o),
(412.704,575,o),
(319.02,575.388,cs),
(191.704,575,o),
(70.086,478,o),
(27.746,280.631,cs),
(-13.661,84,o),
(65.296,-15,o),
(193.529,-15,cs)
);
},
{
closed = 1;
nodes = (
(171.377,103,o),
(139.619,170,o),
(163.183,280.631,cs),
(186.381,390,o),
(245.835,458,o),
(331.305,457.835,cs),
(413.835,458,o),
(436.106,384,o),
(414.474,280.631,cs),
(392.319,178,o),
(339.377,103,o),
(255.787,102.553,cs)
);
}
);
};
color = 4;
layerId = "66114D67-63CC-4821-8086-0090D571F0A1";
shapes = (
{
closed = 1;
nodes = (
(242.28,-215,ls),
(401.785,-215,o),
(460.514,-141,o),
(488.276,-9.34,cs),
(609.348,560.262,l),
(474.785,560.262,l),
(352.701,-14.097,ls),
(339.755,-74,o),
(306.229,-100,o),
(255.525,-99.699,cs),
(32.03,-99.699,l),
(7.522,-215,l)
);
},
{
closed = 1;
nodes = (
(293.146,-15,o),
(374.827,50.019,o),
(401.008,158.504,c),
(481.207,279.388,l),
(452.583,401.145,l),
(470.853,508.019,o),
(410.358,574.019,o),
(308.939,574.019,cs),
(185.498,574.019,o),
(70.221,486.304,o),
(28.624,288.963,cs),
(-14.817,82.877,o),
(69.551,-14.962,o),
(193.448,-14.983,cs)
);
},
{
closed = 1;
nodes = (
(171.555,102.019,o),
(139.796,169.019,o),
(162.916,279.388,cs),
(186.559,389.019,o),
(246.013,457.019,o),
(331.224,457.466,cs),
(414.013,457.019,o),
(436.283,383.019,o),
(414.207,279.388,cs),
(392.497,177.019,o),
(339.555,102.019,o),
(255.707,102.184,cs)
);
}
);
userData = {
com.hugojourdan.ColorFlow = {
"0" = 0;
"1" = 0;
"10" = 0;
"11" = 0;
"2" = 0;
"3" = 0;
"4" = 0;
"5" = 0;
"6" = 0;
"7" = 0;
"8" = 0;
"9" = 0;
};
};
width = 609;
}
);
metricLeft = q;
metricRight = q;
unicode = 103;
},
{
glyphname = h;
kernLeft = KO_i;
kernRight = KO_n;
layers = (
{
anchors = (
{
name = bottom;
pos = (236,0);
},
{
name = center;
pos = (219,608);
},
{
name = top;
pos = (398,760);
}
);
layerId = "73572E25-487C-487F-975F-150A505979A5";
shapes = (
{
closed = 1;
nodes = (
(459.972,0,l),
(530.541,332,ls),
(560.936,475,o),
(517.975,561,o),
(369.216,561,cs),
(267.991,561,o),
(182.889,504,o),
(157.207,401,c),
(144.039,292,l),
(173.371,430,o),
(251.463,501,o),
(355.463,501,cs),
(450.463,501,o),
(485.284,439,o),
(460.203,321,cs),
(391.972,0,l)
);
},
{
closed = 1;
nodes = (
(81.972,0,l),
(243.515,760,l),
(175.515,760,l),
(13.972,0,l)
);
}
);
userData = {
com.hugojourdan.ColorFlow = {
"0" = 0;
"1" = 0;
"10" = 0;
"11" = 0;
"2" = 0;
"3" = 0;
"4" = 0;
"5" = 0;
"6" = 0;
"7" = 0;
"8" = 0;
"9" = 0;
};
};
width = 586;
},
{
anchors = (
{
name = bottom;
pos = (244,0);
},
{
name = center;
pos = (223,609);
},
{
name = top;
pos = (252,762);
}
);
layerId = "66114D67-63CC-4821-8086-0090D571F0A1";
shapes = (
{
closed = 1;
nodes = (
(492.513,0,l),
(568.72,358.524,ls),
(596.849,491,o),
(554.067,572,o),
(424.134,572.136,cs),
(326.067,572,o),
(245.588,518,o),
(220.911,427.524,c),
(202.998,317.398,l),
(222.207,408,o),
(275.623,457,o),
(348.813,456.709,cs),
(418.623,457,o),
(445.695,415,o),
(427.887,333.136,cs),
(357.076,0,l)
);
},
{
closed = 1;
nodes = (
(135.533,0,l),
(297.076,760,l),
(161.639,760,l),
(0.096,0,l)
);
}
);
userData = {
com.hugojourdan.ColorFlow = {
"0" = 0;
"1" = 0;
"10" = 0;
"11" = 0;
"2" = 0;
"3" = 0;
"4" = 0;
"5" = 0;
"6" = 0;
"7" = 0;
"8" = 0;
"9" = 0;
};
};
width = 609;
}
);
metricLeft = l;
metricRight = n;
unicode = 104;
userData = {
KernOnName = h;
};
},
{
color = 0;
glyphname = hbar;
kernRight = KO_hbar;
lastChange = "2025-02-06 07:51:02 +0000";
layers = (
{
layerId = "73572E25-487C-487F-975F-150A505979A5";
shapes = (
{
ref = h;
},
{
closed = 1;
nodes = (
(77.448,675,l),
(64.694,615,l),
(349.694,615,l),
(362.448,675,l)
);
}
);
userData = {
com.hugojourdan.ColorFlow = {
"0" = 0;
"1" = 0;
"10" = 0;
"11" = 0;
"2" = 0;
"3" = 0;
"4" = 0;
"5" = 0;
"6" = 0;
"7" = 0;
"8" = 0;
"9" = 0;
};
};
width = 604;
},
{
layerId = "66114D67-63CC-4821-8086-0090D571F0A1";
shapes = (
{
ref = h;
},
{
closed = 1;
nodes = (
(81,699,l),
(58,591,l),
(355,591,l),
(378,699,l)
);
}
);
userData = {
com.hugojourdan.ColorFlow = {
"0" = 0;
"1" = 0;
"10" = 0;
"11" = 0;
"2" = 0;
"3" = 0;
"4" = 0;
"5" = 0;
"6" = 0;
"7" = 0;
"8" = 0;
"9" = 0;
};
};
width = 615;
}
);
unicode = 295;
},
{
glyphname = idotless;
kernLeft = KO_r;
kernRight = KO_g;
lastChange = "2025-02-06 07:51:02 +0000";
layers = (
{
anchors = (
{
name = bottom;
pos = (48,0);
},
{
name = ogonek;
pos = (95,0);
},
{
name = top;
pos = (164,546);
}
);
layerId = "73572E25-487C-487F-975F-150A505979A5";
shapes = (
{
closed = 1;
nodes = (
(81.972,0,l),
(198.028,546,l),
(130.028,546,l),
(13.972,0,l)
);
}
);
userData = {
com.hugojourdan.ColorFlow = {
"0" = 0;
"1" = 0;
"10" = 0;
"11" = 0;
"2" = 0;
"3" = 0;
"4" = 0;
"5" = 0;
"6" = 0;
"7" = 0;
"8" = 0;
"9" = 0;
};
};
width = 212;
},
{
anchors = (
{
name = bottom;
pos = (68,0);
},
{
name = ogonek;
pos = (147,0);
},
{
name = top;
pos = (188,560);
}
);
layerId = "66114D67-63CC-4821-8086-0090D571F0A1";
shapes = (
{
closed = 1;
nodes = (
(137,0,l),
(256,560,l),
(120,560,l),
(1,0,l)
);
}
);
userData = {
com.hugojourdan.ColorFlow = {
"0" = 0;
"1" = 0;
"10" = 0;
"11" = 0;
"2" = 0;
"3" = 0;
"4" = 0;
"5" = 0;
"6" = 0;
"7" = 0;
"8" = 0;
"9" = 0;
};
};
width = 255;
}
);
metricLeft = l;
metricRight = "=|";
unicode = 305;
},
{
glyphname = iogonek;
kernLeft = KO_i;
kernRight = KO_i;
lastChange = "2025-02-06 07:51:02 +0000";
layers = (
{
background = {
anchors = (
{
name = _ogonek;
pos = (153,0);
}
);
};
layerId = "73572E25-487C-487F-975F-150A505979A5";
shapes = (
{
ref = idotless;
},
{
pos = (-195,0);
ref = dotaccentcomb;
},
{
closed = 1;
nodes = (
(6.272,-215,o),
(26.91,-212,o),
(52.248,-201,c),
(65.214,-140,l),
(39.663,-152,o),
(26.026,-155,o),
(12.026,-155,c),
(-16.974,-155,o),
(-33.573,-139,o),
(-28.047,-113,cs),
(-21.458,-82,o),
(5.644,-58,o),
(52.083,-23,cs),
(81.972,0,l),
(13.972,0,l),
(-7.429,-16,ls),
(-53.656,-50,o),
(-84.458,-82,o),
(-94.66,-130,cs),
(-105.501,-181,o),
(-73.728,-215,o),
(-18.728,-215,c)
);
}
);
userData = {
com.hugojourdan.ColorFlow = {
"0" = 0;
"1" = 0;
"10" = 0;
"11" = 0;
"2" = 0;
"3" = 0;
"4" = 0;
"5" = 0;
"6" = 0;
"7" = 0;
"8" = 0;
"9" = 0;
};
};
width = 212;
},
{
layerId = "66114D67-63CC-4821-8086-0090D571F0A1";
shapes = (
{
ref = idotless;
},
{
pos = (-174,0);
ref = dotaccentcomb;
},
{
closed = 1;
nodes = (
(58.785,-215,o),
(79.635,-211,o),
(104.965,-202,c),
(121.415,-124.612,l),
(95.364,-137,o),
(81.939,-139,o),
(68.253,-139.485,c),
(44.939,-139,o),
(28.702,-126,o),
(33.249,-104.243,cs),
(39.117,-77,o),
(63.006,-54,o),
(105.013,-23,cs),
(135.533,0,l),
(50.387,0,l),
(30.849,-14.359,ls),
(-18.931,-49,o),
(-50.583,-85,o),
(-59.492,-128.738,cs),
(-71.201,-182,o),
(-39.215,-215,o),
(28.697,-215,c)
);
}
);
userData = {
com.hugojourdan.ColorFlow = {
"0" = 0;
"1" = 0;
"10" = 0;
"11" = 0;
"2" = 0;
"3" = 0;
"4" = 0;
"5" = 0;
"6" = 0;
"7" = 0;
"8" = 0;
"9" = 0;
};
};
width = 255;
}
);
unicode = 303;
},
{
glyphname = jdotless;
kernLeft = KO_j;
lastChange = "2025-02-06 07:51:02 +0000";
layers = (
{
anchors = (
{
name = bottom;
pos = (4,-220);
},
{
name = top;
pos = (167,546);
}
);
layerId = "73572E25-487C-487F-975F-150A505979A5";
shapes = (
{
closed = 1;
nodes = (
(-74.728,-215,ls),
(5.272,-215,o),
(45.137,-178,o),
(60.441,-106,cs),
(199.028,546,l),
(131.028,546,l),
(-6.709,-102,ls),
(-14.998,-141,o),
(-36.974,-155,o),
(-84.974,-155,cs),
(-132.974,-155,l),
(-145.728,-215,l)
);
}
);
userData = {
com.hugojourdan.ColorFlow = {
"0" = 0;
"1" = 0;
"10" = 0;
"11" = 0;
"2" = 0;
"3" = 0;
"4" = 0;
"5" = 0;
"6" = 0;
"7" = 0;
"8" = 0;
"9" = 0;
};
};
width = 213;
},
{
anchors = (
{
name = bottom;
pos = (27,-220);
},
{
name = top;
pos = (191,552);
}
);
layerId = "66114D67-63CC-4821-8086-0090D571F0A1";
shapes = (
{
closed = 1;
nodes = (
(-59.953,-215,ls),
(55.785,-215,o),
(106.625,-164,o),
(127.781,-62.961,cs),
(260.278,560.388,l),
(125.715,560.388,l),
(-3.14,-45.825,ls),
(-11.371,-84,o),
(-30.771,-100,o),
(-71.635,-99.951,cs),
(-114.256,-99.951,l),
(-138.711,-215,l)
);
}
);
userData = {
com.hugojourdan.ColorFlow = {
"0" = 0;
"1" = 0;
"10" = 0;
"11" = 0;
"2" = 0;
"3" = 0;
"4" = 0;
"5" = 0;
"6" = 0;
"7" = 0;
"8" = 0;
"9" = 0;
};
};
width = 261;
}
);
metricRight = idotless;
unicode = 567;
},
{
glyphname = k;
kernLeft = KO_i;
kernRight = KO_k;
layers = (
{
anchors = (
{
name = bottom;
pos = (206,0);
},
{
name = top;
pos = (211,760);
}
);
layerId = "73572E25-487C-487F-975F-150A505979A5";
shapes = (
{
closed = 1;
nodes = (
(427.972,0,l),
(205.739,300,l),
(210.763,286,l),
(523.028,546,l),
(429.028,546,l),
(118.338,284,l),
(124.676,295,l),
(343.76,-1,l)
);
},
{
closed = 1;
nodes = (
(81.972,0,l),
(243.515,760,l),
(175.515,760,l),
(13.972,0,l)
);
}
);
userData = {
com.hugojourdan.ColorFlow = {
"0" = 0;
"1" = 0;
"10" = 0;
"11" = 0;
"2" = 0;
"3" = 0;
"4" = 0;
"5" = 0;
"6" = 0;
"7" = 0;
"8" = 0;
"9" = 0;
};
};
width = 521;
},
{
anchors = (
{
name = bottom;
pos = (229,0);
},
{
name = top;
pos = (247,762);
}
);
layerId = "66114D67-63CC-4821-8086-0090D571F0A1";
shapes = (
{
closed = 1;
nodes = (
(492.669,0,l),
(314.859,318.893,l),
(312.114,301.272,l),
(586.278,560.388,l),
(422.094,560.388,l),
(161.934,299.515,l),
(168.272,310.515,l),
(325.979,0,l)
);
},
{
closed = 1;
nodes = (
(135.533,0,l),
(297.076,760,l),
(161.639,760,l),
(0.096,0,l)
);
}
);
userData = {
com.hugojourdan.ColorFlow = {
"0" = 0;
"1" = 0;
"10" = 0;
"11" = 0;
"2" = 0;
"3" = 0;
"4" = 0;
"5" = 0;
"6" = 0;
"7" = 0;
"8" = 0;
"9" = 0;
};
};
width = 570;
}
);
metricLeft = l;
unicode = 107;
userData = {
KernOnName = k;
};
},
{
color = 2;
glyphname = l;
kernLeft = KO_l;
kernRight = KO_l;
layers = (
{
anchors = (
{
name = bottom;
pos = (72,0);
},
{
name = center;
pos = (130,273);
},
{
name = top;
pos = (234,760);
},
{
name = topright;
pos = (342,760);
}
);
layerId = "73572E25-487C-487F-975F-150A505979A5";
shapes = (
{
closed = 1;
nodes = (
(169.972,0,l),
(181.238,53,l),
(137.238,53,ls),
(108.238,53,o),
(95.638,69,o),
(101.803,98,cs),
(242.515,760,l),
(175.515,760,l),
(36.928,108,ls),
(22.262,39,o),
(52.972,0,o),
(122.972,0,cs)
);
}
);
userData = {
com.hugojourdan.ColorFlow = {
"0" = 0;
"1" = 0;
"10" = 0;
"11" = 0;
"2" = 0;
"3" = 0;
"4" = 0;
"5" = 0;
"6" = 0;
"7" = 0;
"8" = 0;
"9" = 0;
};
};
width = 260;
},
{
anchors = (
{
name = bottom;
pos = (90,0);
},
{
name = center;
pos = (150,281);
},
{
name = top;
pos = (231,759);
},
{
name = topright;
pos = (385,759);
}
);
layerId = "66114D67-63CC-4821-8086-0090D571F0A1";
shapes = (
{
closed = 1;
nodes = (
(224.144,0,l),
(247.538,110.058,l),
(204.8,110.058,ls),
(176.865,110,o),
(163.266,126,o),
(169.392,155.184,cs),
(297.949,760,l),
(161.639,760,l),
(29.945,140.427,ls),
(11.325,51,o),
(49.484,0,o),
(140.144,0,cs)
);
}
);
userData = {
com.hugojourdan.ColorFlow = {
"0" = 0;
"1" = 0;
"10" = 0;
"11" = 0;
"2" = 0;
"3" = 0;
"4" = 0;
"5" = 0;
"6" = 0;
"7" = 0;
"8" = 0;
"9" = 0;
};
};
width = 306;
}
);
unicode = 108;
userData = {
KernOnName = l;
};
},
{
color = 2;
glyphname = lslash;
kernLeft = KO_lslash;
kernRight = KO_lslash;
layers = (
{
anchors = (
{
name = bottom;
pos = (66,0);
},
{
name = center;
pos = (124,273);
},
{
name = top;
pos = (225,750);
},
{
name = topright;
pos = (327,750);
}
);
layerId = "73572E25-487C-487F-975F-150A505979A5";
shapes = (
{
closed = 1;
nodes = (
(175.972,0,l),
(187.238,53,l),
(143.238,53,ls),
(114.238,53,o),
(101.638,69,o),
(107.803,98,cs),
(251.066,772,l),
(184.066,772,l),
(42.928,108,ls),
(28.262,39,o),
(58.972,0,o),
(128.972,0,cs)
);
},
{
closed = 1;
nodes = (
(260.4,496,l),
(-6.995,353,l),
(16.251,293,l),
(283.647,436,l)
);
},
{
closed = 1;
nodes = (
(260.4,496,l),
(-6.995,353,l),
(16.251,293,l),
(283.647,436,l)
);
}
);
userData = {
com.hugojourdan.ColorFlow = {
"0" = 0;
"1" = 0;
"10" = 0;
"11" = 0;
"2" = 0;
"3" = 0;
"4" = 0;
"5" = 0;
"6" = 0;
"7" = 0;
"8" = 0;
"9" = 0;
};
};
width = 248;
},
{
anchors = (
{
name = bottom;
pos = (113,0);
},
{
name = center;
pos = (173,281);
},
{
name = top;
pos = (273,750);
},
{
name = topright;
pos = (424,750);
}
);
layerId = "66114D67-63CC-4821-8086-0090D571F0A1";
shapes = (
{
closed = 1;
nodes = (
(244.241,0,l),
(267.635,110.058,l),
(207.421,110.058,ls),
(179.865,110,o),
(166.266,126,o),
(172.013,155.184,cs),
(299.221,753.65,l),
(162.911,753.65,l),
(32.298,139.165,ls),
(13.325,51,o),
(52.484,0,o),
(141.504,0,cs)
);
},
{
closed = 1;
nodes = (
(320.546,549.408,l),
(-35.914,364.039,l),
(1.552,261.495,l),
(358.012,446.864,l)
);
},
{
closed = 1;
nodes = (
(320.546,549.408,l),
(-35.914,364.039,l),
(1.552,261.495,l),
(358.012,446.864,l)
);
}
);
userData = {
com.hugojourdan.ColorFlow = {
"0" = 0;
"1" = 0;
"10" = 0;
"11" = 0;
"2" = 0;
"3" = 0;
"4" = 0;
"5" = 0;
"6" = 0;
"7" = 0;
"8" = 0;
"9" = 0;
};
};
width = 345;
}
);
unicode = 322;
},
{
glyphname = m;
kernLeft = KO_r;
kernRight = KO_a;
layers = (
{
anchors = (
{
name = bottom;
pos = (354,0);
},
{
name = top;
pos = (470,546);
}
);
background = {
shapes = (
{
closed = 1;
nodes = (
(441,0,l),
(441,397,ls),
(441,506,o),
(385,561,o),
(276,561,cs),
(198,561,o),
(137,515,o),
(124,445,c),
(141,376,l),
(141,457,o),
(189,508,o),
(266,508,cs),
(336,508,o),
(374,465,o),
(374,386,cs),
(374,0,l)
);
}
);
};
layerId = "73572E25-487C-487F-975F-150A505979A5";
shapes = (
{
closed = 1;
nodes = (
(687.972,0,l),
(770.231,387,ls),
(794.675,502,o),
(748.366,561,o),
(632.216,561,cs),
(545.001,561,o),
(478.793,510,o),
(449.946,428,c),
(462.768,366,l),
(482.323,458,o),
(538.951,508,o),
(617.951,508,cs),
(689.951,508,o),
(719.173,462,o),
(700.893,376,cs),
(620.972,0,l)
);
},
{
closed = 1;
nodes = (
(81.972,0,l),
(198.24,547,l),
(130.24,547,l),
(13.972,0,l)
);
},
{
closed = 1;
nodes = (
(384.972,0,l),
(467.231,387,ls),
(491.675,502,o),
(445.366,561,o),
(329.216,561,cs),
(239.486,561,o),
(174.807,507,o),
(158.946,428,c),
(159.768,366,l),
(179.323,458,o),
(235.951,508,o),
(314.951,508,cs),
(386.951,508,o),
(416.173,462,o),
(397.893,376,cs),
(317.972,0,l)
);
}
);
userData = {
com.hugojourdan.ColorFlow = {
"0" = 0;
"1" = 0;
"10" = 0;
"11" = 0;
"2" = 0;
"3" = 0;
"4" = 0;
"5" = 0;
"6" = 0;
"7" = 0;
"8" = 0;
"9" = 0;
};
};
width = 814;
},
{
anchors = (
{
name = bottom;
pos = (384,0);
},
{
name = top;
pos = (504,560);
}
);
layerId = "66114D67-63CC-4821-8086-0090D571F0A1";
shapes = (
{
closed = 1;
nodes = (
(761,0,l),
(841,376,ls),
(870,511,o),
(821,575,o),
(712,575,cs),
(625,575,o),
(555,523,o),
(527,450,c),
(524,357,l),
(538,423,o),
(582,460,o),
(638,460,cs),
(693,460,o),
(717,425,o),
(702,354,cs),
(627,0,l)
);
},
{
closed = 1;
nodes = (
(137,0,l),
(256,560,l),
(120,560,l),
(1,0,l)
);
},
{
closed = 1;
nodes = (
(449,0,l),
(528,376,ls),
(557,511,o),
(512,575,o),
(407,575,cs),
(316,575,o),
(244,519,o),
(226,448,c),
(212,357,l),
(226,423,o),
(269,460,o),
(325,460,cs),
(381,460,o),
(404,425,o),
(389,354,cs),
(314,0,l)
);
}
);
userData = {
com.hugojourdan.ColorFlow = {
"0" = 0;
"1" = 0;
"10" = 0;
"11" = 0;
"2" = 0;
"3" = 0;
"4" = 0;
"5" = 0;
"6" = 0;
"7" = 0;
"8" = 0;
"9" = 0;
};
};
width = 877;
}
);
metricLeft = l;
metricRight = n;
unicode = 109;
userData = {
KernOnName = m;
};
},
{
glyphname = n;
kernLeft = KO_r;
kernRight = KO_n;
layers = (
{
anchors = (
{
name = bottom;
pos = (225,0);
},
{
name = top;
pos = (341,546);
}
);
layerId = "73572E25-487C-487F-975F-150A505979A5";
shapes = (
{
closed = 1;
nodes = (
(459.972,0,l),
(530.109,329.966,ls),
(558.903,465.432,o),
(516.975,561,o),
(361.216,561,cs),
(267.991,561,o),
(182.889,504,o),
(157.207,401,c),
(144.039,292,l),
(173.371,430,o),
(251.463,501,o),
(355.463,501,cs),
(450.463,501,o),
(485.284,439,o),
(460.203,321,cs),
(391.972,0,l)
);
},
{
closed = 1;
nodes = (
(81.972,0,l),
(198.24,547,l),
(130.24,547,l),
(13.972,0,l)
);
}
);
userData = {
com.hugojourdan.ColorFlow = {
"0" = 0;
"1" = 0;
"10" = 0;
"11" = 0;
"2" = 0;
"3" = 0;
"4" = 0;
"5" = 0;
"6" = 0;
"7" = 0;
"8" = 0;
"9" = 0;
};
};
width = 586;
},
{
anchors = (
{
name = bottom;
pos = (236,0);
},
{
name = top;
pos = (356,560);
}
);
layerId = "66114D67-63CC-4821-8086-0090D571F0A1";
shapes = (
{
closed = 1;
nodes = (
(494,0,l),
(570,359,ls),
(598,491,o),
(555,572,o),
(425,572,cs),
(327,572,o),
(247,518,o),
(222,428,c),
(204,317,l),
(223,408,o),
(277,457,o),
(350,457,cs),
(420,457,o),
(447,415,o),
(429,333,cs),
(358,0,l)
);
},
{
closed = 1;
nodes = (
(137,0,l),
(256,560,l),
(120,560,l),
(1,0,l)
);
}
);
userData = {
com.hugojourdan.ColorFlow = {
"0" = 0;
"1" = 0;
"10" = 0;
"11" = 0;
"2" = 0;
"3" = 0;
"4" = 0;
"5" = 0;
"6" = 0;
"7" = 0;
"8" = 0;
"9" = 0;
};
};
width = 609;
}
);
metricLeft = l;
metricRight = "=|*.95";
unicode = 110;
userData = {
KernOnName = n;
};
},
{
color = 0;
glyphname = eng;
kernLeft = KO_r;
kernRight = KO_n;
lastChange = "2025-02-06 07:51:02 +0000";
layers = (
{
anchors = (
{
name = bottom;
pos = (201,-200);
},
{
name = top;
pos = (360,546);
}
);
layerId = "73572E25-487C-487F-975F-150A505979A5";
shapes = (
{
closed = 1;
nodes = (
(302.272,-215,ls),
(382.272,-215,o),
(422.137,-178,o),
(437.441,-106,cs),
(512.261,246,l),
(444.261,246,l),
(370.291,-102,ls),
(362.002,-141,o),
(340.026,-155,o),
(292.026,-155,cs),
(244.026,-155,l),
(231.272,-215,l)
);
},
{
ref = n;
}
);
userData = {
com.hugojourdan.ColorFlow = {
"0" = 0;
"1" = 0;
"10" = 0;
"11" = 0;
"2" = 0;
"3" = 0;
"4" = 0;
"5" = 0;
"6" = 0;
"7" = 0;
"8" = 0;
"9" = 0;
};
};
width = 586;
},
{
anchors = (
{
name = bottom;
pos = (261,-213);
},
{
name = top;
pos = (426,560);
}
);
layerId = "66114D67-63CC-4821-8086-0090D571F0A1";
shapes = (
{
closed = 1;
nodes = (
(290.522,-215,ls),
(405.785,-215,o),
(457.625,-164,o),
(478.945,-63.835,cs),
(535.148,200.583,l),
(399.712,200.583,l),
(347.39,-45.573,ls),
(339.417,-85,o),
(320.229,-100,o),
(278.894,-99.699,cs),
(235.399,-99.699,l),
(210.891,-215,l)
);
},
{
alignment = -1;
ref = n;
}
);
userData = {
com.hugojourdan.ColorFlow = {
"0" = 0;
"1" = 0;
"10" = 0;
"11" = 0;
"2" = 0;
"3" = 0;
"4" = 0;
"5" = 0;
"6" = 0;
"7" = 0;
"8" = 0;
"9" = 0;
};
};
width = 609;
}
);
metricLeft = n;
metricRight = n;
unicode = 331;
},
{
glyphname = o;
kernLeft = KO_e;
kernRight = KO_o;
layers = (
{
anchors = (
{
name = bottom;
pos = (227,0);
},
{
name = center;
pos = (285,273);
},
{
name = ogonek;
pos = (455,10);
},
{
name = top;
pos = (343,546);
},
{
name = topright;
pos = (605,546);
}
);
background = {
shapes = (
{
closed = 1;
nodes = (
(426,-15,o),
(516,97,o),
(516,273,cs),
(516,449,o),
(426,561,o),
(283,561,cs),
(141,561,o),
(49,449,o),
(49,273,cs),
(49,97,o),
(141,-15,o),
(283,-15,c)
);
},
{
closed = 1;
nodes = (
(179,45,o),
(119,137,o),
(119,273,cs),
(119,409,o),
(173,501,o),
(283,501,cs),
(393,501,o),
(446,409,o),
(446,273,cs),
(446,137,o),
(393,45,o),
(283,45,c)
);
}
);
};
layerId = "73572E25-487C-487F-975F-150A505979A5";
shapes = (
{
closed = 1;
nodes = (
(387.87,-15,o),
(489.643,97.251,o),
(524.966,263.432,cs),
(564.41,449,o),
(495.533,561,o),
(344.216,561,cs),
(188.73,561,o),
(79.417,449.033,o),
(44.034,282.568,cs),
(4.59,97,o),
(79.032,-15,o),
(236.784,-15,c)
);
},
{
closed = 1;
nodes = (
(126.537,45,o),
(83.092,137,o),
(112,273,cs),
(140.908,409,o),
(217.463,501,o),
(333.463,501,cs),
(449.463,501,o),
(485.908,409,o),
(457,273,cs),
(428.092,137,o),
(352.537,45,o),
(236.537,45,c)
);
}
);
userData = {
com.hugojourdan.ColorFlow = {
"0" = 0;
"1" = 0;
"10" = 0;
"11" = 0;
"2" = 0;
"3" = 0;
"4" = 0;
"5" = 0;
"6" = 0;
"7" = 0;
"8" = 0;
"9" = 0;
};
};
width = 569;
},
{
anchors = (
{
name = bottom;
pos = (230,0);
},
{
name = center;
pos = (289,276);
},
{
name = ogonek;
pos = (463,10);
},
{
name = top;
pos = (348,552);
},
{
name = topright;
pos = (616,552);
}
);
layerId = "66114D67-63CC-4821-8086-0090D571F0A1";
shapes = (
{
closed = 1;
nodes = (
(397,-15,o),
(510,97,o),
(547.106,271.091,cs),
(584.376,446.432,o),
(515,575,o),
(343,575,cs),
(184,575,o),
(70,466,o),
(32.216,290.424,cs),
(-4.739,116.568,o),
(65,-15,o),
(237,-15,c)
);
},
{
closed = 1;
nodes = (
(175.74,100,o),
(141.493,160,o),
(166.957,280.757,cs),
(192.507,400,o),
(246.26,460,o),
(328.279,460.087,cs),
(408.26,460,o),
(437.719,401,o),
(412.365,280.757,cs),
(386.706,161,o),
(332.74,100,o),
(251.804,100.301,c)
);
}
);
userData = {
com.hugojourdan.ColorFlow = {
"0" = 0;
"1" = 0;
"10" = 0;
"11" = 0;
"2" = 0;
"3" = 0;
"4" = 0;
"5" = 0;
"6" = 0;
"7" = 0;
"8" = 0;
"9" = 0;
};
};
width = 579;
}
);
metricRight = "=|";
unicode = 111;
userData = {
KernOnName = o;
};
},
{
color = 0;
glyphname = oslash;
kernLeft = KO_oslash;
kernRight = KO_oslash;
lastChange = "2025-02-06 07:51:02 +0000";
layers = (
{
background = {
shapes = (
{
attr = {
strokeHeight = 65;
strokeWidth = 65;
};
closed = 1;
nodes = (
(484,538,l),
(24,18,l)
);
},
{
pos = (-29,0);
ref = o;
}
);
};
layerId = "73572E25-487C-487F-975F-150A505979A5";
shapes = (
{
closed = 1;
nodes = (
(590.651,516,l),
(552.004,560,l),
(-18.526,40,l),
(20.122,-4,l)
);
},
{
ref = o;
},
{
closed = 1;
nodes = (
(590.651,516,l),
(552.004,560,l),
(-18.526,40,l),
(20.122,-4,l)
);
}
);
userData = {
com.hugojourdan.ColorFlow = {
"0" = 0;
"1" = 0;
"10" = 0;
"11" = 0;
"2" = 0;
"3" = 0;
"4" = 0;
"5" = 0;
"6" = 0;
"7" = 0;
"8" = 0;
"9" = 0;
};
};
width = 482;
},
{
layerId = "66114D67-63CC-4821-8086-0090D571F0A1";
shapes = (
{
closed = 1;
nodes = (
(606.542,505.359,l),
(544.385,574.136,l),
(-25.877,55.398,l),
(36.281,-13.379,l)
);
},
{
ref = o;
},
{
closed = 1;
nodes = (
(606.542,505.359,l),
(544.385,574.136,l),
(-25.877,55.398,l),
(36.281,-13.379,l)
);
}
);
userData = {
com.hugojourdan.ColorFlow = {
"0" = 0;
"1" = 0;
"10" = 0;
"11" = 0;
"2" = 0;
"3" = 0;
"4" = 0;
"5" = 0;
"6" = 0;
"7" = 0;
"8" = 0;
"9" = 0;
};
};
width = 579;
}
);
unicode = 248;
},
{
color = 0;
glyphname = oe;
kernLeft = KO_e;
kernRight = KO_e;
lastChange = "2025-02-06 07:51:02 +0000";
layers = (
{
anchors = (
{
name = bottom;
pos = (424,0);
},
{
name = top;
pos = (540,546);
}
);
background = {
shapes = (
{
ref = o;
},
{
alignment = -1;
pos = (415,0);
ref = e;
}
);
};
layerId = "73572E25-487C-487F-975F-150A505979A5";
shapes = (
{
closed = 1;
nodes = (
(377.771,-15,o),
(483.644,97.256,o),
(521,273,cs),
(558.41,449,o),
(492.238,561,o),
(346.216,561,cs),
(193.081,561,o),
(81.116,454.911,o),
(45,285,cs),
(6.347,103.153,o),
(79.032,-15,o),
(225.784,-15,c)
);
},
{
closed = 1;
nodes = (
(126.537,45,o),
(83.092,137,o),
(112,273,cs),
(140.908,409,o),
(217.463,501,o),
(333.463,501,cs),
(449.463,501,o),
(485.908,409,o),
(457,273,cs),
(428.092,137,o),
(352.537,45,o),
(236.537,45,c)
);
},
{
closed = 1;
nodes = (
(723.784,-15,o),
(823.523,12,o),
(890.281,152,c),
(834.256,169,l),
(795.764,79.843,o),
(723.537,45,o),
(651.537,45,cs),
(525.537,45,o),
(493.691,121,o),
(528.551,285,cs),
(561.71,441,o),
(640.463,501,o),
(744.463,501,cs),
(849.463,501,o),
(886.859,437,o),
(865.816,338,cs),
(864.541,332,o),
(862.84,324,o),
(860.565,318,c),
(878.415,322,l),
(516.415,322,l),
(503.662,262,l),
(918.662,262,l),
(925.039,292,ls),
(962.874,470,o),
(894.024,561,o),
(757.216,561,cs),
(609.101,561,o),
(500.569,449.749,o),
(464.488,280,cs),
(426.653,102,o),
(479.784,-15,o),
(639.784,-15,cs)
);
}
);
userData = {
com.hugojourdan.ColorFlow = {
"0" = 0;
"1" = 0;
"10" = 0;
"11" = 0;
"2" = 0;
"3" = 0;
"4" = 0;
"5" = 0;
"6" = 0;
"7" = 0;
"8" = 0;
"9" = 0;
};
};
width = 963;
},
{
anchors = (
{
name = bottom;
pos = (409,0);
},
{
name = top;
pos = (529,560);
}
);
layerId = "66114D67-63CC-4821-8086-0090D571F0A1";
shapes = (
{
closed = 1;
nodes = (
(406,-15,o),
(501,107,o),
(538,281,cs),
(575,456,o),
(518,575,o),
(334,575,cs),
(180,575,o),
(70,465,o),
(33,292,cs),
(-4,116,o),
(69,-15,o),
(248,-15,c)
);
},
{
closed = 1;
nodes = (
(177,100,o),
(142,160,o),
(168,281,cs),
(194,400,o),
(247,460,o),
(329,460,cs),
(409,460,o),
(439,401,o),
(413,281,cs),
(388,161,o),
(334,100,o),
(253,100,c)
);
},
{
closed = 1;
nodes = (
(709,-14,o),
(816,16,o),
(874,156,c),
(759,190,l),
(730,119,o),
(686,97,o),
(630,97,cs),
(544,97,o),
(524,156,o),
(553,293,cs),
(580,421,o),
(632,464,o),
(701,464,cs),
(769,464,o),
(793,419,o),
(778,354,cs),
(777,345,o),
(774,334,o),
(771,326,c),
(798,342,l),
(503,342,l),
(483,251,l),
(900,251,l),
(909,295,ls),
(949,484,o),
(860,575,o),
(720,575,cs),
(563,575,o),
(464,464,o),
(427,287,cs),
(388,106,o),
(447,-14,o),
(625,-14,cs)
);
}
);
userData = {
com.hugojourdan.ColorFlow = {
"0" = 0;
"1" = 0;
"10" = 0;
"11" = 0;
"2" = 0;
"3" = 0;
"4" = 0;
"5" = 0;
"6" = 0;
"7" = 0;
"8" = 0;
"9" = 0;
};
};
width = 935;
}
);
metricLeft = o;
metricRight = e;
unicode = 339;
},
{
glyphname = p;
kernLeft = KO_r;
kernRight = KO_o;
layers = (
{
anchors = (
{
name = bottom;
pos = (236,0);
},
{
name = top;
pos = (352,546);
}
);
layerId = "73572E25-487C-487F-975F-150A505979A5";
shapes = (
{
closed = 1;
nodes = (
(387.577,-15,o),
(510.043,74.756,o),
(550.056,263,cs),
(592.881,464.478,o),
(500.162,561,o),
(369.272,561,cs),
(277.385,561,o),
(180.481,494,o),
(145.862,385,c),
(73.056,273,l),
(98.25,161,l),
(88.081,52,o),
(165.151,-15,o),
(266.84,-15,cs)
);
},
{
closed = 1;
nodes = (
(35.328,-215,l),
(116.1,165,l),
(162.225,382,l),
(197.296,547,l),
(130.296,547,l),
(-31.672,-215,l)
);
},
{
closed = 1;
nodes = (
(150.446,45,o),
(113.728,149.728,o),
(142.056,283,cs),
(168.111,405.579,o),
(246.531,501,o),
(353.519,501,cs),
(466.519,501,o),
(512.877,418,o),
(482.056,273,cs),
(451.235,128,o),
(369.593,45,o),
(256.593,45,cs)
);
}
);
userData = {
com.hugojourdan.ColorFlow = {
"0" = 0;
"1" = 0;
"10" = 0;
"11" = 0;
"2" = 0;
"3" = 0;
"4" = 0;
"5" = 0;
"6" = 0;
"7" = 0;
"8" = 0;
"9" = 0;
};
};
width = 592;
},
{
anchors = (
{
name = bottom;
pos = (246,0);
},
{
name = top;
pos = (366,560);
}
);
layerId = "66114D67-63CC-4821-8086-0090D571F0A1";
shapes = (
{
closed = 1;
nodes = (
(418,-15,o),
(541,84,o),
(584,281,cs),
(625,478,o),
(543,575,o),
(417,575,cs),
(322,575,o),
(237,512,o),
(208,402,c),
(129,281,l),
(157,159,l),
(139,49,o),
(196,-15,o),
(291,-15,cs)
);
},
{
closed = 1;
nodes = (
(90,-215,l),
(171,169,l),
(219,392,l),
(255,560,l),
(120,560,l),
(-45,-215,l)
);
},
{
closed = 1;
nodes = (
(195,103,o),
(174,178,o),
(196,281,cs),
(218,384,o),
(272,458,o),
(354,458,cs),
(440,458,o),
(470,390,o),
(447,281,cs),
(424,170,o),
(363,103,o),
(279,103,cs)
);
}
);
userData = {
com.hugojourdan.ColorFlow = {
"0" = 0;
"1" = 0;
"10" = 0;
"11" = 0;
"2" = 0;
"3" = 0;
"4" = 0;
"5" = 0;
"6" = 0;
"7" = 0;
"8" = 0;
"9" = 0;
};
};
width = 613;
}
);
metricLeft = l;
metricRight = o;
unicode = 112;
},
{
color = 0;
glyphname = thorn;
kernLeft = KO_i;
kernRight = KO_o;
lastChange = "2025-02-06 07:51:02 +0000";
layers = (
{
anchors = (
{
name = bottom;
pos = (-91,0);
},
{
name = top;
pos = (25,546);
}
);
layerId = "73572E25-487C-487F-975F-150A505979A5";
shapes = (
{
closed = 1;
nodes = (
(387.577,-15,o),
(510.043,74.756,o),
(550.056,263,cs),
(592.881,464.478,o),
(500.162,561,o),
(369.272,561,cs),
(277.385,561,o),
(180.481,494,o),
(145.862,385,c),
(73.056,273,l),
(98.25,161,l),
(88.081,52,o),
(165.151,-15,o),
(266.84,-15,cs)
);
},
{
closed = 1;
nodes = (
(35.272,-215,l),
(116.044,165,l),
(162.169,382,l),
(242.515,760,l),
(175.515,760,l),
(-31.728,-215,l)
);
},
{
closed = 1;
nodes = (
(150.446,45,o),
(113.728,149.728,o),
(142.056,283,cs),
(168.111,405.579,o),
(246.531,501,o),
(353.519,501,cs),
(466.519,501,o),
(512.877,418,o),
(482.056,273,cs),
(451.235,128,o),
(369.593,45,o),
(256.593,45,cs)
);
}
);
userData = {
com.hugojourdan.ColorFlow = {
"0" = 0;
"1" = 0;
"10" = 0;
"11" = 0;
"2" = 0;
"3" = 0;
"4" = 0;
"5" = 0;
"6" = 0;
"7" = 0;
"8" = 0;
"9" = 0;
};
};
width = 592;
},
{
anchors = (
{
name = bottom;
pos = (134,0);
},
{
name = top;
pos = (254,560);
}
);
layerId = "66114D67-63CC-4821-8086-0090D571F0A1";
shapes = (
{
closed = 1;
nodes = (
(418,-15,o),
(541,84,o),
(584,281,cs),
(625,478,o),
(543,575,o),
(417,575,cs),
(322,575,o),
(237,512,o),
(208,402,c),
(129,281,l),
(157,159,l),
(139,49,o),
(196,-15,o),
(291,-15,cs)
);
},
{
closed = 1;
nodes = (
(90,-215,l),
(172,169,l),
(219,392,l),
(297,760,l),
(163,760,l),
(-45,-215,l)
);
},
{
closed = 1;
nodes = (
(195,103,o),
(174,178,o),
(196,281,cs),
(218,384,o),
(272,458,o),
(354,458,cs),
(440,458,o),
(470,390,o),
(447,281,cs),
(424,170,o),
(363,103,o),
(279,103,cs)
);
}
);
userData = {
com.hugojourdan.ColorFlow = {
"0" = 0;
"1" = 0;
"10" = 0;
"11" = 0;
"2" = 0;
"3" = 0;
"4" = 0;
"5" = 0;
"6" = 0;
"7" = 0;
"8" = 0;
"9" = 0;
};
};
width = 612;
}
);
metricLeft = p;
metricRight = p;
unicode = 254;
},
{
glyphname = q;
kernLeft = KO_d;
kernRight = KO_g;
layers = (
{
anchors = (
{
name = bottom;
pos = (243,0);
},
{
name = top;
pos = (359,546);
}
);
background = {
shapes = (
{
closed = 1;
nodes = (
(366,-15,o),
(449,52,o),
(461,161,c),
(510,273,l),
(461,385,l),
(449,494,o),
(366,561,o),
(275,561,cs),
(155,561,o),
(58,468,o),
(58,273,cs),
(58,78,o),
(155,-15,o),
(275,-15,cs)
);
},
{
closed = 1;
nodes = (
(182,45,o),
(126,128,o),
(126,273,cs),
(126,418,o),
(182,501,o),
(288,501,cs),
(389,501,o),
(443,401,o),
(443,273,cs),
(443,145,o),
(389,45,o),
(288,45,cs)
);
},
{
closed = 1;
nodes = (
(510,-220,l),
(510,547,l),
(443,547,l),
(443,382,l),
(443,165,l),
(443,-220,l)
);
}
);
};
layerId = "73572E25-487C-487F-975F-150A505979A5";
shapes = (
{
closed = 1;
nodes = (
(305,-15,o),
(403,52,o),
(438,161,c),
(511,273,l),
(486,385,l),
(496,494,o),
(419,561,o),
(317,561,cs),
(197,561,o),
(77,475,o),
(38,293,cs),
(-6,85,o),
(83,-15,o),
(212,-15,cs)
);
},
{
closed = 1;
nodes = (
(118,45,o),
(71,128,o),
(104,283,cs),
(133,418,o),
(214,501,o),
(327,501,cs),
(435,501,o),
(471,401,o),
(440,254,cs),
(417,145,o),
(339,45,o),
(231,45,cs)
);
},
{
closed = 1;
nodes = (
(408,-215,l),
(570,547,l),
(503,547,l),
(468,382,l),
(422,165,l),
(341,-215,l)
);
}
);
userData = {
com.hugojourdan.ColorFlow = {
"0" = 0;
"1" = 0;
"10" = 0;
"11" = 0;
"2" = 0;
"3" = 0;
"4" = 0;
"5" = 0;
"6" = 0;
"7" = 0;
"8" = 0;
"9" = 0;
};
};
width = 588;
},
{
anchors = (
{
name = bottom;
pos = (262,0);
},
{
name = top;
pos = (382,560);
}
);
layerId = "66114D67-63CC-4821-8086-0090D571F0A1";
shapes = (
{
closed = 1;
nodes = (
(293.146,-15,o),
(374.827,50.019,o),
(401.008,158.504,c),
(481.207,279.388,l),
(452.583,401.145,l),
(470.853,508.019,o),
(410.358,574.019,o),
(308.939,574.019,cs),
(185.498,574.019,o),
(70.221,486.304,o),
(28.624,288.963,cs),
(-14.817,82.877,o),
(69.551,-14.962,o),
(193.448,-14.983,cs)
);
},
{
closed = 1;
nodes = (
(171.555,102.019,o),
(139.796,169.019,o),
(162.916,279.388,cs),
(186.559,389.019,o),
(246.013,457.019,o),
(331.224,457.466,cs),
(414.013,457.019,o),
(436.283,383.019,o),
(414.207,279.388,cs),
(392.497,177.019,o),
(339.555,102.019,o),
(255.707,102.184,cs)
);
},
{
closed = 1;
nodes = (
(446.435,-215,l),
(611.222,560.262,l),
(476.659,560.262,l),
(440.869,391.883,l),
(393.574,169.379,l),
(311.872,-215,l)
);
}
);
userData = {
com.hugojourdan.ColorFlow = {
"0" = 0;
"1" = 0;
"10" = 0;
"11" = 0;
"2" = 0;
"3" = 0;
"4" = 0;
"5" = 0;
"6" = 0;
"7" = 0;
"8" = 0;
"9" = 0;
};
};
width = 610;
}
);
metricLeft = d;
metricRight = d;
unicode = 113;
},
{
glyphname = r;
kernLeft = KO_r;
kernRight = KO_r;
layers = (
{
anchors = (
{
name = bottom;
pos = (111,0);
},
{
name = top;
pos = (227,546);
}
);
layerId = "73572E25-487C-487F-975F-150A505979A5";
shapes = (
{
attr = {
identifier = ID0x7f82b2a65eb0;
};
closed = 1;
nodes = (
(81.972,0,l),
(198.028,546,l),
(130.028,546,l),
(13.972,0,l)
);
},
{
attr = {
identifier = ID0x7f82b2a65eb0;
};
closed = 1;
nodes = (
(176.985,447,o),
(215.637,483,o),
(311.637,483,cs),
(358.637,483,l),
(372.453,548,l),
(325.453,548,ls),
(236.453,548,o),
(183.951,508,o),
(159.396,416,c),
(155.517,346,l)
);
}
);
userData = {
com.hugojourdan.ColorFlow = {
"0" = 0;
"1" = 0;
"10" = 0;
"11" = 0;
"2" = 0;
"3" = 0;
"4" = 0;
"5" = 0;
"6" = 0;
"7" = 0;
"8" = 0;
"9" = 0;
};
};
width = 344;
},
{
anchors = (
{
name = bottom;
pos = (139,0);
},
{
name = top;
pos = (259,560);
}
);
layerId = "66114D67-63CC-4821-8086-0090D571F0A1";
shapes = (
{
attr = {
identifier = ID0x7f82b2a65eb0;
};
closed = 1;
nodes = (
(137,0,l),
(256,560,l),
(120,560,l),
(1,0,l)
);
},
{
attr = {
identifier = ID0x7f82b2a65eb0;
};
closed = 1;
nodes = (
(220,392,o),
(259,432,o),
(345,432,cs),
(407,432,l),
(434,563,l),
(384,563,ls),
(301,563,o),
(253,522,o),
(225,436,c),
(196,279,l)
);
}
);
userData = {
com.hugojourdan.ColorFlow = {
"0" = 0;
"1" = 0;
"10" = 0;
"11" = 0;
"2" = 0;
"3" = 0;
"4" = 0;
"5" = 0;
"6" = 0;
"7" = 0;
"8" = 0;
"9" = 0;
};
};
width = 393;
}
);
metricLeft = n;
unicode = 114;
userData = {
KernOnName = r;
};
},
{
glyphname = s;
kernLeft = KO_s;
kernRight = KO_s;
lastChange = "2025-02-06 07:51:02 +0000";
layers = (
{
anchors = (
{
name = bottom;
pos = (179,0);
},
{
name = top;
pos = (295,546);
}
);
layerId = "73572E25-487C-487F-975F-150A505979A5";
shapes = (
{
attr = {
identifier = ID0x7faff9e44910;
};
closed = 1;
nodes = (
(317,-15,o),
(397,34,o),
(416,122,cs),
(436,217,o),
(376,278,o),
(266.077,308,cs),
(173.612,332.98,o),
(149.006,372.415,o),
(161.061,429.13,cs),
(171,475,o),
(220,501,o),
(278,501,cs),
(348,501,o),
(400.362,477.491,o),
(399.082,393,c),
(463.908,409,l),
(466.501,520,o),
(393,561,o),
(286,561,cs),
(187,561,o),
(111,511,o),
(94,435,cs),
(77,351,o),
(118,284,o),
(216.961,257,cs),
(324.651,227.859,o),
(363.893,191.929,o),
(349.667,125,cs),
(339.73,78.251,o),
(278,45,o),
(203,45,cs),
(124,45,o),
(69,86,o),
(72.343,152,c),
(6.73,140,l),
(6,41,o),
(76,-15,o),
(205,-15,cs)
);
}
);
userData = {
com.hugojourdan.ColorFlow = {
"0" = 0;
"1" = 0;
"10" = 0;
"11" = 0;
"2" = 0;
"3" = 0;
"4" = 0;
"5" = 0;
"6" = 0;
"7" = 0;
"8" = 0;
"9" = 0;
};
};
width = 481;
},
{
anchors = (
{
name = bottom;
pos = (185,0);
},
{
name = top;
pos = (305,560);
}
);
layerId = "66114D67-63CC-4821-8086-0090D571F0A1";
shapes = (
{
attr = {
identifier = ID0x7faff9e44910;
};
closed = 1;
nodes = (
(339.437,-15,o),
(427.701,47.436,o),
(450.848,155.641,cs),
(472.363,257.614,o),
(420.096,318.561,o),
(292.715,344.903,cs),
(215.425,360.514,o),
(195.049,383.633,o),
(203.092,423.126,cs),
(210.41,456,o),
(246,475,o),
(289,475,cs),
(340,475,o),
(370.835,458,o),
(374.489,397.631,c),
(502.167,431.155,l),
(492.168,530.937,o),
(421.04,574.979,o),
(301.175,574.997,cs),
(175.093,575.015,o),
(82.986,510.95,o),
(62.98,415.243,cs),
(42.903,322.524,o),
(93.678,254.249,o),
(214.037,232.612,cs),
(300.219,217.336,o),
(321.858,194.605,o),
(311.63,147.262,cs),
(304.503,113,o),
(263,85,o),
(214,85,cs),
(156,85,o),
(119.865,110,o),
(121.836,171.388,c),
(-6.738,146.621,l),
(-4.267,41.496,o),
(73.905,-15,o),
(202.179,-15,cs)
);
}
);
userData = {
com.hugojourdan.ColorFlow = {
"0" = 0;
"1" = 0;
"10" = 0;
"11" = 0;
"2" = 0;
"3" = 0;
"4" = 0;
"5" = 0;
"6" = 0;
"7" = 0;
"8" = 0;
"9" = 0;
};
};
width = 494;
}
);
metricRight = "=|";
unicode = 115;
},
{
color = 0;
glyphname = germandbls;
kernRight = KO_germandbls;
lastChange = "2025-02-06 07:51:02 +0000";
layers = (
{
layerId = "73572E25-487C-487F-975F-150A505979A5";
shapes = (
{
attr = {
identifier = ID0x159985ed0;
};
closed = 1;
nodes = (
(457.383,-4,o),
(539.293,100.309,o),
(559.604,195.865,cs),
(590.029,339,o),
(521.462,421.189,o),
(425.883,423,c),
(431.608,417,l),
(505.159,428.923,o),
(563.868,492.472,o),
(581.556,571.725,cs),
(608.529,692.579,o),
(539.976,775,o),
(407.703,775,cs),
(287.433,775,o),
(182.755,709.38,o),
(147.695,544.432,cs),
(31.972,0,l),
(99.972,0,l),
(214.327,538,ls),
(241.96,668,o),
(317.95,715,o),
(405.95,715,cs),
(491.95,715,o),
(532.747,657,o),
(514.062,574.235,cs),
(496.4,496,o),
(442.985,447,o),
(353.985,447,cs),
(308.985,447,l),
(296.231,387,l),
(336.231,387,ls),
(464.231,387,o),
(520.966,334,o),
(495.247,213,cs),
(477.604,130,o),
(419.875,56,o),
(306.875,56,cs),
(265.875,56,o),
(228.151,62,o),
(180.952,94,c),
(166.286,25,l),
(211.86,3,o),
(259.97,-4,o),
(302.122,-4,cs)
);
}
);
userData = {
com.hugojourdan.ColorFlow = {
"0" = 0;
"1" = 0;
"10" = 0;
"11" = 0;
"2" = 0;
"3" = 0;
"4" = 0;
"5" = 0;
"6" = 0;
"7" = 0;
"8" = 0;
"9" = 0;
};
};
width = 621;
},
{
layerId = "66114D67-63CC-4821-8086-0090D571F0A1";
shapes = (
{
attr = {
identifier = ID0x159985ed0;
};
closed = 1;
nodes = (
(459.716,-2.995,o),
(553.014,75.183,o),
(577.064,194.258,cs),
(601.652,316,o),
(547.628,391.552,o),
(467.076,404.369,c),
(461.896,398.864,l),
(542.12,415.881,o),
(596.108,472.906,o),
(612.776,552.907,cs),
(639.937,683.27,o),
(554.902,775,o),
(413.847,775,cs),
(268.706,775,o),
(157.457,718.632,o),
(116.851,527.592,cs),
(4.707,0,l),
(141.018,0,l),
(253.987,531.476,ls),
(272.632,617,o),
(319.771,660,o),
(393.681,659.573,cs),
(455.771,660,o),
(489.332,625,o),
(475.666,559.107,cs),
(461.487,494,o),
(425.41,456,o),
(352.783,456.019,cs),
(306.531,456.019,l),
(282.157,341.35,l),
(342.632,341.35,ls),
(429.966,341,o),
(462.464,301,o),
(444.824,220.019,cs),
(431.856,157,o),
(385.078,111,o),
(313.159,111.427,cs),
(275.078,111,o),
(238.629,123,o),
(216.898,138.291,c),
(191.621,19.369,l),
(223.132,5,o),
(260.497,-2.83,o),
(313.504,-2.874,cs)
);
}
);
userData = {
com.hugojourdan.ColorFlow = {
"0" = 0;
"1" = 0;
"10" = 0;
"11" = 0;
"2" = 0;
"3" = 0;
"4" = 0;
"5" = 0;
"6" = 0;
"7" = 0;
"8" = 0;
"9" = 0;
};
};
width = 626;
}
);
metricLeft = H;
metricRight = B;
unicode = 223;
},
{
glyphname = t;
kernLeft = KO_t;
kernRight = KO_t;
lastChange = "2025-02-06 07:51:02 +0000";
layers = (
{
anchors = (
{
name = bottom;
pos = (141,0);
},
{
name = center;
pos = (199,273);
},
{
name = top;
pos = (288,692);
},
{
name = topright;
pos = (478,772);
}
);
layerId = "73572E25-487C-487F-975F-150A505979A5";
shapes = (
{
closed = 1;
nodes = (
(280.972,0,l),
(293.725,60,l),
(210.725,60,ls),
(169.725,60,o),
(156.276,72,o),
(164.991,113,cs),
(288.061,692,l),
(221.061,692,l),
(99.479,120,ls),
(79.924,28,o),
(104.972,0,o),
(193.972,0,cs)
);
},
{
closed = 1;
nodes = (
(384.275,486,l),
(397.028,546,l),
(85.028,546,l),
(72.275,486,l)
);
}
);
userData = {
com.hugojourdan.ColorFlow = {
"0" = 0;
"1" = 0;
"10" = 0;
"11" = 0;
"2" = 0;
"3" = 0;
"4" = 0;
"5" = 0;
"6" = 0;
"7" = 0;
"8" = 0;
"9" = 0;
};
};
width = 391;
},
{
anchors = (
{
name = bottom;
pos = (144,0);
},
{
name = center;
pos = (204,281);
},
{
name = top;
pos = (294,704);
},
{
name = topright;
pos = (491,772);
}
);
layerId = "66114D67-63CC-4821-8086-0090D571F0A1";
shapes = (
{
closed = 1;
nodes = (
(307.387,0,l),
(331.841,115.049,l),
(258.977,115.049,ls),
(224.928,115,o),
(212.904,129,o),
(220.901,168.175,cs),
(334.85,704.262,l),
(200.286,704.262,l),
(83.411,154.408,ls),
(59.412,42,o),
(83.484,0,o),
(209.115,0,cs)
);
},
{
closed = 1;
nodes = (
(402.047,445.34,l),
(426.501,560.388,l),
(81.346,560.388,l),
(56.892,445.34,l)
);
}
);
userData = {
com.hugojourdan.ColorFlow = {
"0" = 0;
"1" = 0;
"10" = 0;
"11" = 0;
"2" = 0;
"3" = 0;
"4" = 0;
"5" = 0;
"6" = 0;
"7" = 0;
"8" = 0;
"9" = 0;
};
};
width = 407;
}
);
unicode = 116;
userData = {
KernOnName = t;
};
},
{
glyphname = u;
kernLeft = KO_u;
kernRight = KO_u;
layers = (
{
anchors = (
{
name = bottom;
pos = (216,0);
},
{
name = ogonek;
pos = (341,10);
},
{
name = top;
pos = (332,546);
},
{
name = topright;
pos = (581,546);
}
);
layerId = "73572E25-487C-487F-975F-150A505979A5";
shapes = (
{
closed = 1;
nodes = (
(347.666,-15,o),
(444.598,59.399,o),
(480.435,228,cs),
(548.028,546,l),
(480.028,546,l),
(410.522,219,ls),
(383.799,93.276,o),
(315.942,45,o),
(235.537,45,cs),
(143.385,45,o),
(85.74,93,o),
(112.522,219,cs),
(182.028,546,l),
(115.028,546,l),
(47.435,228,ls),
(11.513,59,o),
(90.244,-15,o),
(227.784,-15,cs)
);
}
);
userData = {
com.hugojourdan.ColorFlow = {
"0" = 0;
"1" = 0;
"10" = 0;
"11" = 0;
"2" = 0;
"3" = 0;
"4" = 0;
"5" = 0;
"6" = 0;
"7" = 0;
"8" = 0;
"9" = 0;
};
};
width = 547;
},
{
anchors = (
{
name = bottom;
pos = (216,0);
},
{
name = ogonek;
pos = (351,10);
},
{
name = top;
pos = (336,560);
},
{
name = topright;
pos = (594,560);
}
);
layerId = "66114D67-63CC-4821-8086-0090D571F0A1";
shapes = (
{
closed = 1;
nodes = (
(377.51,-15,o),
(468.717,62.257,o),
(505.702,236.757,cs),
(574.492,560.388,l),
(439.055,560.388,l),
(366.251,217.874,ls),
(349.03,139,o),
(298.74,100,o),
(237.957,100.427,cs),
(177.74,100,o),
(140.604,137,o),
(157.717,217.874,cs),
(230.521,560.388,l),
(95.958,560.388,l),
(27.168,236.757,ls),
(-9.912,64,o),
(74.932,-15,o),
(225.422,-15,cs)
);
}
);
userData = {
com.hugojourdan.ColorFlow = {
"0" = 0;
"1" = 0;
"10" = 0;
"11" = 0;
"2" = 0;
"3" = 0;
"4" = 0;
"5" = 0;
"6" = 0;
"7" = 0;
"8" = 0;
"9" = 0;
};
};
width = 551;
}
);
metricRight = "=|";
unicode = 117;
userData = {
KernOnName = u;
};
},
{
glyphname = v;
kernLeft = KO_y;
kernRight = KO_y;
layers = (
{
anchors = (
{
name = bottom;
pos = (193,0);
},
{
name = top;
pos = (309,546);
}
);
layerId = "73572E25-487C-487F-975F-150A505979A5";
shapes = (
{
closed = 1;
nodes = (
(229.972,0,l),
(539.028,546,l),
(461.028,546,l),
(201.827,80,l),
(208.827,80,l),
(147.028,546,l),
(78.028,546,l),
(157.972,0,l)
);
}
);
userData = {
com.hugojourdan.ColorFlow = {
"0" = 0;
"1" = 0;
"10" = 0;
"11" = 0;
"2" = 0;
"3" = 0;
"4" = 0;
"5" = 0;
"6" = 0;
"7" = 0;
"8" = 0;
"9" = 0;
};
};
width = 501;
},
{
anchors = (
{
name = bottom;
pos = (233,0);
},
{
name = top;
pos = (353,560);
}
);
layerId = "66114D67-63CC-4821-8086-0090D571F0A1";
shapes = (
{
closed = 1;
nodes = (
(320.29,0,l),
(619.142,560.388,l),
(473.579,560.388,l),
(233.791,86.126,l),
(265.063,86.126,l),
(225.763,560.388,l),
(86.2,560.388,l),
(148.824,0,l)
);
}
);
userData = {
com.hugojourdan.ColorFlow = {
"0" = 0;
"1" = 0;
"10" = 0;
"11" = 0;
"2" = 0;
"3" = 0;
"4" = 0;
"5" = 0;
"6" = 0;
"7" = 0;
"8" = 0;
"9" = 0;
};
};
width = 587;
}
);
metricRight = "=|";
unicode = 118;
userData = {
KernOnName = v;
};
},
{
glyphname = w;
kernLeft = KO_w;
kernRight = KO_w;
layers = (
{
anchors = (
{
name = bottom;
pos = (270,0);
},
{
name = top;
pos = (386,546);
}
);
layerId = "73572E25-487C-487F-975F-150A505979A5";
shapes = (
{
closed = 1;
nodes = (
(156.972,0,l),
(386.598,464,l),
(360.598,464,l),
(401.972,0,l),
(470.972,0,l),
(694.028,546,l),
(626.028,546,l),
(448.315,91,l),
(450.315,91,l),
(416.028,546,l),
(361.028,546,l),
(129.315,91,l),
(138.315,91,l),
(146.028,546,l),
(78.028,546,l),
(77.972,0,l)
);
}
);
userData = {
com.hugojourdan.ColorFlow = {
"0" = 0;
"1" = 0;
"10" = 0;
"11" = 0;
"2" = 0;
"3" = 0;
"4" = 0;
"5" = 0;
"6" = 0;
"7" = 0;
"8" = 0;
"9" = 0;
};
};
width = 656;
},
{
anchors = (
{
name = bottom;
pos = (329,0);
},
{
name = top;
pos = (449,560);
}
);
layerId = "66114D67-63CC-4821-8086-0090D571F0A1";
shapes = (
{
closed = 1;
nodes = (
(248.795,0,l),
(457.91,462.874,l),
(405.386,462.874,l),
(419.727,0,l),
(578.057,0,l),
(809.676,560.388,l),
(674.365,560.388,l),
(496.298,93.126,l),
(524.949,93.126,l),
(516.161,560.388,l),
(382.589,560.388,l),
(166.162,93.126,l),
(196.182,93.126,l),
(215.385,560.388,l),
(86.2,560.388,l),
(78.707,0,l)
);
}
);
userData = {
com.hugojourdan.ColorFlow = {
"0" = 0;
"1" = 0;
"10" = 0;
"11" = 0;
"2" = 0;
"3" = 0;
"4" = 0;
"5" = 0;
"6" = 0;
"7" = 0;
"8" = 0;
"9" = 0;
};
};
width = 777;
}
);
metricLeft = v;
metricRight = v;
unicode = 119;
userData = {
KernOnName = w;
};
},
{
glyphname = x;
kernLeft = KO_x;
kernRight = KO_x;
layers = (
{
anchors = (
{
name = bottom;
pos = (211,0);
},
{
name = top;
pos = (327,546);
}
);
layerId = "73572E25-487C-487F-975F-150A505979A5";
shapes = (
{
closed = 1;
nodes = (
(68.972,0,l),
(272.048,245,l),
(262.048,245,l),
(364.972,0,l),
(440.972,0,l),
(309.826,291,l),
(307.913,282,l),
(537.028,546,l),
(452.028,546,l),
(273.328,331,l),
(280.328,331,l),
(184.028,546,l),
(109.028,546,l),
(233.488,280,l),
(236.676,295,l),
(-16.028,0,l)
);
}
);
userData = {
com.hugojourdan.ColorFlow = {
"0" = 0;
"1" = 0;
"10" = 0;
"11" = 0;
"2" = 0;
"3" = 0;
"4" = 0;
"5" = 0;
"6" = 0;
"7" = 0;
"8" = 0;
"9" = 0;
};
};
width = 541;
},
{
anchors = (
{
name = bottom;
pos = (228,0);
},
{
name = top;
pos = (348,560);
}
);
layerId = "66114D67-63CC-4821-8086-0090D571F0A1";
shapes = (
{
closed = 1;
nodes = (
(130.29,0,l),
(313.716,256.146,l),
(267.056,256.146,l),
(336.707,0,l),
(488.028,0,l),
(379.357,320.777,l),
(373.364,261.981,l),
(604.783,560.388,l),
(443.462,560.388,l),
(279.299,325.485,l),
(311.824,325.485,l),
(238.395,560.388,l),
(87.074,560.388,l),
(200.477,261.233,l),
(220.091,327.019,l),
(-31.03,0,l)
);
}
);
userData = {
com.hugojourdan.ColorFlow = {
"0" = 0;
"1" = 0;
"10" = 0;
"11" = 0;
"2" = 0;
"3" = 0;
"4" = 0;
"5" = 0;
"6" = 0;
"7" = 0;
"8" = 0;
"9" = 0;
};
};
width = 575;
}
);
metricRight = "=|";
unicode = 120;
userData = {
KernOnName = x;
};
},
{
glyphname = y;
kernLeft = KO_y;
kernRight = KO_y;
layers = (
{
anchors = (
{
name = bottom;
pos = (193,0);
},
{
name = top;
pos = (309,546);
}
);
layerId = "73572E25-487C-487F-975F-150A505979A5";
shapes = (
{
closed = 1;
nodes = (
(10.272,-215,ls),
(89.272,-215,o),
(136.224,-187,o),
(170.402,-125,cs),
(539.028,546,l),
(463.028,546,l),
(119.055,-89,ls),
(94.064,-136,o),
(74.026,-155,o),
(26.026,-155,cs),
(-46.974,-155,l),
(-59.728,-215,l)
);
},
{
closed = 1;
nodes = (
(195.972,0,l),
(226.102,90,l),
(149.028,546,l),
(78.028,546,l),
(175.972,0,l)
);
}
);
userData = {
com.hugojourdan.ColorFlow = {
"0" = 0;
"1" = 0;
"10" = 0;
"11" = 0;
"2" = 0;
"3" = 0;
"4" = 0;
"5" = 0;
"6" = 0;
"7" = 0;
"8" = 0;
"9" = 0;
};
};
width = 501;
},
{
anchors = (
{
name = bottom;
pos = (233,0);
},
{
name = top;
pos = (353,560);
}
);
layerId = "66114D67-63CC-4821-8086-0090D571F0A1";
shapes = (
{
closed = 1;
nodes = (
(42.678,-215,ls),
(151.785,-215,o),
(196.736,-187,o),
(248.092,-94.981,cs),
(619.142,560.388,l),
(469.579,560.388,l),
(145.248,-40.573,ls),
(121.842,-83,o),
(104.016,-101,o),
(60.621,-100.573,cs),
(-35.534,-100.573,l),
(-59.856,-215,l)
);
},
{
closed = 1;
nodes = (
(269.315,-37.476,l),
(281.595,50.398,l),
(221.763,560.388,l),
(86.2,560.388,l),
(171.499,-37.476,l)
);
}
);
userData = {
com.hugojourdan.ColorFlow = {
"0" = 0;
"1" = 0;
"10" = 0;
"11" = 0;
"2" = 0;
"3" = 0;
"4" = 0;
"5" = 0;
"6" = 0;
"7" = 0;
"8" = 0;
"9" = 0;
};
};
width = 587;
}
);
metricLeft = v;
metricRight = v;
unicode = 121;
userData = {
KernOnName = y;
};
},
{
glyphname = z;
kernLeft = KO_z;
kernRight = KO_z;
layers = (
{
anchors = (
{
name = bottom;
pos = (181,0);
},
{
name = center;
pos = (239,273);
},
{
name = top;
pos = (297,546);
}
);
layerId = "73572E25-487C-487F-975F-150A505979A5";
shapes = (
{
closed = 1;
nodes = (
(361.972,0,l),
(374.725,60,l),
(35.725,60,l),
(44.561,31,l),
(462.874,470,l),
(479.028,546,l),
(109.028,546,l),
(96.275,486,l),
(417.275,486,l),
(402.188,495,l),
(-2.362,69,l),
(-17.028,0,l)
);
}
);
userData = {
com.hugojourdan.ColorFlow = {
"0" = 0;
"1" = 0;
"10" = 0;
"11" = 0;
"2" = 0;
"3" = 0;
"4" = 0;
"5" = 0;
"6" = 0;
"7" = 0;
"8" = 0;
"9" = 0;
};
};
width = 462;
},
{
anchors = (
{
name = bottom;
pos = (203,0);
},
{
name = center;
pos = (263,281);
},
{
name = top;
pos = (323,560);
}
);
layerId = "66114D67-63CC-4821-8086-0090D571F0A1";
shapes = (
{
closed = 1;
nodes = (
(412.154,0,l),
(436.662,115.301,l),
(95.536,115.301,l),
(93.069,38.126,l),
(504.12,427.961,l),
(532.268,560.388,l),
(115.851,560.388,l),
(91.343,445.087,l),
(414.469,445.087,l),
(410.658,502.136,l),
(13.184,124.427,l),
(-13.263,0,l)
);
}
);
userData = {
com.hugojourdan.ColorFlow = {
"0" = 0;
"1" = 0;
"10" = 0;
"11" = 0;
"2" = 0;
"3" = 0;
"4" = 0;
"5" = 0;
"6" = 0;
"7" = 0;
"8" = 0;
"9" = 0;
};
};
width = 519;
}
);
metricRight = "=|";
unicode = 122;
userData = {
KernOnName = z;
};
},
{
color = 1;
glyphname = jdotless.ss01;
kernLeft = KO_i;
lastChange = "2025-02-06 07:51:02 +0000";
layers = (
{
anchors = (
{
name = bottom;
pos = (4,-200);
},
{
name = top;
pos = (163,546);
}
);
layerId = "73572E25-487C-487F-975F-150A505979A5";
shapes = (
{
closed = 1;
nodes = (
(-80.728,-215,ls),
(7.272,-215,o),
(42.712,-180,o),
(57.166,-112,cs),
(197.028,546,l),
(129.028,546,l),
(-20.824,-159,l),
(-133.824,-159,l),
(-145.728,-215,l)
);
}
);
userData = {
com.hugojourdan.ColorFlow = {
"0" = 0;
"1" = 0;
"10" = 0;
"11" = 0;
"2" = 0;
"3" = 0;
"4" = 0;
"5" = 0;
"6" = 0;
"7" = 0;
"8" = 0;
"9" = 0;
};
};
width = 211;
},
{
anchors = (
{
name = bottom;
pos = (25,-213);
},
{
name = top;
pos = (190,560);
}
);
layerId = "66114D67-63CC-4821-8086-0090D571F0A1";
shapes = (
{
closed = 1;
nodes = (
(-16.555,-215,ls),
(54.785,-215,o),
(102.074,-176,o),
(117.698,-103.864,cs),
(258.89,560.388,l),
(122.579,560.388,l),
(-18.841,-104.942,l),
(-115.317,-104.942,l),
(-138.711,-215,l)
);
}
);
userData = {
com.hugojourdan.ColorFlow = {
"0" = 0;
"1" = 0;
"10" = 0;
"11" = 0;
"2" = 0;
"3" = 0;
"4" = 0;
"5" = 0;
"6" = 0;
"7" = 0;
"8" = 0;
"9" = 0;
};
};
width = 259;
}
);
metricLeft = jdotless;
metricRight = idotless;
},
{
color = 1;
glyphname = l.ss01;
kernLeft = KO_l;
kernRight = KO_l;
layers = (
{
anchors = (
{
name = bottom;
pos = (64,0);
},
{
name = center;
pos = (122,273);
},
{
name = top;
pos = (226,760);
},
{
name = topright;
pos = (325,760);
}
);
layerId = "73572E25-487C-487F-975F-150A505979A5";
shapes = (
{
closed = 1;
nodes = (
(169.972,0,l),
(181.238,53,l),
(93.238,53,l),
(243.515,760,l),
(175.515,760,l),
(38.416,115,ls),
(22.687,41,o),
(54.972,0,o),
(128.972,0,cs)
);
}
);
userData = {
com.hugojourdan.ColorFlow = {
"0" = 0;
"1" = 0;
"10" = 0;
"11" = 0;
"2" = 0;
"3" = 0;
"4" = 0;
"5" = 0;
"6" = 0;
"7" = 0;
"8" = 0;
"9" = 0;
};
};
width = 260;
},
{
anchors = (
{
name = bottom;
pos = (94,0);
},
{
name = center;
pos = (154,281);
},
{
name = top;
pos = (256,759);
},
{
name = topright;
pos = (389,759);
}
);
layerId = "66114D67-63CC-4821-8086-0090D571F0A1";
shapes = (
{
closed = 1;
nodes = (
(224.144,0,l),
(247.538,110.058,l),
(158.926,110.058,l),
(297.076,760,l),
(161.639,760,l),
(24.992,117.126,ls),
(9.837,44,o),
(41.484,0,o),
(115.096,0,cs)
);
}
);
userData = {
com.hugojourdan.ColorFlow = {
"0" = 0;
"1" = 0;
"10" = 0;
"11" = 0;
"2" = 0;
"3" = 0;
"4" = 0;
"5" = 0;
"6" = 0;
"7" = 0;
"8" = 0;
"9" = 0;
};
};
width = 306;
}
);
metricLeft = l;
metricWidth = l;
},
{
color = 1;
glyphname = m.ss01;
kernLeft = KO_r.ss01;
kernRight = KO_m.ss01;
layers = (
{
anchors = (
{
name = bottom;
pos = (347,0);
},
{
name = top;
pos = (463,546);
}
);
layerId = "73572E25-487C-487F-975F-150A505979A5";
shapes = (
{
closed = 1;
nodes = (
(81.972,0,l),
(189.101,504,l),
(423.101,504,l),
(315.972,0,l),
(382.972,0,l),
(490.101,504,l),
(724.101,504,l),
(616.972,0,l),
(683.972,0,l),
(779.41,449,ls),
(794.927,522,o),
(770.579,558,o),
(691.579,558,cs),
(243.579,558,ls),
(164.579,558,o),
(124.927,522,o),
(109.41,449,cs),
(13.972,0,l)
);
}
);
userData = {
com.hugojourdan.ColorFlow = {
"0" = 0;
"1" = 0;
"10" = 0;
"11" = 0;
"2" = 0;
"3" = 0;
"4" = 0;
"5" = 0;
"6" = 0;
"7" = 0;
"8" = 0;
"9" = 0;
};
};
width = 810;
},
{
anchors = (
{
name = bottom;
pos = (362,0);
},
{
name = top;
pos = (482,560);
}
);
layerId = "66114D67-63CC-4821-8086-0090D571F0A1";
shapes = (
{
closed = 1;
nodes = (
(137,0,l),
(236,465,l),
(394,465,l),
(295,0,l),
(432,0,l),
(531,465,l),
(689,465,l),
(590,0,l),
(726,0,l),
(801,354,ls),
(831,492,o),
(787,575,o),
(634,575,cs),
(350,575,ls),
(193,575,o),
(107,497,o),
(76,354,cs),
(1,0,l)
);
}
);
userData = {
com.hugojourdan.ColorFlow = {
"0" = 0;
"1" = 0;
"10" = 0;
"11" = 0;
"2" = 0;
"3" = 0;
"4" = 0;
"5" = 0;
"6" = 0;
"7" = 0;
"8" = 0;
"9" = 0;
};
};
width = 842;
}
);
metricLeft = n;
metricRight = n;
},
{
color = 1;
glyphname = n.ss01;
kernLeft = KO_n.ss01;
kernRight = KO_n.ss01;
layers = (
{
anchors = (
{
name = bottom;
pos = (229,0);
},
{
name = top;
pos = (345,546);
}
);
layerId = "73572E25-487C-487F-975F-150A505979A5";
shapes = (
{
closed = 1;
nodes = (
(77.972,0,l),
(185.313,505,l),
(487.313,505,l),
(379.972,0,l),
(447.972,0,l),
(543.835,451,l),
(559.352,524,o),
(531.004,560,o),
(445.004,560,cs),
(251.004,560,ls),
(164.791,559,o),
(121.352,524,o),
(105.835,451,cs),
(9.972,0,l)
);
}
);
userData = {
com.hugojourdan.ColorFlow = {
"0" = 0;
"1" = 0;
"10" = 0;
"11" = 0;
"2" = 0;
"3" = 0;
"4" = 0;
"5" = 0;
"6" = 0;
"7" = 0;
"8" = 0;
"9" = 0;
};
};
width = 574;
},
{
anchors = (
{
name = bottom;
pos = (230,0);
},
{
name = top;
pos = (350,560);
}
);
layerId = "66114D67-63CC-4821-8086-0090D571F0A1";
shapes = (
{
closed = 1;
nodes = (
(122.164,0,l),
(218.179,451.718,l),
(433.082,451.718,l),
(337.067,0,l),
(473.377,0,l),
(540.442,315.515,ls),
(574.661,476,o),
(513.704,575,o),
(354.292,575.388,cs),
(352.418,575.388,ls),
(194.704,575,o),
(87.449,475,o),
(53.296,315.515,cs),
(-14.147,0,l)
);
}
);
userData = {
com.hugojourdan.ColorFlow = {
"0" = 0;
"1" = 0;
"10" = 0;
"11" = 0;
"2" = 0;
"3" = 0;
"4" = 0;
"5" = 0;
"6" = 0;
"7" = 0;
"8" = 0;
"9" = 0;
};
};
width = 578;
}
);
metricRight = "=|";
},
{
color = 1;
glyphname = r.ss01;
kernLeft = KO_r.ss01;
kernRight = KO_r.ss01;
layers = (
{
anchors = (
{
name = bottom;
pos = (109,0);
},
{
name = top;
pos = (225,546);
}
);
layerId = "73572E25-487C-487F-975F-150A505979A5";
shapes = (
{
closed = 1;
nodes = (
(81.972,0,l),
(186.762,493,l),
(356.762,493,l),
(368.028,546,l),
(266.028,546,ls),
(174.028,546,o),
(120.25,500,o),
(101.12,410,cs),
(13.972,0,l)
);
}
);
userData = {
com.hugojourdan.ColorFlow = {
"0" = 0;
"1" = 0;
"10" = 0;
"11" = 0;
"2" = 0;
"3" = 0;
"4" = 0;
"5" = 0;
"6" = 0;
"7" = 0;
"8" = 0;
"9" = 0;
};
};
width = 340;
},
{
anchors = (
{
name = bottom;
pos = (120,0);
},
{
name = top;
pos = (240,560);
}
);
layerId = "66114D67-63CC-4821-8086-0090D571F0A1";
shapes = (
{
closed = 1;
nodes = (
(135.533,0,l),
(231.38,450.33,l),
(378.108,450.33,l),
(401.501,560.388,l),
(289.385,560.388,ls),
(161.516,560,o),
(106.762,500,o),
(80.888,380.097,cs),
(0.096,0,l)
);
}
);
userData = {
com.hugojourdan.ColorFlow = {
"0" = 0;
"1" = 0;
"10" = 0;
"11" = 0;
"2" = 0;
"3" = 0;
"4" = 0;
"5" = 0;
"6" = 0;
"7" = 0;
"8" = 0;
"9" = 0;
};
};
width = 362;
}
);
metricLeft = n;
metricRight = r;
},
{
glyphname = t.ss01;
kernLeft = KO_t;
kernRight = KO_t.ss01;
lastChange = "2025-02-06 07:51:02 +0000";
layers = (
{
anchors = (
{
name = bottom;
pos = (141,0);
},
{
name = center;
pos = (199,273);
},
{
name = top;
pos = (288,692);
},
{
name = topright;
pos = (478,772);
}
);
layerId = "73572E25-487C-487F-975F-150A505979A5";
shapes = (
{
closed = 1;
nodes = (
(280.972,0,l),
(293.725,60,l),
(154.725,60,l),
(289.061,692,l),
(221.061,692,l),
(99.479,120,ls),
(79.924,28,o),
(104.972,0,o),
(193.972,0,cs)
);
},
{
closed = 1;
nodes = (
(384.275,486,l),
(397.028,546,l),
(85.028,546,l),
(72.275,486,l)
);
}
);
userData = {
com.hugojourdan.ColorFlow = {
"0" = 0;
"1" = 0;
"10" = 0;
"11" = 0;
"2" = 0;
"3" = 0;
"4" = 0;
"5" = 0;
"6" = 0;
"7" = 0;
"8" = 0;
"9" = 0;
};
};
width = 391;
},
{
anchors = (
{
name = bottom;
pos = (144,0);
},
{
name = center;
pos = (204,281);
},
{
name = top;
pos = (294,704);
},
{
name = topright;
pos = (491,772);
}
);
layerId = "66114D67-63CC-4821-8086-0090D571F0A1";
shapes = (
{
closed = 1;
nodes = (
(307.387,0,l),
(330.781,110.058,l),
(208.548,110.058,l),
(334.85,704.262,l),
(199.413,704.262,l),
(82.538,154.408,ls),
(58.412,42,o),
(84.484,0,o),
(204.251,0,cs)
);
},
{
closed = 1;
nodes = (
(402.179,445.961,l),
(426.501,560.388,l),
(81.346,560.388,l),
(57.024,445.961,l)
);
}
);
userData = {
com.hugojourdan.ColorFlow = {
"0" = 0;
"1" = 0;
"10" = 0;
"11" = 0;
"2" = 0;
"3" = 0;
"4" = 0;
"5" = 0;
"6" = 0;
"7" = 0;
"8" = 0;
"9" = 0;
};
};
width = 393;
}
);
},
{
color = 1;
glyphname = u.ss01;
kernLeft = KO_u.ss01;
kernRight = KO_u.ss01;
layers = (
{
anchors = (
{
name = bottom;
pos = (149,0);
},
{
name = ogonek;
pos = (379,10);
},
{
name = top;
pos = (265,546);
},
{
name = topright;
pos = (530,546);
}
);
layerId = "73572E25-487C-487F-975F-150A505979A5";
shapes = (
{
closed = 1;
nodes = (
(34.416,115,ls),
(16.136,29,o),
(48.996,-14,o),
(148.996,-14,cs),
(288.996,-14,ls),
(388.996,-14,o),
(440.136,29,o),
(458.416,115,c),
(550.028,546,l),
(482.028,546,l),
(374.687,41,l),
(86.687,41,l),
(194.028,546,l),
(126.028,546,l)
);
}
);
userData = {
com.hugojourdan.ColorFlow = {
"0" = 0;
"1" = 0;
"10" = 0;
"11" = 0;
"2" = 0;
"3" = 0;
"4" = 0;
"5" = 0;
"6" = 0;
"7" = 0;
"8" = 0;
"9" = 0;
};
};
width = 560;
},
{
anchors = (
{
name = bottom;
pos = (223,0);
},
{
name = ogonek;
pos = (455,10);
},
{
name = top;
pos = (343,560);
},
{
name = topright;
pos = (610,560);
}
);
layerId = "66114D67-63CC-4821-8086-0090D571F0A1";
shapes = (
{
closed = 1;
nodes = (
(47.019,244.874,ls),
(12.914,82,o),
(75.296,-15,o),
(231.296,-15,cs),
(233.17,-15,ls),
(390.296,-15,o),
(491.339,84,o),
(525.427,244.874,cs),
(592.492,560.388,l),
(456.181,560.388,l),
(360.165,108.67,l),
(154,108.67,l),
(250.016,560.388,l),
(113.705,560.388,l)
);
}
);
userData = {
com.hugojourdan.ColorFlow = {
"0" = 0;
"1" = 0;
"10" = 0;
"11" = 0;
"2" = 0;
"3" = 0;
"4" = 0;
"5" = 0;
"6" = 0;
"7" = 0;
"8" = 0;
"9" = 0;
};
};
width = 587;
}
);
metricRight = "=|";
},
{
color = 3;
glyphname = jdotless.ss02;
lastChange = "2025-02-06 07:51:02 +0000";
layers = (
{
anchors = (
{
name = bottom;
pos = (2,-215);
},
{
name = top;
pos = (164,546);
}
);
layerId = "73572E25-487C-487F-975F-150A505979A5";
shapes = (
{
closed = 1;
nodes = (
(36.272,-215,l),
(198.028,546,l),
(131.028,546,l),
(-7.346,-105,ls),
(-15.636,-144,o),
(-36.612,-158,o),
(-83.612,-158,cs),
(-133.612,-158,l),
(-145.728,-215,l)
);
}
);
userData = {
com.hugojourdan.ColorFlow = {
"0" = 0;
"1" = 0;
"10" = 0;
"11" = 0;
"2" = 0;
"3" = 0;
"4" = 0;
"5" = 0;
"6" = 0;
"7" = 0;
"8" = 0;
"9" = 0;
};
};
width = 212;
},
{
anchors = (
{
name = bottom;
pos = (25,-215);
},
{
name = top;
pos = (190,560);
}
);
layerId = "66114D67-63CC-4821-8086-0090D571F0A1";
shapes = (
{
closed = 1;
nodes = (
(95.95,-215,l),
(260.763,560.388,l),
(124.453,560.388,l),
(-5.675,-51.816,ls),
(-13.646,-90,o),
(-34.834,-105,o),
(-81.994,-105.068,cs),
(-115.344,-105.068,l),
(-138.737,-215.126,l)
);
}
);
userData = {
com.hugojourdan.ColorFlow = {
"0" = 0;
"1" = 0;
"10" = 0;
"11" = 0;
"2" = 0;
"3" = 0;
"4" = 0;
"5" = 0;
"6" = 0;
"7" = 0;
"8" = 0;
"9" = 0;
};
};
width = 261;
}
);
metricLeft = jdotless;
metricRight = idotless;
},
{
color = 3;
glyphname = l.ss02;
kernLeft = KO_i;
kernRight = KO_l.ss02;
layers = (
{
anchors = (
{
name = bottom;
pos = (63,0);
},
{
name = center;
pos = (121,273);
},
{
name = top;
pos = (225,760);
},
{
name = topright;
pos = (323,760);
}
);
layerId = "73572E25-487C-487F-975F-150A505979A5";
shapes = (
{
closed = 1;
nodes = (
(168.972,0,l),
(180.238,53,l),
(137.238,53,ls),
(108.238,53,o),
(95.638,69,o),
(101.803,98,cs),
(242.515,760,l),
(175.515,760,l),
(13.972,0,l)
);
}
);
userData = {
com.hugojourdan.ColorFlow = {
"0" = 0;
"1" = 0;
"10" = 0;
"11" = 0;
"2" = 0;
"3" = 0;
"4" = 0;
"5" = 0;
"6" = 0;
"7" = 0;
"8" = 0;
"9" = 0;
};
};
width = 260;
},
{
anchors = (
{
name = bottom;
pos = (141,0);
},
{
name = center;
pos = (201,281);
},
{
name = top;
pos = (301,750);
},
{
name = topright;
pos = (431,750);
}
);
layerId = "66114D67-63CC-4821-8086-0090D571F0A1";
shapes = (
{
closed = 1;
nodes = (
(234.144,0,l),
(257.538,110.058,l),
(204.8,110.058,ls),
(176.865,110,o),
(163.266,126,o),
(169.392,155.184,cs),
(297.949,760,l),
(161.639,760,l),
(0.096,0,l)
);
}
);
userData = {
com.hugojourdan.ColorFlow = {
"0" = 0;
"1" = 0;
"10" = 0;
"11" = 0;
"2" = 0;
"3" = 0;
"4" = 0;
"5" = 0;
"6" = 0;
"7" = 0;
"8" = 0;
"9" = 0;
};
};
width = 306;
}
);
metricLeft = l;
metricWidth = l;
},
{
color = 3;
glyphname = m.ss02;
kernLeft = KO_r;
kernRight = KO_u.ss01;
layers = (
{
anchors = (
{
name = bottom;
pos = (347,0);
},
{
name = top;
pos = (463,546);
}
);
layerId = "73572E25-487C-487F-975F-150A505979A5";
shapes = (
{
closed = 1;
nodes = (
(81.972,0,l),
(159.343,364,ls),
(179.748,460,o),
(238.101,504,o),
(309.101,504,cs),
(377.101,504,o),
(413.748,460,o),
(393.343,364,cs),
(315.972,0,l),
(382.972,0,l),
(460.343,364,ls),
(480.748,460,o),
(540.101,504,o),
(615.101,504,cs),
(679.101,504,o),
(714.748,460,o),
(694.343,364,cs),
(616.972,0,l),
(683.972,0,l),
(800.028,546,l),
(130.028,546,l),
(13.972,0,l)
);
}
);
userData = {
com.hugojourdan.ColorFlow = {
"0" = 0;
"1" = 0;
"10" = 0;
"11" = 0;
"2" = 0;
"3" = 0;
"4" = 0;
"5" = 0;
"6" = 0;
"7" = 0;
"8" = 0;
"9" = 0;
};
};
width = 810;
},
{
anchors = (
{
name = bottom;
pos = (362,0);
},
{
name = top;
pos = (482,560);
}
);
layerId = "66114D67-63CC-4821-8086-0090D571F0A1";
shapes = (
{
closed = 1;
nodes = (
(137,0,l),
(215,366,ls),
(228,427,o),
(269,460,o),
(318,460,cs),
(361,460,o),
(386,428,o),
(373,366,cs),
(295,0,l),
(432,0,l),
(509,366,ls),
(522,427,o),
(564,460,o),
(614,460,cs),
(657,460,o),
(680,428,o),
(668,366,cs),
(590,0,l),
(726,0,l),
(845,560,l),
(120,560,l),
(1,0,l)
);
}
);
userData = {
com.hugojourdan.ColorFlow = {
"0" = 0;
"1" = 0;
"10" = 0;
"11" = 0;
"2" = 0;
"3" = 0;
"4" = 0;
"5" = 0;
"6" = 0;
"7" = 0;
"8" = 0;
"9" = 0;
};
};
width = 842;
}
);
metricLeft = n;
metricRight = n;
},
{
color = 3;
glyphname = n.ss02;
kernLeft = KO_u.ss02;
kernRight = KO_n.ss02;
layers = (
{
anchors = (
{
name = bottom;
pos = (229,0);
},
{
name = top;
pos = (345,546);
}
);
layerId = "73572E25-487C-487F-975F-150A505979A5";
shapes = (
{
closed = 1;
nodes = (
(77.972,0,l),
(148.541,332,ls),
(172.985,447,o),
(237.738,507,o),
(336.738,507,cs),
(435.738,507,o),
(474.985,447,o),
(450.541,332,cs),
(379.972,0,l),
(447.972,0,l),
(564.028,546,l),
(126.028,546,l),
(9.972,0,l)
);
}
);
userData = {
com.hugojourdan.ColorFlow = {
"0" = 0;
"1" = 0;
"10" = 0;
"11" = 0;
"2" = 0;
"3" = 0;
"4" = 0;
"5" = 0;
"6" = 0;
"7" = 0;
"8" = 0;
"9" = 0;
};
};
width = 574;
},
{
anchors = (
{
name = bottom;
pos = (230,0);
},
{
name = top;
pos = (350,560);
}
);
layerId = "66114D67-63CC-4821-8086-0090D571F0A1";
shapes = (
{
closed = 1;
nodes = (
(122.164,0,l),
(193.372,335.01,ls),
(211.758,420,o),
(258.536,466,o),
(328.158,465.961,cs),
(397.536,466,o),
(426.97,421,o),
(408.275,335.01,cs),
(337.067,0,l),
(473.377,0,l),
(592.492,560.388,l),
(104.967,560.388,l),
(-14.147,0,l)
);
}
);
userData = {
com.hugojourdan.ColorFlow = {
"0" = 0;
"1" = 0;
"10" = 0;
"11" = 0;
"2" = 0;
"3" = 0;
"4" = 0;
"5" = 0;
"6" = 0;
"7" = 0;
"8" = 0;
"9" = 0;
};
};
width = 578;
}
);
metricRight = "=|";
},
{
color = 3;
glyphname = r.ss02;
kernLeft = KO_r;
kernRight = KO_r.ss01;
layers = (
{
anchors = (
{
name = bottom;
pos = (109,0);
},
{
name = top;
pos = (225,546);
}
);
layerId = "73572E25-487C-487F-975F-150A505979A5";
shapes = (
{
closed = 1;
nodes = (
(81.972,0,l),
(168.695,408,ls),
(182.086,471,o),
(204.762,493,o),
(271.762,493,cs),
(356.762,493,l),
(368.028,546,l),
(130.028,546,l),
(13.972,0,l)
);
}
);
userData = {
com.hugojourdan.ColorFlow = {
"0" = 0;
"1" = 0;
"10" = 0;
"11" = 0;
"2" = 0;
"3" = 0;
"4" = 0;
"5" = 0;
"6" = 0;
"7" = 0;
"8" = 0;
"9" = 0;
};
};
width = 340;
},
{
anchors = (
{
name = bottom;
pos = (127,0);
},
{
name = top;
pos = (247,560);
}
);
layerId = "66114D67-63CC-4821-8086-0090D571F0A1";
shapes = (
{
closed = 1;
nodes = (
(137,0,l),
(214,361,ls),
(228,425,o),
(256,450,o),
(319,450,cs),
(395,450,l),
(418,560,l),
(120,560,l),
(1,0,l)
);
}
);
userData = {
com.hugojourdan.ColorFlow = {
"0" = 0;
"1" = 0;
"10" = 0;
"11" = 0;
"2" = 0;
"3" = 0;
"4" = 0;
"5" = 0;
"6" = 0;
"7" = 0;
"8" = 0;
"9" = 0;
};
};
width = 378;
}
);
metricLeft = n;
metricRight = r;
},
{
export = 0;
glyphname = a.ss03;
layers = (
{
anchors = (
{
name = bottom;
pos = (236,0);
},
{
name = ogonek;
pos = (473,10);
},
{
name = top;
pos = (352,546);
}
);
layerId = "73572E25-487C-487F-975F-150A505979A5";
shapes = (
{
closed = 1;
nodes = (
(308.372,-15,o),
(407.011,52,o),
(442.25,161,c),
(515.056,273,l),
(489.862,385,l),
(500.031,494,o),
(427.272,561,o),
(331.272,561,cs),
(198.272,561,o),
(76.727,474.931,o),
(36.022,283.432,cs),
(-6.123,85.156,o),
(86.351,-15,o),
(214.84,-15,cs)
);
},
{
closed = 1;
nodes = (
(121.593,45,o),
(75.235,128,o),
(106.056,273,cs),
(136.877,418,o),
(218.519,501,o),
(331.519,501,cs),
(439.519,501,o),
(475.263,401,o),
(448.056,273,cs),
(420.849,145,o),
(342.593,45,o),
(234.593,45,cs)
);
},
{
closed = 1;
nodes = (
(458.028,0,l),
(572,546,l),
(504,546,l),
(471.225,382,l),
(424.887,164,l),
(390.028,0,l)
);
}
);
userData = {
com.hugojourdan.ColorFlow = {
"0" = 0;
"1" = 0;
"10" = 0;
"11" = 0;
"2" = 0;
"3" = 0;
"4" = 0;
"5" = 0;
"6" = 0;
"7" = 0;
"8" = 0;
"9" = 0;
};
};
width = 588;
},
{
anchors = (
{
name = bottom;
pos = (245,0);
},
{
name = ogonek;
pos = (492,10);
},
{
name = top;
pos = (365,560);
}
);
layerId = "66114D67-63CC-4821-8086-0090D571F0A1";
shapes = (
{
closed = 1;
nodes = (
(289.327,-15,o),
(374.569,52,o),
(401.732,158.874,c),
(482.117,280.631,l),
(453.307,401.515,l),
(471.92,510,o),
(413.736,575,o),
(319.663,575.388,cs),
(191.736,575,o),
(70.941,486.577,o),
(29.214,290.27,cs),
(-12.81,92.559,o),
(76.327,-15,o),
(194.172,-15,cs)
);
},
{
closed = 1;
nodes = (
(171.409,103,o),
(140.863,171,o),
(166.185,290.13,cs),
(187.625,391,o),
(247.867,458,o),
(331.948,457.835,cs),
(415.867,458,o),
(436.925,383,o),
(415.117,280.631,cs),
(393.138,177,o),
(339.409,103,o),
(256.431,102.553,cs)
);
},
{
closed = 1;
nodes = (
(490.904,0,l),
(610,560,l),
(474,560,l),
(438.286,389.631,l),
(391.045,167.379,l),
(355.467,0,l)
);
}
);
userData = {
com.hugojourdan.ColorFlow = {
"0" = 0;
"1" = 0;
"10" = 0;
"11" = 0;
"2" = 0;
"3" = 0;
"4" = 0;
"5" = 0;
"6" = 0;
"7" = 0;
"8" = 0;
"9" = 0;
};
};
width = 610;
}
);
metricLeft = d;
metricRight = d;
},
{
color = 6;
glyphname = f_i;
kernLeft = KO_f;
kernRight = KO_i;
lastChange = "2025-02-06 07:51:02 +0000";
layers = (
{
anchors = (
{
name = bottom_1;
pos = (91,0);
},
{
name = bottom_2;
pos = (389,0);
},
{
name = caret_1;
pos = (298,0);
},
{
name = top_1;
pos = (253,760);
},
{
name = top_2;
pos = (551,760);
}
);
layerId = "73572E25-487C-487F-975F-150A505979A5";
shapes = (
{
closed = 1;
nodes = (
(547.275,486,l),
(560.028,546,l),
(240.028,546,l),
(227.275,486,l)
);
},
{
alignment = -1;
ref = _f.short;
},
{
alignment = -1;
pos = (384,0);
ref = i;
}
);
userData = {
com.hugojourdan.ColorFlow = {
"0" = 0;
"1" = 0;
"10" = 0;
"11" = 0;
"2" = 0;
"3" = 0;
"4" = 0;
"5" = 0;
"6" = 0;
"7" = 0;
"8" = 0;
"9" = 0;
};
};
width = 595;
},
{
anchors = (
{
name = bottom_1;
pos = (100,0);
},
{
name = bottom_2;
pos = (420,0);
},
{
name = caret_1;
pos = (320,0);
},
{
name = top_1;
pos = (262,760);
},
{
name = top_2;
pos = (582,760);
}
);
layerId = "66114D67-63CC-4821-8086-0090D571F0A1";
shapes = (
{
closed = 1;
nodes = (
(572.419,446.087,l),
(596.715,560.388,l),
(235.802,560.388,l),
(211.507,446.087,l)
);
},
{
alignment = -1;
ref = _f.short;
},
{
alignment = -1;
pos = (385,0);
ref = i;
}
);
userData = {
com.hugojourdan.ColorFlow = {
"0" = 0;
"1" = 0;
"10" = 0;
"11" = 0;
"2" = 0;
"3" = 0;
"4" = 0;
"5" = 0;
"6" = 0;
"7" = 0;
"8" = 0;
"9" = 0;
};
};
width = 640;
}
);
metricLeft = f;
metricRight = i;
},
{
glyphname = f_l;
kernLeft = KO_f;
kernRight = KO_l;
lastChange = "2025-02-06 07:51:02 +0000";
layers = (
{
anchors = (
{
name = bottom_1;
pos = (103,0);
},
{
name = bottom_2;
pos = (425,0);
},
{
name = caret_1;
pos = (322,0);
},
{
name = top_1;
pos = (265,760);
},
{
name = top_2;
pos = (587,760);
}
);
layerId = "73572E25-487C-487F-975F-150A505979A5";
shapes = (
{
closed = 1;
nodes = (
(547.275,486,l),
(560.028,546,l),
(240.028,546,l),
(227.275,486,l)
);
},
{
alignment = -1;
ref = _f.short;
},
{
alignment = -1;
pos = (384,0);
ref = l;
}
);
userData = {
com.hugojourdan.ColorFlow = {
"0" = 0;
"1" = 0;
"10" = 0;
"11" = 0;
"2" = 0;
"3" = 0;
"4" = 0;
"5" = 0;
"6" = 0;
"7" = 0;
"8" = 0;
"9" = 0;
};
};
width = 644;
},
{
anchors = (
{
name = bottom_1;
pos = (174,0);
},
{
name = bottom_2;
pos = (520,0);
},
{
name = caret_1;
pos = (347,0);
},
{
name = top_1;
pos = (336,760);
},
{
name = top_2;
pos = (682,760);
}
);
layerId = "66114D67-63CC-4821-8086-0090D571F0A1";
shapes = (
{
closed = 1;
nodes = (
(612.419,446.087,l),
(636.715,560.388,l),
(275.802,560.388,l),
(251.507,446.087,l)
);
},
{
alignment = -1;
ref = _f.short;
},
{
alignment = -1;
pos = (389,0);
ref = l;
}
);
userData = {
com.hugojourdan.ColorFlow = {
"0" = 0;
"1" = 0;
"10" = 0;
"11" = 0;
"2" = 0;
"3" = 0;
"4" = 0;
"5" = 0;
"6" = 0;
"7" = 0;
"8" = 0;
"9" = 0;
};
};
width = 695;
}
);
metricLeft = f;
metricRight = l;
},
{
color = 0;
glyphname = ordfeminine;
lastChange = "2025-02-06 07:51:02 +0000";
layers = (
{
layerId = "73572E25-487C-487F-975F-150A505979A5";
shapes = (
{
closed = 1;
nodes = (
(257.25,500,l),
(292.322,665,ls),
(305.501,727,o),
(272.258,750,o),
(217.389,750,cs),
(175.627,750,o),
(138.683,733.151,o),
(116.124,703,c),
(141.023,673,l),
(157.337,698,o),
(183.525,713,o),
(211.525,713,cs),
(238.525,713,o),
(255.549,699,o),
(249.172,669,cs),
(213.25,500,l)
);
},
{
closed = 1;
nodes = (
(186.188,495,o),
(221.289,519,o),
(232.917,569,c),
(235.781,606,l),
(225.366,557,o),
(196.84,531,o),
(159.84,531,cs),
(137.84,531,o),
(119.965,541,o),
(125.492,567,cs),
(130.593,591,o),
(148.356,604,o),
(184.632,610,cs),
(244.757,620,l),
(251.984,654,l),
(187.858,644,ls),
(123.923,634.03,o),
(89.901,608.857,o),
(82.667,574.827,cs),
(72.173,525.453,o),
(94.188,495,o),
(141.188,495,cs)
);
}
);
userData = {
com.hugojourdan.ColorFlow = {
"0" = 0;
"1" = 0;
"10" = 0;
"11" = 0;
"2" = 0;
"3" = 0;
"4" = 0;
"5" = 0;
"6" = 0;
"7" = 0;
"8" = 0;
"9" = 0;
};
};
width = 240;
},
{
layerId = "66114D67-63CC-4821-8086-0090D571F0A1";
shapes = (
{
closed = 1;
nodes = (
(268.898,500,l),
(304.688,668.379,ls),
(316.375,724,o),
(283.97,756.058,o),
(222.45,756,cs),
(179.597,755.96,o),
(140.343,744.636,o),
(108.263,721.515,c),
(134.707,667.369,l),
(153.085,685,o),
(179.424,696,o),
(205.274,696.485,cs),
(224.424,696,o),
(237.511,687,o),
(233.452,665.621,cs),
(198.248,500,l)
);
},
{
closed = 1;
nodes = (
(177.7,495,o),
(204.226,521,o),
(214.831,564.495,c),
(221.497,609.379,l),
(212.216,568,o),
(195.178,549,o),
(168.507,548.767,cs),
(154.178,549,o),
(142.091,558,o),
(145.42,574.757,cs),
(148.893,590,o),
(161.018,600,o),
(182.694,604.369,cs),
(228.558,614.369,l),
(237.912,658.379,l),
(180.178,647.252,ls),
(118.681,635.044,o),
(82.084,612.962,o),
(73.961,574.252,cs),
(63.651,526.353,o),
(88.7,495,o),
(133.816,495,cs)
);
}
);
userData = {
com.hugojourdan.ColorFlow = {
"0" = 0;
"1" = 0;
"10" = 0;
"11" = 0;
"2" = 0;
"3" = 0;
"4" = 0;
"5" = 0;
"6" = 0;
"7" = 0;
"8" = 0;
"9" = 0;
};
};
width = 248;
}
);
unicode = 170;
},
{
color = 0;
glyphname = ordmasculine;
lastChange = "2025-02-06 07:51:02 +0000";
layers = (
{
anchors = (
{
name = bottom;
pos = (178,500);
},
{
name = center;
pos = (204,621);
},
{
name = ogonek;
pos = (279,504);
},
{
name = top;
pos = (229,741);
},
{
name = topright;
pos = (345,741);
}
);
layerId = "73572E25-487C-487F-975F-150A505979A5";
shapes = (
{
closed = 1;
nodes = (
(244.762,493,o),
(297.603,544,o),
(313.97,621,cs),
(330.762,700,o),
(299.389,750,o),
(231.389,750,cs),
(162.389,750,o),
(110.549,699,o),
(93.97,621,cs),
(77.815,545,o),
(107.762,493,o),
(176.762,493,c)
);
},
{
closed = 1;
nodes = (
(142.84,531,o),
(125.067,565,o),
(136.97,621,cs),
(149.085,678,o),
(178.312,712,o),
(223.312,712,cs),
(267.312,712,o),
(282.298,679,o),
(269.97,621,cs),
(258.067,565,o),
(228.84,531,o),
(184.84,531,c)
);
}
);
userData = {
com.hugojourdan.ColorFlow = {
"0" = 0;
"1" = 0;
"10" = 0;
"11" = 0;
"2" = 0;
"3" = 0;
"4" = 0;
"5" = 0;
"6" = 0;
"7" = 0;
"8" = 0;
"9" = 0;
};
};
width = 260;
},
{
anchors = (
{
name = bottom;
pos = (178,500);
},
{
name = center;
pos = (204,624);
},
{
name = ogonek;
pos = (281,504);
},
{
name = top;
pos = (231,749);
},
{
name = topright;
pos = (349,749);
}
);
layerId = "66114D67-63CC-4821-8086-0090D571F0A1";
shapes = (
{
closed = 1;
nodes = (
(251.275,493,o),
(304.753,547,o),
(320.705,624.379,cs),
(337.486,701,o),
(307.177,756,o),
(231.945,755.505,cs),
(158.177,756,o),
(104.699,702,o),
(88.443,624.379,cs),
(72.178,549,o),
(101.275,493,o),
(176.148,493,c)
);
},
{
closed = 1;
nodes = (
(161.028,553,o),
(147.492,574,o),
(158.093,624.379,cs),
(168.96,675,o),
(189.424,696,o),
(219.4,696.485,cs),
(248.424,696,o),
(261.172,676,o),
(250.181,624.379,cs),
(239.704,575,o),
(219.028,553,o),
(188.906,553.019,c)
);
}
);
userData = {
com.hugojourdan.ColorFlow = {
"0" = 0;
"1" = 0;
"10" = 0;
"11" = 0;
"2" = 0;
"3" = 0;
"4" = 0;
"5" = 0;
"6" = 0;
"7" = 0;
"8" = 0;
"9" = 0;
};
};
width = 262;
}
);
unicode = 186;
},
{
glyphname = zero;
kernLeft = KO_zero;
kernRight = KO_zero;
layers = (
{
layerId = "73572E25-487C-487F-975F-150A505979A5";
shapes = (
{
closed = 1;
nodes = (
(437.421,-12,o),
(549.73,140,o),
(594.579,351,cs),
(639.216,561,o),
(591.737,714,o),
(424.737,714,cs),
(246.737,714,o),
(131.216,561,o),
(86.579,351,cs),
(41.73,140,o),
(92.421,-12,o),
(270.421,-12,cs)
);
},
{
closed = 1;
nodes = (
(149.962,47,o),
(122.981,160,o),
(163.579,351,cs),
(204.39,543,o),
(279.197,655,o),
(412.197,655,cs),
(536.197,655,o),
(558.39,543,o),
(517.579,351,cs),
(476.981,160,o),
(407.962,47,o),
(282.962,47,cs)
);
}
);
userData = {
com.hugojourdan.ColorFlow = {
"0" = 0;
"1" = 0;
"10" = 0;
"11" = 0;
"2" = 0;
"3" = 0;
"4" = 0;
"5" = 0;
"6" = 0;
"7" = 0;
"8" = 0;
"9" = 0;
};
};
width = 648;
},
{
layerId = "66114D67-63CC-4821-8086-0090D571F0A1";
shapes = (
{
closed = 1;
nodes = (
(438.933,-12,o),
(553.117,130,o),
(600.354,351,cs),
(646.854,571,o),
(593.25,714,o),
(413.366,714,cs),
(226.25,714,o),
(106.067,572,o),
(59.315,351,cs),
(12.329,131,o),
(71.933,-12,o),
(259.05,-12,cs)
);
},
{
closed = 1;
nodes = (
(180.59,104,o),
(168.295,192,o),
(201.888,351,cs),
(235.888,510,o),
(284.806,599,o),
(388.883,598.816,cs),
(482.806,599,o),
(493.101,511,o),
(458.655,351,cs),
(425.72,194,o),
(379.59,104,o),
(283.719,104.058,cs)
);
}
);
userData = {
com.hugojourdan.ColorFlow = {
"0" = 0;
"1" = 0;
"10" = 0;
"11" = 0;
"2" = 0;
"3" = 0;
"4" = 0;
"5" = 0;
"6" = 0;
"7" = 0;
"8" = 0;
"9" = 0;
};
};
width = 629;
}
);
metricRight = "=|";
unicode = 48;
},
{
glyphname = one;
kernLeft = KO_one;
kernRight = KO_one;
layers = (
{
layerId = "73572E25-487C-487F-975F-150A505979A5";
shapes = (
{
closed = 1;
nodes = (
(231.972,0,l),
(380.762,700,l),
(183.762,700,l),
(114.008,640,l),
(329.008,640,l),
(301.786,686,l),
(155.972,0,l)
);
}
);
userData = {
com.hugojourdan.ColorFlow = {
"0" = 0;
"1" = 0;
"10" = 0;
"11" = 0;
"2" = 0;
"3" = 0;
"4" = 0;
"5" = 0;
"6" = 0;
"7" = 0;
"8" = 0;
"9" = 0;
};
};
width = 411;
},
{
layerId = "66114D67-63CC-4821-8086-0090D571F0A1";
shapes = (
{
closed = 1;
nodes = (
(283.785,0,l),
(432.575,700,l),
(179.769,700,l),
(98.286,584.816,l),
(299.897,584.816,l),
(284.405,686,l),
(138.591,0,l)
);
}
);
userData = {
com.hugojourdan.ColorFlow = {
"0" = 0;
"1" = 0;
"10" = 0;
"11" = 0;
"2" = 0;
"3" = 0;
"4" = 0;
"5" = 0;
"6" = 0;
"7" = 0;
"8" = 0;
"9" = 0;
};
};
width = 433;
}
);
unicode = 49;
},
{
glyphname = two;
kernLeft = KO_two;
kernRight = KO_two;
layers = (
{
layerId = "73572E25-487C-487F-975F-150A505979A5";
shapes = (
{
closed = 1;
nodes = (
(457.972,0,l),
(470.3,58,l),
(54.3,58,l),
(91.561,23,l),
(361.946,252.168,ls),
(493.2,363.414,o),
(535.885,431.233,o),
(550.076,498,cs),
(578.058,629.644,o),
(494.1,715,o),
(366.95,715,cs),
(273.808,715,o),
(147.728,679,o),
(100.7,488,c),
(170.661,469,l),
(203.97,621,o),
(289.197,655,o),
(363.197,655,cs),
(429.197,655,o),
(490.935,602.017,o),
(469.832,502.735,cs),
(455.008,432.995,o),
(424.339,393.517,o),
(335.351,318.708,cs),
(21.663,55,l),
(9.972,0,l)
);
}
);
userData = {
com.hugojourdan.ColorFlow = {
"0" = 0;
"1" = 0;
"10" = 0;
"11" = 0;
"2" = 0;
"3" = 0;
"4" = 0;
"5" = 0;
"6" = 0;
"7" = 0;
"8" = 0;
"9" = 0;
};
};
width = 556;
},
{
layerId = "66114D67-63CC-4821-8086-0090D571F0A1";
shapes = (
{
closed = 1;
nodes = (
(488.241,0,l),
(512.725,115.184,l),
(66.579,115.184,l),
(114.097,21.913,l),
(399.82,238.665,ls),
(532.418,339.256,o),
(571.75,396.109,o),
(587.965,472.309,cs),
(620.245,624,o),
(531.388,715,o),
(378.443,715,cs),
(235.679,715,o),
(128.444,636,o),
(92.419,490.252,c),
(219.897,445.728,l),
(246.453,555,o),
(307.018,600,o),
(372.969,599.816,cs),
(428.018,600,o),
(455.941,552,o),
(443.246,491.359,cs),
(429.796,429,o),
(383.65,383.825,o),
(292.544,316.301,cs),
(37.082,126.961,l),
(10.096,0,l)
);
}
);
userData = {
com.hugojourdan.ColorFlow = {
"0" = 0;
"1" = 0;
"10" = 0;
"11" = 0;
"2" = 0;
"3" = 0;
"4" = 0;
"5" = 0;
"6" = 0;
"7" = 0;
"8" = 0;
"9" = 0;
};
};
width = 589;
}
);
unicode = 50;
},
{
glyphname = three;
kernLeft = KO_three;
kernRight = KO_three;
layers = (
{
layerId = "73572E25-487C-487F-975F-150A505979A5";
shapes = (
{
attr = {
identifier = ID0x3535f16a0;
};
closed = 1;
nodes = (
(377.025,-15,o),
(469.346,61.738,o),
(493.208,174,cs),
(514.887,275.991,o),
(466.642,354.409,o),
(379.618,370,c),
(374.918,362,l),
(460.681,374.257,o),
(528.822,436.234,o),
(546.081,517.432,cs),
(572.308,640.818,o),
(495.863,715,o),
(371.95,715,cs),
(235.716,715,o),
(149.176,646,o),
(110.564,525,c),
(183.163,509,l),
(214.482,614,o),
(279.197,655,o),
(364.197,655,cs),
(446.197,655,o),
(485.419,609,o),
(468.414,529,cs),
(450.393,444.216,o),
(398.712,397,o),
(308.357,397,cs),
(253.357,397,l),
(240.604,337,l),
(290.604,337,ls),
(392.53,337,o),
(434.7,281,o),
(414.082,184,cs),
(396.865,103,o),
(325.537,45,o),
(241.537,45,cs),
(146.537,45,o),
(103.44,101,o),
(113.247,213,c),
(37.121,203,l),
(21.732,61.953,o),
(98.644,-15,o),
(236.784,-15,cs)
);
}
);
userData = {
com.hugojourdan.ColorFlow = {
"0" = 0;
"1" = 0;
"10" = 0;
"11" = 0;
"2" = 0;
"3" = 0;
"4" = 0;
"5" = 0;
"6" = 0;
"7" = 0;
"8" = 0;
"9" = 0;
};
};
width = 557;
},
{
layerId = "66114D67-63CC-4821-8086-0090D571F0A1";
shapes = (
{
attr = {
identifier = ID0x3535f16a0;
};
closed = 1;
nodes = (
(391.248,-15,o),
(497.054,62.866,o),
(520.081,170.966,cs),
(542.611,276.735,o),
(502.367,355.465,o),
(420.664,370,c),
(415.964,362,l),
(495.193,373.457,o),
(561.737,432.96,o),
(579.214,515.083,cs),
(605.13,636.862,o),
(519.393,715,o),
(377.219,715,cs),
(236.049,715,o),
(139.246,645,o),
(93.581,519.243,c),
(231.119,483.223,l),
(246.453,555,o),
(296.018,600,o),
(356.6,599.816,cs),
(414.018,600,o),
(440.429,569,o),
(429.032,513.233,cs),
(416.197,455,o),
(375.608,424,o),
(307.161,424.272,cs),
(248.773,424.272,l),
(223.202,303.971,l),
(276.59,303.971,ls),
(364.101,304,o),
(395.024,266,o),
(381.615,200.767,cs),
(368.88,143,o),
(317.952,101,o),
(257.712,101.058,cs),
(187.952,101,o),
(155.092,144,o),
(164.43,223.01,c),
(17.165,199.748,l),
(0.812,58,o),
(85.983,-15,o),
(255.548,-15,cs)
);
}
);
userData = {
com.hugojourdan.ColorFlow = {
"0" = 0;
"1" = 0;
"10" = 0;
"11" = 0;
"2" = 0;
"3" = 0;
"4" = 0;
"5" = 0;
"6" = 0;
"7" = 0;
"8" = 0;
"9" = 0;
};
};
width = 588;
}
);
unicode = 51;
},
{
glyphname = four;
kernLeft = KO_four;
kernRight = KO_four;
lastChange = "2025-02-06 09:45:43 +0000";
layers = (
{
layerId = "73572E25-487C-487F-975F-150A505979A5";
shapes = (
{
closed = 1;
nodes = (
(351,0,l),
(389,179,l),
(500,179,l),
(513,239,l),
(402,239,l),
(500,700,l),
(380,700,l),
(5,242,l),
(-8,179,l),
(313,179,l),
(275,0,l)
);
},
{
closed = 1;
nodes = (
(412,645,l),
(326,239,l),
(84,239,l)
);
}
);
userData = {
com.hugojourdan.ColorFlow = {
"0" = 0;
"1" = 0;
"10" = 0;
"11" = 0;
"2" = 0;
"3" = 0;
"4" = 0;
"5" = 0;
"6" = 0;
"7" = 0;
"8" = 0;
"9" = 0;
};
};
width = 582;
},
{
layerId = "66114D67-63CC-4821-8086-0090D571F0A1";
shapes = (
{
closed = 1;
nodes = (
(410,0,l),
(442,151,l),
(532,151,l),
(557,270,l),
(467,270,l),
(559,700,l),
(337,700,l),
(12,274,l),
(-14,151,l),
(297,151,l),
(265,0,l)
);
},
{
closed = 1;
nodes = (
(396,617,l),
(323,270,l),
(138,270,l)
);
}
);
userData = {
com.hugojourdan.ColorFlow = {
"0" = 0;
"1" = 0;
"10" = 0;
"11" = 0;
"2" = 0;
"3" = 0;
"4" = 0;
"5" = 0;
"6" = 0;
"7" = 0;
"8" = 0;
"9" = 0;
};
};
width = 600;
},
{
associatedMasterId = "73572E25-487C-487F-975F-150A505979A5";
layerId = "99695CD5-B13F-41FB-BC81-B0BBF44F32A8";
name = "6 Feb 25 at 10:45";
shapes = (
{
closed = 1;
nodes = (
(350.972,0,l),
(499.762,700,l),
(379.762,700,l),
(5.411,242,l),
(-7.98,179,l),
(500.02,179,l),
(512.773,239,l),
(55.773,239,l),
(66.097,217,l),
(428.535,666,l),
(429.685,662,l),
(419.298,679,l),
(274.972,0,l)
);
}
);
userData = {
com.hugojourdan.ColorFlow = {
"0" = 0;
"1" = 0;
"10" = 0;
"11" = 0;
"2" = 0;
"3" = 0;
"4" = 0;
"5" = 0;
"6" = 0;
"7" = 0;
"8" = 0;
"9" = 0;
};
};
width = 582;
},
{
associatedMasterId = "66114D67-63CC-4821-8086-0090D571F0A1";
layerId = "A82C45D0-2412-4333-B6F7-5203CBEC2DDE";
name = "6 Feb 25 at 10:45";
shapes = (
{
closed = 1;
nodes = (
(409.795,0,l),
(558.584,700,l),
(337.245,700,l),
(12.372,274.029,l),
(-13.732,151.223,l),
(531.919,151.223,l),
(557.145,269.903,l),
(55.864,269.903,l),
(78.502,190.369,l),
(399.154,620.602,l),
(425.313,615.456,l),
(399.664,632.456,l),
(265.232,0,l)
);
}
);
userData = {
com.hugojourdan.ColorFlow = {
"0" = 0;
"1" = 0;
"10" = 0;
"11" = 0;
"2" = 0;
"3" = 0;
"4" = 0;
"5" = 0;
"6" = 0;
"7" = 0;
"8" = 0;
"9" = 0;
};
};
width = 600;
}
);
unicode = 52;
userData = {
KernOnName = four;
};
},
{
glyphname = five;
kernLeft = KO_five;
kernRight = KO_five;
layers = (
{
layerId = "73572E25-487C-487F-975F-150A505979A5";
shapes = (
{
attr = {
identifier = ID0x37be8a340;
};
closed = 1;
nodes = (
(359.997,-15,o),
(483.169,47.382,o),
(521.348,227,cs),
(555.195,386.24,o),
(466.155,472,o),
(347.299,472,cs),
(277.859,472,o),
(200.185,448,o),
(164.893,376,c),
(190.657,389,l),
(290.274,693,l),
(228.008,640,l),
(548.008,640,l),
(560.762,700,l),
(218.762,700,l),
(92.415,322,l),
(141.589,304,l),
(189.381,383,o),
(260.545,412,o),
(321.545,412,cs),
(419.545,412,o),
(473.367,350,o),
(448.498,233,cs),
(424.691,121,o),
(345.537,45,o),
(247.537,45,cs),
(155.537,45,o),
(92.928,108,o),
(105.821,211,c),
(33.483,202,l),
(17.664,59.688,o),
(111.799,-15,o),
(242.784,-15,cs)
);
}
);
userData = {
com.hugojourdan.ColorFlow = {
"0" = 0;
"1" = 0;
"10" = 0;
"11" = 0;
"2" = 0;
"3" = 0;
"4" = 0;
"5" = 0;
"6" = 0;
"7" = 0;
"8" = 0;
"9" = 0;
};
};
width = 581;
},
{
layerId = "66114D67-63CC-4821-8086-0090D571F0A1";
shapes = (
{
attr = {
identifier = ID0x37be8a340;
};
closed = 1;
nodes = (
(368.692,-15,o),
(501.395,54.937,o),
(539.055,232.023,cs),
(572.082,387.32,o),
(489.299,479,o),
(370.24,478.631,cs),
(304.299,479,o),
(232.197,455,o),
(195.803,376,c),
(214.188,389,l),
(319.3,693,l),
(205.645,584.816,l),
(549.169,584.816,l),
(573.652,700,l),
(196.992,700,l),
(75.695,356.35,l),
(175.706,282.592,l),
(203.328,338,o),
(258.642,363,o),
(305.037,362.573,cs),
(370.642,363,o),
(412.927,322,o),
(395.01,236.243,cs),
(376.58,151,o),
(310.952,101,o),
(246.081,101.058,cs),
(187.952,101,o),
(142.092,144,o),
(152.01,219.893,c),
(9.814,189.874,l),
(-5.526,47,o),
(105.363,-15,o),
(237.907,-15,cs)
);
}
);
userData = {
com.hugojourdan.ColorFlow = {
"0" = 0;
"1" = 0;
"10" = 0;
"11" = 0;
"2" = 0;
"3" = 0;
"4" = 0;
"5" = 0;
"6" = 0;
"7" = 0;
"8" = 0;
"9" = 0;
};
};
width = 577;
}
);
unicode = 53;
},
{
glyphname = six;
kernLeft = KO_six;
kernRight = KO_six;
layers = (
{
layerId = "73572E25-487C-487F-975F-150A505979A5";
shapes = (
{
attr = {
identifier = ID0x1492ec2d0;
};
closed = 1;
nodes = (
(374.13,-15,o),
(495.256,57.202,o),
(529.314,217.432,cs),
(565.193,386.229,o),
(471.929,472,o),
(359.299,472,cs),
(249.241,472,o),
(159.05,403,o),
(131.565,318,c),
(135.101,297,l),
(151.468,374,ls),
(179.4,496,o),
(239.622,657,o),
(386.622,657,cs),
(453.622,657,o),
(500.057,612,o),
(497.414,529,c),
(571.815,545,l),
(577.984,654,o),
(498.216,715,o),
(393.95,715,cs),
(195.444,715,o),
(109.546,534.921,o),
(75.641,387.77,cs),
(20.856,150,o),
(48.103,-15,o),
(248.784,-15,cs)
);
},
{
attr = {
identifier = ID0x1492ec2d0;
};
closed = 1;
nodes = (
(152.437,45,o),
(107.479,120,o),
(131.285,232,cs),
(160.402,368.985,o),
(268.888,412,o),
(340.545,412,cs),
(433.199,412,o),
(482.367,350,o),
(457.285,232,cs),
(433.529,120.236,o),
(348.141,45,o),
(262.537,45,cs)
);
}
);
userData = {
com.hugojourdan.ColorFlow = {
"0" = 0;
"1" = 0;
"10" = 0;
"11" = 0;
"2" = 0;
"3" = 0;
"4" = 0;
"5" = 0;
"6" = 0;
"7" = 0;
"8" = 0;
"9" = 0;
};
};
width = 581;
},
{
layerId = "66114D67-63CC-4821-8086-0090D571F0A1";
shapes = (
{
attr = {
identifier = ID0x1492ec2d0;
};
closed = 1;
nodes = (
(381.608,-15,o),
(508.158,50.917,o),
(544.876,223.47,cs),
(577.832,378.35,o),
(492.811,472,o),
(382.219,472,cs),
(279.811,472,o),
(201.42,409,o),
(173.788,324.631,c),
(175.914,297,l),
(192.281,374,ls),
(215.023,473,o),
(254.018,600,o),
(363.726,599.816,cs),
(407.018,600,o),
(448.129,577,o),
(439.888,505.476,c),
(593.483,545,l),
(592.921,656,o),
(510.462,715,o),
(400.598,715,cs),
(178.462,715,o),
(90.265,540,o),
(47.81,361.505,cs),
(-2.845,149,o),
(30.914,-15,o),
(255.053,-15,cs)
);
},
{
attr = {
identifier = ID0x1492ec2d0;
};
closed = 1;
nodes = (
(192.952,101,o),
(154.368,150,o),
(172.098,232,cs),
(190.927,322,o),
(263.367,357,o),
(319.201,356.816,cs),
(383.367,357,o),
(420.652,316,o),
(402.875,232,cs),
(385.58,151,o),
(323.952,101,o),
(261.47,101.058,cs)
);
}
);
userData = {
com.hugojourdan.ColorFlow = {
"0" = 0;
"1" = 0;
"10" = 0;
"11" = 0;
"2" = 0;
"3" = 0;
"4" = 0;
"5" = 0;
"6" = 0;
"7" = 0;
"8" = 0;
"9" = 0;
};
};
width = 590;
}
);
unicode = 54;
userData = {
KernOnName = six;
};
},
{
glyphname = seven;
kernLeft = KO_seven;
kernRight = KO_seven;
layers = (
{
layerId = "73572E25-487C-487F-975F-150A505979A5";
shapes = (
{
closed = 1;
nodes = (
(174.972,0,l),
(581.82,625,l),
(597.762,700,l),
(145.762,700,l),
(133.008,640,l),
(532.008,640,l),
(536.298,679,l),
(76.972,0,l)
);
}
);
userData = {
com.hugojourdan.ColorFlow = {
"0" = 0;
"1" = 0;
"10" = 0;
"11" = 0;
"2" = 0;
"3" = 0;
"4" = 0;
"5" = 0;
"6" = 0;
"7" = 0;
"8" = 0;
"9" = 0;
};
};
width = 537;
},
{
layerId = "66114D67-63CC-4821-8086-0090D571F0A1";
shapes = (
{
closed = 1;
nodes = (
(221.406,0,l),
(586.004,568.689,l),
(614.1,700.874,l),
(142.081,700.874,l),
(117.598,585.689,l),
(536.617,585.689,l),
(525.229,679.874,l),
(51.96,0,l)
);
}
);
userData = {
com.hugojourdan.ColorFlow = {
"0" = 0;
"1" = 0;
"10" = 0;
"11" = 0;
"2" = 0;
"3" = 0;
"4" = 0;
"5" = 0;
"6" = 0;
"7" = 0;
"8" = 0;
"9" = 0;
};
};
width = 555;
}
);
unicode = 55;
},
{
glyphname = eight;
kernLeft = KO_eight;
kernRight = KO_eight;
layers = (
{
layerId = "73572E25-487C-487F-975F-150A505979A5";
shapes = (
{
attr = {
identifier = ID0x7f82b6528300;
};
closed = 1;
nodes = (
(383.064,-13,o),
(468.73,73.543,o),
(490.156,174.346,cs),
(511.2,273.35,o),
(473.702,351.703,o),
(388.106,377,c),
(386.405,369,l),
(465.294,392.732,o),
(518.444,458.863,o),
(533.777,531,cs),
(555.111,631.37,o),
(501.82,713,o),
(367.525,713,cs),
(242.405,713,o),
(156.733,636.884,o),
(136.777,543,cs),
(120.844,468.04,o),
(145.379,396.615,o),
(212.618,370,c),
(213.893,376,l),
(132.706,355.767,o),
(52.476,283.942,o),
(33.783,196,cs),
(9.121,79.974,o),
(73.044,-13,o),
(228.209,-13,cs)
);
},
{
attr = {
identifier = ID0x7f82b6528300;
};
closed = 1;
nodes = (
(124.962,47,o),
(89.778,112,o),
(106.995,193,cs),
(124,273,o),
(195.816,338,o),
(293.816,338,cs),
(381.816,338,o),
(436,273,o),
(418.995,193,cs),
(401.778,112,o),
(348.962,47,o),
(231.962,47,cs)
);
},
{
attr = {
identifier = ID0x7f82b6528300;
};
closed = 1;
nodes = (
(238.333,411,o),
(199.449,468,o),
(213.69,535,cs),
(227.506,600,o),
(269.771,653,o),
(360.771,653,cs),
(441.771,653,o),
(472.506,600,o),
(458.69,535,cs),
(444.446,467.987,o),
(390.333,411,o),
(309.333,411,cs)
);
}
);
userData = {
com.hugojourdan.ColorFlow = {
"0" = 0;
"1" = 0;
"10" = 0;
"11" = 0;
"2" = 0;
"3" = 0;
"4" = 0;
"5" = 0;
"6" = 0;
"7" = 0;
"8" = 0;
"9" = 0;
};
};
width = 560;
},
{
layerId = "66114D67-63CC-4821-8086-0090D571F0A1";
shapes = (
{
attr = {
identifier = ID0x7f82b6528300;
};
closed = 1;
nodes = (
(390.537,-13,o),
(491.375,59.61,o),
(517.069,186.507,cs),
(536,280,o),
(502.729,354,o),
(421.531,377,c),
(419.83,369,l),
(495.806,389,o),
(545.772,450,o),
(559.834,517.314,cs),
(582.119,624,o),
(518.08,713,o),
(365.542,713,cs),
(224.559,713,o),
(131.301,634.847,o),
(110.244,529.952,cs),
(95.197,455,o),
(117.019,393,o),
(182.227,370,c),
(183.503,376,l),
(93.304,352,o),
(29.787,289,o),
(13.052,206.31,cs),
(-12.511,80,o),
(60.571,-13,o),
(234.226,-13,cs)
);
},
{
attr = {
identifier = ID0x7f82b6528300;
};
closed = 1;
nodes = (
(168.89,96,o),
(144.155,149,o),
(158.303,214.146,cs),
(171.575,278,o),
(230.565,325,o),
(292.987,324.612,cs),
(354.565,325,o),
(393.787,279,o),
(379.711,214.146,cs),
(366.368,150,o),
(319.89,96,o),
(244.485,96.427,cs)
);
},
{
attr = {
identifier = ID0x7f82b6528300;
};
closed = 1;
nodes = (
(264.396,423,o),
(235.323,465,o),
(246.424,515.854,cs),
(256.579,565,o),
(294.868,604,o),
(352.282,603.573,cs),
(408.868,604,o),
(431.791,566,o),
(420.851,515.854,cs),
(410.536,466,o),
(364.396,423,o),
(313.983,423.388,cs)
);
}
);
userData = {
com.hugojourdan.ColorFlow = {
"0" = 0;
"1" = 0;
"10" = 0;
"11" = 0;
"2" = 0;
"3" = 0;
"4" = 0;
"5" = 0;
"6" = 0;
"7" = 0;
"8" = 0;
"9" = 0;
};
};
width = 566;
}
);
metricRight = "=|";
unicode = 56;
},
{
glyphname = nine;
kernLeft = KO_nine;
kernRight = KO_nine;
layers = (
{
layerId = "73572E25-487C-487F-975F-150A505979A5";
shapes = (
{
attr = {
identifier = ID0x32713d930;
};
closed = 1;
nodes = (
(245.513,715,o),
(118.793,643.031,o),
(82.655,473.012,cs),
(48.807,313.771,o),
(137.824,228,o),
(264.701,228,cs),
(359.354,228,o),
(453.688,297,o),
(482.435,382,c),
(478.899,403,l),
(462.532,326,ls),
(434.6,204,o),
(374.378,43,o),
(227.378,43,cs),
(160.378,43,o),
(113.943,88,o),
(121.586,171,c),
(42.185,155,l),
(36.016,46,o),
(112.251,-15,o),
(228.05,-15,cs),
(421.534,-15,o),
(497.792,146.916,o),
(536.984,312.593,cs),
(593.144,550,o),
(567.056,715,o),
(368.216,715,cs)
);
},
{
attr = {
identifier = ID0x32713d930;
};
closed = 1;
nodes = (
(461.563,655,o),
(506.521,580,o),
(482.715,468,cs),
(453.654,331.282,o),
(351.03,288,o),
(282.455,288,cs),
(183.922,288,o),
(131.633,350,o),
(156.715,468,cs),
(180.473,579.775,o),
(265.859,655,o),
(356.463,655,cs)
);
}
);
userData = {
com.hugojourdan.ColorFlow = {
"0" = 0;
"1" = 0;
"10" = 0;
"11" = 0;
"2" = 0;
"3" = 0;
"4" = 0;
"5" = 0;
"6" = 0;
"7" = 0;
"8" = 0;
"9" = 0;
};
};
width = 581;
},
{
layerId = "66114D67-63CC-4821-8086-0090D571F0A1";
shapes = (
{
attr = {
identifier = ID0x367b60d50;
};
closed = 1;
nodes = (
(238.384,715,o),
(110.668,659.53,o),
(73.304,473.059,cs),
(40.831,311,o),
(135.959,228,o),
(247.781,228,cs),
(350.363,228,o),
(421.232,291,o),
(446.212,375.369,c),
(444.086,403,l),
(427.719,326,ls),
(404.977,227,o),
(365.982,100,o),
(256.274,100.184,cs),
(212.982,100,o),
(171.871,123,o),
(180.112,194.524,c),
(26.517,155,l),
(27.166,44,o),
(122.45,-15,o),
(249.402,-15,cs),
(452.722,-15,o),
(529.913,130.805,o),
(573.571,328.205,cs),
(622.845,551,o),
(589.086,715,o),
(364.947,715,cs)
);
},
{
attr = {
identifier = ID0x367b60d50;
};
closed = 1;
nodes = (
(423.445,599.005,o),
(465.632,550,o),
(447.902,468,cs),
(429.126,378.257,o),
(362.838,343.013,o),
(310.799,343.184,cs),
(240.308,342.982,o),
(199.348,384,o),
(216.797,471.066,cs),
(234.372,558.76,o),
(290.456,598.996,o),
(351.53,599,cs)
);
}
);
userData = {
com.hugojourdan.ColorFlow = {
"0" = 0;
"1" = 0;
"10" = 0;
"11" = 0;
"2" = 0;
"3" = 0;
"4" = 0;
"5" = 0;
"6" = 0;
"7" = 0;
"8" = 0;
"9" = 0;
};
};
width = 590;
}
);
unicode = 57;
},
{
glyphname = zero.zero;
kernLeft = KO_zero;
kernRight = KO_zero;
lastChange = "2025-02-06 07:51:02 +0000";
layers = (
{
layerId = "73572E25-487C-487F-975F-150A505979A5";
shapes = (
{
closed = 1;
nodes = (
(531.356,604,l),
(493.984,654,l),
(112.74,93,l),
(157.812,51,l)
);
},
{
alignment = -1;
ref = zero;
}
);
userData = {
com.hugojourdan.ColorFlow = {
"0" = 0;
"1" = 0;
"10" = 0;
"11" = 0;
"2" = 0;
"3" = 0;
"4" = 0;
"5" = 0;
"6" = 0;
"7" = 0;
"8" = 0;
"9" = 0;
};
};
width = 648;
},
{
layerId = "66114D67-63CC-4821-8086-0090D571F0A1";
shapes = (
{
closed = 1;
nodes = (
(541.861,574,l),
(469.109,634,l),
(100.618,133,l),
(181.07,81,l)
);
},
{
alignment = -1;
ref = zero;
}
);
userData = {
com.hugojourdan.ColorFlow = {
"0" = 0;
"1" = 0;
"10" = 0;
"11" = 0;
"2" = 0;
"3" = 0;
"4" = 0;
"5" = 0;
"6" = 0;
"7" = 0;
"8" = 0;
"9" = 0;
};
};
width = 629;
}
);
metricLeft = zero;
metricRight = zero;
},
{
glyphname = one.tf;
lastChange = "2025-02-06 07:51:02 +0000";
layers = (
{
layerId = "73572E25-487C-487F-975F-150A505979A5";
shapes = (
{
closed = 1;
nodes = (
(298.972,0,l),
(447.762,700,l),
(245.762,700,l),
(176.008,640,l),
(396.008,640,l),
(368.786,686,l),
(222.972,0,l)
);
},
{
closed = 1;
nodes = (
(457.725,60,l),
(61.725,60,l),
(48.972,0,l),
(444.972,0,l)
);
}
);
userData = {
com.hugojourdan.ColorFlow = {
"0" = 0;
"1" = 0;
"10" = 0;
"11" = 0;
"2" = 0;
"3" = 0;
"4" = 0;
"5" = 0;
"6" = 0;
"7" = 0;
"8" = 0;
"9" = 0;
};
};
width = 600;
},
{
layerId = "66114D67-63CC-4821-8086-0090D571F0A1";
shapes = (
{
closed = 1;
nodes = (
(344.028,0,l),
(492.817,700,l),
(215.497,700,l),
(133.271,581.32,l),
(357.65,581.32,l),
(342.9,686,l),
(197.086,0,l)
);
},
{
closed = 1;
nodes = (
(497.487,118.68,l),
(43.934,118.68,l),
(18.707,0,l),
(472.261,0,l)
);
}
);
userData = {
com.hugojourdan.ColorFlow = {
"0" = 0;
"1" = 0;
"10" = 0;
"11" = 0;
"2" = 0;
"3" = 0;
"4" = 0;
"5" = 0;
"6" = 0;
"7" = 0;
"8" = 0;
"9" = 0;
};
};
width = 600;
}
);
metricRight = "=|";
metricWidth = "=600";
},
{
glyphname = zero.tf.zero;
lastChange = "2025-02-06 07:51:02 +0000";
layers = (
{
layerId = "73572E25-487C-487F-975F-150A505979A5";
shapes = (
{
closed = 1;
nodes = (
(513.356,604,l),
(475.984,654,l),
(94.74,93,l),
(139.812,51,l)
);
},
{
alignment = 1;
pos = (-24,0);
ref = zero;
}
);
userData = {
com.hugojourdan.ColorFlow = {
"0" = 0;
"1" = 0;
"10" = 0;
"11" = 0;
"2" = 0;
"3" = 0;
"4" = 0;
"5" = 0;
"6" = 0;
"7" = 0;
"8" = 0;
"9" = 0;
};
};
width = 600;
},
{
layerId = "66114D67-63CC-4821-8086-0090D571F0A1";
shapes = (
{
closed = 1;
nodes = (
(543.365,574,l),
(461.119,634,l),
(92.628,133,l),
(182.575,81,l)
);
},
{
alignment = 1;
pos = (-14,0);
ref = zero;
}
);
userData = {
com.hugojourdan.ColorFlow = {
"0" = 0;
"1" = 0;
"10" = 0;
"11" = 0;
"2" = 0;
"3" = 0;
"4" = 0;
"5" = 0;
"6" = 0;
"7" = 0;
"8" = 0;
"9" = 0;
};
};
width = 600;
}
);
metricRight = "=|";
metricWidth = "=600";
},
{
color = 0;
glyphname = fraction;
lastChange = "2025-02-06 07:51:02 +0000";
layers = (
{
background = {
shapes = (
{
attr = {
strokeHeight = 65;
strokeWidth = 65;
};
closed = 0;
nodes = (
(550,700,l),
(-50,0,l)
);
}
);
};
layerId = "73572E25-487C-487F-975F-150A505979A5";
shapes = (
{
closed = 1;
nodes = (
(459.361,684,l),
(422.225,721,l),
(-326.564,21,l),
(-289.429,-16,l)
);
}
);
userData = {
com.hugojourdan.ColorFlow = {
"0" = 0;
"1" = 0;
"10" = 0;
"11" = 0;
"2" = 0;
"3" = 0;
"4" = 0;
"5" = 0;
"6" = 0;
"7" = 0;
"8" = 0;
"9" = 0;
};
};
width = 99;
},
{
layerId = "66114D67-63CC-4821-8086-0090D571F0A1";
shapes = (
{
closed = 1;
nodes = (
(472.939,680.107,l),
(424.04,729.505,l),
(-324.749,29.505,l),
(-275.851,-19.893,l)
);
}
);
userData = {
com.hugojourdan.ColorFlow = {
"0" = 0;
"1" = 0;
"10" = 0;
"11" = 0;
"2" = 0;
"3" = 0;
"4" = 0;
"5" = 0;
"6" = 0;
"7" = 0;
"8" = 0;
"9" = 0;
};
};
width = 116;
}
);
metricRight = "=|";
unicode = 8260;
},
{
color = 0;
glyphname = zeroinferior;
lastChange = "2025-02-06 07:51:02 +0000";
layers = (
{
background = {
shapes = (
{
pos = (42,-150);
ref = zero;
scale = (0.44,0.44);
}
);
};
layerId = "73572E25-487C-487F-975F-150A505979A5";
shapes = (
{
closed = 1;
nodes = (
(176.026,-155,o),
(227.267,-88,o),
(246.822,4,cs),
(266.59,97,o),
(243.831,164,o),
(165.831,164,cs),
(84.831,164,o),
(32.377,96,o),
(12.822,4,cs),
(-6.733,-88,o),
(18.026,-155,o),
(98.026,-155,cs)
);
},
{
closed = 1;
nodes = (
(56.953,-113,o),
(50.093,-70,o),
(65.822,4,cs),
(81.764,79,o),
(106.904,122,o),
(156.904,122,cs),
(203.904,122,o),
(209.977,80,o),
(193.822,4,cs),
(177.881,-71,o),
(153.953,-113,o),
(106.953,-113,cs)
);
}
);
userData = {
com.hugojourdan.ColorFlow = {
"0" = 0;
"1" = 0;
"10" = 0;
"11" = 0;
"2" = 0;
"3" = 0;
"4" = 0;
"5" = 0;
"6" = 0;
"7" = 0;
"8" = 0;
"9" = 0;
};
};
width = 374;
},
{
layerId = "66114D67-63CC-4821-8086-0090D571F0A1";
shapes = (
{
closed = 1;
nodes = (
(157.538,-155,o),
(210.779,-88,o),
(230.694,4,cs),
(249.89,96,o),
(225.343,164,o),
(144.198,164,cs),
(58.343,164,o),
(4.102,97,o),
(-15.442,4,cs),
(-35.008,-87,o),
(-9.462,-155,o),
(76.392,-155,cs)
);
},
{
closed = 1;
nodes = (
(51.716,-93,o),
(49.156,-58,o),
(61.956,4,cs),
(75.513,66,o),
(92.165,102,o),
(131.042,102.107,cs),
(164.165,102,o),
(166.725,67,o),
(153.422,4,cs),
(140.368,-57,o),
(124.716,-93,o),
(89.548,-93.107,cs)
);
}
);
userData = {
com.hugojourdan.ColorFlow = {
"0" = 0;
"1" = 0;
"10" = 0;
"11" = 0;
"2" = 0;
"3" = 0;
"4" = 0;
"5" = 0;
"6" = 0;
"7" = 0;
"8" = 0;
"9" = 0;
};
};
width = 334;
}
);
metricLeft = zero;
metricRight = zero;
unicode = 8320;
},
{
color = 0;
glyphname = oneinferior;
lastChange = "2025-02-06 07:51:02 +0000";
layers = (
{
background = {
shapes = (
{
pos = (23,-150);
ref = one;
scale = (0.44,0.44);
}
);
};
layerId = "73572E25-487C-487F-975F-150A505979A5";
shapes = (
{
closed = 1;
nodes = (
(74.089,-150,l),
(139.556,158,l),
(36.556,158,l),
(2.629,116,l),
(93.629,116,l),
(85.281,152,l),
(21.089,-150,l)
);
}
);
userData = {
com.hugojourdan.ColorFlow = {
"0" = 0;
"1" = 0;
"10" = 0;
"11" = 0;
"2" = 0;
"3" = 0;
"4" = 0;
"5" = 0;
"6" = 0;
"7" = 0;
"8" = 0;
"9" = 0;
};
};
width = 285;
},
{
layerId = "66114D67-63CC-4821-8086-0090D571F0A1";
shapes = (
{
closed = 1;
nodes = (
(88.989,-150,l),
(154.456,158,l),
(32.563,158,l),
(-5.619,95.981,l),
(81.002,95.981,l),
(76.783,152,l),
(12.591,-150,l)
);
}
);
userData = {
com.hugojourdan.ColorFlow = {
"0" = 0;
"1" = 0;
"10" = 0;
"11" = 0;
"2" = 0;
"3" = 0;
"4" = 0;
"5" = 0;
"6" = 0;
"7" = 0;
"8" = 0;
"9" = 0;
};
};
width = 270;
}
);
metricLeft = one;
metricRight = one;
unicode = 8321;
},
{
color = 0;
glyphname = twoinferior;
lastChange = "2025-02-06 07:51:02 +0000";
layers = (
{
background = {
shapes = (
{
pos = (27,-150);
ref = two;
scale = (0.44,0.44);
}
);
};
layerId = "73572E25-487C-487F-975F-150A505979A5";
shapes = (
{
closed = 1;
nodes = (
(181.089,-150,l),
(190.229,-107,l),
(-2.771,-107,l),
(16.915,-132,l),
(97.881,-71,ls),
(166.933,-19,o),
(209.648,22,o),
(220.489,73,cs),
(232.604,130,o),
(199.044,165,o),
(141.044,165,cs),
(88.044,165,o),
(31.305,138,o),
(11,66,c),
(59.387,49,l),
(73.078,104,o),
(101.691,121,o),
(128.691,121,cs),
(152.691,121,o),
(171.653,102,o),
(165.489,73,cs),
(158.899,42,o),
(133.16,15,o),
(86.296,-22,cs),
(-15.709,-102,l),
(-25.911,-150,l)
);
}
);
userData = {
com.hugojourdan.ColorFlow = {
"0" = 0;
"1" = 0;
"10" = 0;
"11" = 0;
"2" = 0;
"3" = 0;
"4" = 0;
"5" = 0;
"6" = 0;
"7" = 0;
"8" = 0;
"9" = 0;
};
};
width = 311;
},
{
layerId = "66114D67-63CC-4821-8086-0090D571F0A1";
shapes = (
{
closed = 1;
nodes = (
(187.591,-150,l),
(200.959,-87.107,l),
(-4.177,-87.107,l),
(18.63,-128.621,l),
(100.326,-75.379,ls),
(176.958,-26,o),
(214.46,14,o),
(226.034,68.495,cs),
(238.691,128,o),
(205.556,165,o),
(137.663,165,cs),
(71.556,165,o),
(20.054,125,o),
(2.241,66,c),
(70.025,41.369,l),
(80.489,80,o),
(100.165,102,o),
(123.547,102.107,cs),
(141.165,102,o),
(153.402,89,o),
(149.014,68.495,cs),
(144.049,45,o),
(124.798,25,o),
(88.269,-2.107,cs),
(-15.917,-76.476,l),
(-31.545,-150,l)
);
}
);
userData = {
com.hugojourdan.ColorFlow = {
"0" = 0;
"1" = 0;
"10" = 0;
"11" = 0;
"2" = 0;
"3" = 0;
"4" = 0;
"5" = 0;
"6" = 0;
"7" = 0;
"8" = 0;
"9" = 0;
};
};
width = 320;
}
);
metricLeft = two;
metricRight = two;
unicode = 8322;
},
{
color = 0;
glyphname = threeinferior;
lastChange = "2025-02-06 07:51:02 +0000";
layers = (
{
background = {
shapes = (
{
pos = (24,-150);
ref = three;
scale = (0.44,0.44);
}
);
};
layerId = "73572E25-487C-487F-975F-150A505979A5";
shapes = (
{
attr = {
identifier = ID0x35f242d10;
};
closed = 1;
nodes = (
(133.601,-157,o),
(184.678,-119,o),
(196.581,-63,cs),
(205.083,-23,o),
(185.46,7,o),
(149.735,13,c),
(147.885,9,l),
(182.16,15,o),
(211.325,44,o),
(219.614,83,cs),
(230.455,134,o),
(198.044,165,o),
(139.044,165,cs),
(76.044,165,o),
(33.817,131,o),
(14.977,80,c),
(65.213,67,l),
(75.503,106,o),
(100.117,123,o),
(129.117,123,cs),
(158.117,123,o),
(171.503,106,o),
(165.764,79,cs),
(159.175,48,o),
(137.986,33,o),
(104.986,33,cs),
(80.986,33,l),
(71.421,-12,l),
(92.421,-12,ls),
(134.421,-12,o),
(150.383,-31,o),
(143.368,-64,cs),
(137.204,-93,o),
(111.741,-114,o),
(81.741,-114,cs),
(50.741,-114,o),
(30.142,-98,o),
(34.707,-53,c),
(-19.206,-62,l),
(-26.385,-124,o),
(7.601,-157,o),
(72.601,-157,cs)
);
}
);
userData = {
com.hugojourdan.ColorFlow = {
"0" = 0;
"1" = 0;
"10" = 0;
"11" = 0;
"2" = 0;
"3" = 0;
"4" = 0;
"5" = 0;
"6" = 0;
"7" = 0;
"8" = 0;
"9" = 0;
};
};
width = 315;
},
{
layerId = "66114D67-63CC-4821-8086-0090D571F0A1";
shapes = (
{
attr = {
identifier = ID0x35f242d10;
};
closed = 1;
nodes = (
(131.113,-157,o),
(184.402,-118,o),
(196.193,-60.748,cs),
(204.595,-23,o),
(186.972,7,o),
(151.941,12.748,c),
(150.091,8.748,l),
(182.673,15,o),
(211.049,45,o),
(218.196,78.621,cs),
(229.967,134,o),
(194.556,165,o),
(131.663,165,cs),
(65.556,165,o),
(19.967,134,o),
(-3.468,78.01,c),
(68,58.379,l),
(72.339,84,o),
(91.377,103,o),
(114.102,102.981,cs),
(134.377,103,o),
(145.039,92,o),
(140.442,72.243,cs),
(136.537,52,o),
(119.986,40,o),
(95.499,40.126,cs),
(67.372,40.126,l),
(54.192,-21.883,l),
(80.444,-21.883,ls),
(113.808,-22,o),
(124.62,-37,o),
(120.301,-58.369,cs),
(115.692,-79,o),
(97.504,-94,o),
(75.462,-94.107,cs),
(51.504,-94,o),
(35.48,-80,o),
(39.648,-49.748,c),
(-38.684,-63,l),
(-45.66,-123,o),
(-8.887,-157,o),
(63.346,-157,cs)
);
}
);
userData = {
com.hugojourdan.ColorFlow = {
"0" = 0;
"1" = 0;
"10" = 0;
"11" = 0;
"2" = 0;
"3" = 0;
"4" = 0;
"5" = 0;
"6" = 0;
"7" = 0;
"8" = 0;
"9" = 0;
};
};
width = 314;
}
);
metricLeft = three;
metricRight = three;
unicode = 8323;
},
{
color = 0;
glyphname = fourinferior;
lastChange = "2025-02-06 07:51:02 +0000";
layers = (
{
background = {
shapes = (
{
pos = (-12,-150);
ref = four;
scale = (0.44,0.44);
}
);
};
layerId = "73572E25-487C-487F-975F-150A505979A5";
shapes = (
{
closed = 1;
nodes = (
(109.089,-150,l),
(174.556,158,l),
(92.556,158,l),
(-52.405,-30,l),
(-61.757,-74,l),
(168.243,-74,l),
(177.17,-32,l),
(-31.83,-32,l),
(-26.569,-59,l),
(115.179,128,l),
(126.179,128,l),
(116.88,136,l),
(56.089,-150,l)
);
}
);
userData = {
com.hugojourdan.ColorFlow = {
"0" = 0;
"1" = 0;
"10" = 0;
"11" = 0;
"2" = 0;
"3" = 0;
"4" = 0;
"5" = 0;
"6" = 0;
"7" = 0;
"8" = 0;
"9" = 0;
};
};
width = 304;
},
{
layerId = "66114D67-63CC-4821-8086-0090D571F0A1";
shapes = (
{
closed = 1;
nodes = (
(129.261,-150,l),
(194.728,158,l),
(81.573,158,l),
(-48.715,-13.359,l),
(-62.322,-77.379,l),
(180.94,-77.379,l),
(194.122,-15.359,l),
(-30.392,-15.359,l),
(-18.251,-62.379,l),
(109.782,112.485,l),
(125.287,112.485,l),
(110.144,119.485,l),
(52.863,-150,l)
);
}
);
userData = {
com.hugojourdan.ColorFlow = {
"0" = 0;
"1" = 0;
"10" = 0;
"11" = 0;
"2" = 0;
"3" = 0;
"4" = 0;
"5" = 0;
"6" = 0;
"7" = 0;
"8" = 0;
"9" = 0;
};
};
width = 298;
}
);
metricLeft = four;
metricRight = four;
unicode = 8324;
},
{
color = 0;
glyphname = fiveinferior;
lastChange = "2025-02-06 07:51:02 +0000";
layers = (
{
background = {
shapes = (
{
pos = (27,-150);
ref = five;
scale = (0.44,0.44);
}
);
};
layerId = "73572E25-487C-487F-975F-150A505979A5";
shapes = (
{
attr = {
identifier = ID0x35f2d4650;
};
closed = 1;
nodes = (
(126,-157,o),
(186,-123,o),
(202,-45,cs),
(217,23,o),
(181,59,o),
(127,59,cs),
(98,59,o),
(65,47,o),
(50,15,c),
(59,21,l),
(105,155,l),
(62,116,l),
(210,116,l),
(219,158,l),
(59,158,l),
(5,4,l),
(40,-22,l),
(56,7,o),
(84,17,o),
(106,17,cs),
(139,17,o),
(159,-4,o),
(150,-46,cs),
(141,-88,o),
(109,-114,o),
(75,-114,cs),
(46,-114,o),
(23,-92,o),
(28,-55,c),
(-24,-65,l),
(-31,-127,o),
(11,-157,o),
(67,-157,cs)
);
}
);
userData = {
com.hugojourdan.ColorFlow = {
"0" = 0;
"1" = 0;
"10" = 0;
"11" = 0;
"2" = 0;
"3" = 0;
"4" = 0;
"5" = 0;
"6" = 0;
"7" = 0;
"8" = 0;
"9" = 0;
};
};
width = 321;
},
{
layerId = "66114D67-63CC-4821-8086-0090D571F0A1";
shapes = (
{
attr = {
identifier = ID0x35f2d4650;
};
closed = 1;
nodes = (
(113.113,-157,o),
(177.34,-123,o),
(194.631,-42.748,cs),
(207.948,21,o),
(171.6,57,o),
(119.905,56.748,cs),
(90.6,57,o),
(61.262,46,o),
(46.284,15,c),
(54.433,21,l),
(98.79,155,l),
(40.109,95.981,l),
(195.866,95.981,l),
(209.049,158,l),
(36.913,158,l),
(-18.797,0,l),
(37.778,-31.505,l),
(47.146,-11,o),
(68.272,-1,o),
(85.671,-0.767,cs),
(107.272,-1,o),
(125.296,-15,o),
(118.09,-48.126,cs),
(111.905,-78,o),
(87.504,-94,o),
(65.083,-94.107,cs),
(44.504,-94,o),
(26.48,-80,o),
(30.839,-50.631,c),
(-44.869,-67.388,l),
(-51.723,-128,o),
(-5.887,-157,o),
(51.715,-157,cs)
);
}
);
userData = {
com.hugojourdan.ColorFlow = {
"0" = 0;
"1" = 0;
"10" = 0;
"11" = 0;
"2" = 0;
"3" = 0;
"4" = 0;
"5" = 0;
"6" = 0;
"7" = 0;
"8" = 0;
"9" = 0;
};
};
width = 292;
}
);
metricLeft = five;
metricRight = five;
unicode = 8325;
},
{
color = 0;
glyphname = sixinferior;
lastChange = "2025-02-06 07:51:02 +0000";
layers = (
{
background = {
shapes = (
{
pos = (31,-150);
ref = six;
scale = (0.44,0.44);
}
);
};
layerId = "73572E25-487C-487F-975F-150A505979A5";
shapes = (
{
attr = {
identifier = ID0x35f2d51e0;
};
closed = 1;
nodes = (
(131.601,-157,o),
(191.615,-124,o),
(208.194,-46,cs),
(222.648,22,o),
(184.3,58,o),
(135.3,58,cs),
(91.3,58,o),
(53.136,29,o),
(40.272,-8,c),
(41.933,-19,l),
(49.16,15,ls),
(58.725,60,o),
(79.117,123,o),
(134.117,123,cs),
(158.117,123,o),
(175.928,108,o),
(172.126,76,c),
(229.102,90,l),
(230.092,137,o),
(196.044,165,o),
(146.044,165,cs),
(60.044,165,o),
(16.015,99,o),
(-5.327,8,cs),
(-26.883,-84,o),
(-14.399,-157,o),
(74.601,-157,cs)
);
},
{
attr = {
identifier = ID0x35f2d51e0;
};
closed = 1;
nodes = (
(48.741,-114,o),
(31.267,-88,o),
(39.769,-48,cs),
(49.76,-1,o),
(87.373,16,o),
(114.373,16,cs),
(146.373,16,o),
(164.909,-5,o),
(155.769,-48,cs),
(147.267,-88,o),
(115.741,-114,o),
(84.741,-114,cs)
);
}
);
userData = {
com.hugojourdan.ColorFlow = {
"0" = 0;
"1" = 0;
"10" = 0;
"11" = 0;
"2" = 0;
"3" = 0;
"4" = 0;
"5" = 0;
"6" = 0;
"7" = 0;
"8" = 0;
"9" = 0;
};
};
width = 319;
},
{
layerId = "66114D67-63CC-4821-8086-0090D571F0A1";
shapes = (
{
attr = {
identifier = ID0x35f2d51e0;
};
closed = 1;
nodes = (
(121.113,-157,o),
(183.552,-122,o),
(199.454,-46,cs),
(213.948,21,o),
(179.812,58,o),
(129.812,58,cs),
(84.812,58,o),
(54.711,34,o),
(40.894,-5.748,c),
(42.077,-19,l),
(49.304,15,ls),
(57.962,54,o),
(72.59,104,o),
(113.265,103.612,cs),
(130.59,104,o),
(145.677,95,o),
(142.343,68.126,c),
(223.839,91.01,l),
(222.817,138,o),
(186.556,165,o),
(132.925,165,cs),
(38.556,165,o),
(-4.473,99,o),
(-26.641,11.243,cs),
(-50.796,-86,o),
(-32.887,-157,o),
(59.987,-157,cs)
);
},
{
attr = {
identifier = ID0x35f2d51e0;
};
closed = 1;
nodes = (
(49.504,-94,o),
(33.905,-78,o),
(39.886,-48.126,cs),
(46.658,-18,o),
(70.634,-4,o),
(92.494,-4.019,cs),
(114.634,-4,o),
(129.658,-18,o),
(123.109,-48.126,cs),
(117.117,-77,o),
(95.504,-94,o),
(73.345,-94.107,cs)
);
}
);
userData = {
com.hugojourdan.ColorFlow = {
"0" = 0;
"1" = 0;
"10" = 0;
"11" = 0;
"2" = 0;
"3" = 0;
"4" = 0;
"5" = 0;
"6" = 0;
"7" = 0;
"8" = 0;
"9" = 0;
};
};
width = 303;
}
);
metricLeft = six;
metricRight = six;
unicode = 8326;
},
{
color = 0;
glyphname = seveninferior;
lastChange = "2025-02-06 07:51:02 +0000";
layers = (
{
background = {
shapes = (
{
pos = (33,-150);
ref = seven;
scale = (0.44,0.44);
}
);
};
layerId = "73572E25-487C-487F-975F-150A505979A5";
shapes = (
{
closed = 1;
nodes = (
(58.089,-150,l),
(225.141,109,l),
(235.556,158,l),
(30.556,158,l),
(21.629,116,l),
(203.629,116,l),
(200.643,149,l),
(-0.911,-150,l)
);
}
);
userData = {
com.hugojourdan.ColorFlow = {
"0" = 0;
"1" = 0;
"10" = 0;
"11" = 0;
"2" = 0;
"3" = 0;
"4" = 0;
"5" = 0;
"6" = 0;
"7" = 0;
"8" = 0;
"9" = 0;
};
};
width = 290;
},
{
layerId = "66114D67-63CC-4821-8086-0090D571F0A1";
shapes = (
{
closed = 1;
nodes = (
(71.989,-150,l),
(223.65,88.981,l),
(238.321,158,l),
(26.689,158,l),
(13.507,95.981,l),
(202.138,95.981,l),
(192.398,149,l),
(-11.409,-150,l)
);
}
);
userData = {
com.hugojourdan.ColorFlow = {
"0" = 0;
"1" = 0;
"10" = 0;
"11" = 0;
"2" = 0;
"3" = 0;
"4" = 0;
"5" = 0;
"6" = 0;
"7" = 0;
"8" = 0;
"9" = 0;
};
};
width = 294;
}
);
metricLeft = seven;
metricRight = seven;
unicode = 8327;
},
{
color = 0;
glyphname = eightinferior;
lastChange = "2025-02-06 07:51:02 +0000";
layers = (
{
background = {
shapes = (
{
pos = (24,-150);
ref = eight;
scale = (0.44,0.44);
}
);
};
layerId = "73572E25-487C-487F-975F-150A505979A5";
shapes = (
{
attr = {
identifier = ID0x35f2d6900;
};
closed = 1;
nodes = (
(138,-156,o),
(184,-115,o),
(194,-65,cs),
(203,-25,o),
(186,6,o),
(150,16,c),
(150,12,l),
(184,22,o),
(207,50,o),
(213,80,cs),
(223,125,o),
(197,164,o),
(135,164,cs),
(75,164,o),
(32,126,o),
(22,80,cs),
(16,51,o),
(26,23,o),
(55,13,c),
(55,15,l),
(15,5,o),
(-14,-26,o),
(-22,-65,cs),
(-32,-115,o),
(-3,-156,o),
(67,-156,cs)
);
},
{
attr = {
identifier = ID0x35f2d6900;
};
closed = 1;
nodes = (
(38,-115,o),
(25,-90,o),
(31,-59,cs),
(38,-29,o),
(68,-5,o),
(99,-5,cs),
(131,-5,o),
(150,-29,o),
(143,-59,cs),
(137,-90,o),
(114,-115,o),
(76,-115,cs)
);
},
{
attr = {
identifier = ID0x35f2d6900;
};
closed = 1;
nodes = (
(82,35,o),
(68,55,o),
(73,80,cs),
(78,104,o),
(97,123,o),
(126,123,cs),
(156,123,o),
(166,104,o),
(161,80,cs),
(156,55,o),
(133,35,o),
(107,35,cs)
);
}
);
userData = {
com.hugojourdan.ColorFlow = {
"0" = 0;
"1" = 0;
"10" = 0;
"11" = 0;
"2" = 0;
"3" = 0;
"4" = 0;
"5" = 0;
"6" = 0;
"7" = 0;
"8" = 0;
"9" = 0;
};
};
width = 310;
},
{
layerId = "66114D67-63CC-4821-8086-0090D571F0A1";
shapes = (
{
attr = {
identifier = ID0x35f2d6900;
};
closed = 1;
nodes = (
(124,-156,o),
(174,-115,o),
(185,-63,cs),
(193,-26,o),
(179,6,o),
(146,16,c),
(145,12,l),
(177,22,o),
(199,48,o),
(205,78,cs),
(215,124,o),
(186,164,o),
(118,164,cs),
(52,164,o),
(6,125,o),
(-4,78,cs),
(-10,51,o),
(-1,22,o),
(27,13,c),
(28,15,l),
(-10,5,o),
(-37,-25,o),
(-44,-63,cs),
(-56,-114,o),
(-24,-156,o),
(50,-156,cs)
);
},
{
attr = {
identifier = ID0x35f2d6900;
};
closed = 1;
nodes = (
(37,-97,o),
(28,-78,o),
(33,-51,cs),
(39,-28,o),
(60,-9,o),
(82,-9,cs),
(103,-9,o),
(118,-27,o),
(112,-51,cs),
(107,-76,o),
(91,-97,o),
(63,-97,cs)
);
},
{
attr = {
identifier = ID0x35f2d6900;
};
closed = 1;
nodes = (
(76,39,o),
(64,53,o),
(68,72,cs),
(72,91,o),
(85,105,o),
(106,105,cs),
(126,105,o),
(135,92,o),
(131,72,cs),
(127,54,o),
(110,39,o),
(92,39,cs)
);
}
);
userData = {
com.hugojourdan.ColorFlow = {
"0" = 0;
"1" = 0;
"10" = 0;
"11" = 0;
"2" = 0;
"3" = 0;
"4" = 0;
"5" = 0;
"6" = 0;
"7" = 0;
"8" = 0;
"9" = 0;
};
};
width = 290;
}
);
metricLeft = eight;
metricRight = eight;
unicode = 8328;
},
{
color = 0;
glyphname = nineinferior;
lastChange = "2025-02-06 07:51:02 +0000";
layers = (
{
background = {
shapes = (
{
pos = (29,-150);
ref = nine;
scale = (0.44,0.44);
}
);
};
layerId = "73572E25-487C-487F-975F-150A505979A5";
shapes = (
{
attr = {
identifier = ID0x34eaae420;
};
closed = 1;
nodes = (
(70,165,o),
(10,132,o),
(-7,54,cs),
(-21,-14,o),
(17,-50,o),
(66,-50,cs),
(110,-50,o),
(149,-21,o),
(161,16,c),
(160,27,l),
(152,-7,ls),
(143,-52,o),
(123,-115,o),
(68,-115,cs),
(44,-115,o),
(27,-99,o),
(31,-68,c),
(-26,-82,l),
(-28,-130,o),
(8,-157,o),
(56,-157,cs),
(147,-157,o),
(187,-83,o),
(207,-1,cs),
(226,81,o),
(223,165,o),
(128,165,cs)
);
},
{
attr = {
identifier = ID0x34eaae420;
};
closed = 1;
nodes = (
(153,122,o),
(170,96,o),
(162,56,cs),
(152,9,o),
(114,-8,o),
(87,-8,cs),
(55,-8,o),
(37,13,o),
(46,56,cs),
(54,96,o),
(86,122,o),
(117,122,cs)
);
}
);
userData = {
com.hugojourdan.ColorFlow = {
"0" = 0;
"1" = 0;
"10" = 0;
"11" = 0;
"2" = 0;
"3" = 0;
"4" = 0;
"5" = 0;
"6" = 0;
"7" = 0;
"8" = 0;
"9" = 0;
};
};
width = 319;
},
{
layerId = "66114D67-63CC-4821-8086-0090D571F0A1";
shapes = (
{
attr = {
identifier = ID0x34eaae420;
};
closed = 1;
nodes = (
(63,165,o),
(0,131,o),
(-16,54,cs),
(-30,-13,o),
(5,-50,o),
(55,-50,cs),
(100,-50,o),
(131,-25,o),
(143,14,c),
(142,27,l),
(135,-7,ls),
(127,-46,o),
(111,-95,o),
(71,-95,cs),
(54,-95,o),
(39,-86,o),
(42,-60,c),
(-39,-83,l),
(-38,-130,o),
(-1,-157,o),
(51,-157,cs),
(143,-157,o),
(189,-94,o),
(210,-5,cs),
(236,96,o),
(217,165,o),
(125,165,cs)
);
},
{
attr = {
identifier = ID0x34eaae420;
};
closed = 1;
nodes = (
(135,102,o),
(151,86,o),
(144,56,cs),
(138,26,o),
(114,12,o),
(92,12,cs),
(70,12,o),
(55,26,o),
(62,56,cs),
(68,85,o),
(89,102,o),
(111,102,cs)
);
}
);
userData = {
com.hugojourdan.ColorFlow = {
"0" = 0;
"1" = 0;
"10" = 0;
"11" = 0;
"2" = 0;
"3" = 0;
"4" = 0;
"5" = 0;
"6" = 0;
"7" = 0;
"8" = 0;
"9" = 0;
};
};
width = 303;
}
);
metricLeft = nine;
metricRight = nine;
unicode = 8329;
},
{
glyphname = period;
kernLeft = KO_period;
kernRight = KO_period;
layers = (
{
layerId = "73572E25-487C-487F-975F-150A505979A5";
shapes = (
{
closed = 1;
nodes = (
(74.996,-14,o),
(101.31,7,o),
(107.32,37.075,cs),
(114.097,70.986,o),
(90.377,96,o),
(58.377,96,cs),
(24.377,96,o),
(-0.936,75,o),
(-6.947,44.925,cs),
(-14.3,8.13,o),
(8.996,-14,o),
(40.996,-14,cs)
);
}
);
userData = {
com.hugojourdan.ColorFlow = {
"0" = 0;
"1" = 0;
"10" = 0;
"11" = 0;
"2" = 0;
"3" = 0;
"4" = 0;
"5" = 0;
"6" = 0;
"7" = 0;
"8" = 0;
"9" = 0;
};
};
width = 199;
},
{
layerId = "66114D67-63CC-4821-8086-0090D571F0A1";
shapes = (
{
closed = 1;
nodes = (
(102.236,-14,o),
(144.386,13.2,o),
(154.314,62.539,cs),
(163.285,107.117,o),
(131.758,147.022,o),
(82.446,146.67,cs),
(37.083,146.984,o),
(-4.941,115.91,o),
(-13.706,72.354,cs),
(-23.259,24.883,o),
(6.346,-14,o),
(58.295,-14,cs)
);
}
);
userData = {
com.hugojourdan.ColorFlow = {
"0" = 0;
"1" = 0;
"10" = 0;
"11" = 0;
"2" = 0;
"3" = 0;
"4" = 0;
"5" = 0;
"6" = 0;
"7" = 0;
"8" = 0;
"9" = 0;
};
};
width = 231;
}
);
metricRight = "=|";
unicode = 46;
userData = {
KernOnSpecialSpacing = {
L = period;
R = period;
};
};
},
{
glyphname = comma;
kernLeft = KO_comma;
kernRight = KO_comma;
layers = (
{
layerId = "73572E25-487C-487F-975F-150A505979A5";
shapes = (
{
closed = 1;
nodes = (
(16.2,-173,l),
(154.904,122,l),
(81.904,122,l),
(-44.8,-173,l)
);
}
);
userData = {
com.hugojourdan.ColorFlow = {
"0" = 0;
"1" = 0;
"10" = 0;
"11" = 0;
"2" = 0;
"3" = 0;
"4" = 0;
"5" = 0;
"6" = 0;
"7" = 0;
"8" = 0;
"9" = 0;
};
};
width = 229;
},
{
layerId = "66114D67-63CC-4821-8086-0090D571F0A1";
shapes = (
{
closed = 1;
nodes = (
(60.193,-158.68,l),
(201.222,122,l),
(76.426,122,l),
(-40.603,-158.68,l)
);
}
);
userData = {
com.hugojourdan.ColorFlow = {
"0" = 0;
"1" = 0;
"10" = 0;
"11" = 0;
"2" = 0;
"3" = 0;
"4" = 0;
"5" = 0;
"6" = 0;
"7" = 0;
"8" = 0;
"9" = 0;
};
};
width = 266;
}
);
metricRight = period;
unicode = 44;
userData = {
KernOnName = comma;
KernOnSpecialSpacing = {
L = period;
R = period;
};
};
},
{
glyphname = exclam;
layers = (
{
layerId = "73572E25-487C-487F-975F-150A505979A5";
shapes = (
{
closed = 1;
nodes = (
(112.783,192,l),
(220.762,700,l),
(150.762,700,l),
(42.783,192,l)
);
},
{
alignment = -1;
ref = period;
}
);
userData = {
com.hugojourdan.ColorFlow = {
"0" = 0;
"1" = 0;
"10" = 0;
"11" = 0;
"2" = 0;
"3" = 0;
"4" = 0;
"5" = 0;
"6" = 0;
"7" = 0;
"8" = 0;
"9" = 0;
};
};
width = 199;
},
{
layerId = "66114D67-63CC-4821-8086-0090D571F0A1";
shapes = (
{
closed = 1;
nodes = (
(173.173,212.893,l),
(276.711,700,l),
(133.41,700,l),
(29.872,212.893,l)
);
},
{
alignment = -1;
ref = period;
}
);
userData = {
com.hugojourdan.ColorFlow = {
"0" = 0;
"1" = 0;
"10" = 0;
"11" = 0;
"2" = 0;
"3" = 0;
"4" = 0;
"5" = 0;
"6" = 0;
"7" = 0;
"8" = 0;
"9" = 0;
};
};
width = 231;
}
);
metricLeft = period;
metricRight = "=|";
unicode = 33;
userData = {
KernOnSpecialSpacing = {
L = "spaced-off";
};
};
},
{
glyphname = exclamdown;
layers = (
{
layerId = "73572E25-487C-487F-975F-150A505979A5";
shapes = (
{
closed = 1;
nodes = (
(77,309,l),
(-31,-199,l),
(39,-199,l),
(147,309,l)
);
},
{
closed = 1;
nodes = (
(114,515,o),
(88,494,o),
(82,464,cs),
(75,430,o),
(99,405,o),
(131,405,cs),
(165,405,o),
(190,426,o),
(196,456,cs),
(203,493,o),
(180,515,o),
(148,515,cs)
);
}
);
userData = {
com.hugojourdan.ColorFlow = {
"0" = 0;
"1" = 0;
"10" = 0;
"11" = 0;
"2" = 0;
"3" = 0;
"4" = 0;
"5" = 0;
"6" = 0;
"7" = 0;
"8" = 0;
"9" = 0;
};
};
width = 199;
},
{
layerId = "66114D67-63CC-4821-8086-0090D571F0A1";
shapes = (
{
closed = 1;
nodes = (
(44,284,l),
(-60,-203,l),
(84,-203,l),
(187,284,l)
);
},
{
closed = 1;
nodes = (
(115,511,o),
(73,484,o),
(63,434,cs),
(54,390,o),
(85,350,o),
(135,350,cs),
(180,350,o),
(222,381,o),
(231,425,cs),
(240,472,o),
(211,511,o),
(159,511,cs)
);
}
);
userData = {
com.hugojourdan.ColorFlow = {
"0" = 0;
"1" = 0;
"10" = 0;
"11" = 0;
"2" = 0;
"3" = 0;
"4" = 0;
"5" = 0;
"6" = 0;
"7" = 0;
"8" = 0;
"9" = 0;
};
};
width = 231;
}
);
metricLeft = exclam;
metricRight = exclam;
unicode = 161;
userData = {
KernOnSpecialSpacing = {
R = "spaced-off";
};
};
},
